<?xml version="1.0" encoding="UTF-8"?>
<svg id="Calque_2" xmlns="http://www.w3.org/2000/svg" viewBox="0 0 70.35 60.36" fill="#ffffff">
  <g id="Calque_1-2" data-name="Calque_1">
    <path d="M35.12,35.48c-10.91,0-21.82,0-32.73,0-1.76,0-2.56-.84-2.35-2.45.14-1.09.94-1.73,2.3-1.74,1.86-.02,3.73-.02,5.59.03.71.02.96-.2,1.13-.92.94-3.87,1.97-7.72,2.97-11.58.96-3.71,1.85-7.44,2.91-11.12,1.17-4.07,3.94-6.63,8.06-7.5,2.13-.45,4.28-.18,6.35.75,3.97,1.79,7.97,1.69,11.97-.03,6.42-2.77,12.74,1,14.3,7.26,1.13,4.51,2.32,9.01,3.48,13.52.69,2.68,1.38,5.35,2.05,8.04.4,1.6.38,1.58,2.07,1.56,1.68-.03,3.36-.01,5.04-.02.92,0,1.65.41,1.92,1.27.25.78.32,1.65-.38,2.3-.25.23-.61.43-.94.48-.78.1-1.58.12-2.38.12-10.45,0-20.91,0-31.36,0v.02ZM55.17,22.98c-1.02-3.92-1.99-7.71-2.99-11.5-.37-1.38-.65-2.81-1.27-4.08-1.23-2.5-4.74-4.09-7.77-2.75-3.5,1.55-7.2,2.17-11,1.44-2.05-.39-4.08-1.03-6.04-1.75-2.35-.87-6.48,1.23-7.2,4.17-1.11,4.55-2.35,9.07-3.53,13.61-.07.25-.06.52-.1.86h39.9ZM13.04,31.28h44.34c-.18-.64-.32-1.15-.47-1.67-.22-.78-.22-1.86-.74-2.26-.53-.4-1.57-.14-2.39-.14-13.01-.02-26.02-.04-39.03-.03-.28,0-.74.19-.8.39-.35,1.19-.6,2.41-.9,3.71Z"/>
    <path d="M59.36,52.12c-.11-.02-.29-.05-.47-.08-.86-.15-1.31.13-1.55,1.06-1.1,4.12-5.17,7.18-9.45,7.19-4.91,0-8.56-2.55-10.17-7.22-.31-.89-.71-1.18-1.65-1.02-.7.12-1.45,0-2.18-.03-.67-.04-1.06.15-1.24.89-.91,3.68-5.18,7.29-9.52,7.46-5.2.2-9.27-3.77-10.22-7.34-.27-1.02-.82-1.12-1.68-.97-1.34.23-2.25-.21-2.74-1.29-.63-1.36.74-3.03,2.37-2.9.03,0,.06.01.09.02q1.67.19,2.2-1.38c1.31-3.82,5-6.53,9.02-6.81,4.38-.3,8.2,2.19,9.95,5.98.12.25.24.5.33.75.61,1.58.6,1.57,2.31,1.52.67-.02,1.34.02,2.01.07.51.04.73-.13.88-.66,1.81-6.35,8.83-9.61,14.73-6.51,2.49,1.31,4.25,3.38,5.02,6.13.25.91.72,1.09,1.52.99,1-.12,1.94-.1,2.65.81.44.56.64,1.12.38,1.77-.31.75-.76,1.41-1.69,1.48-.27.02-.55.05-.89.09ZM29,50.09c.07-3.6-2.9-6.25-6.27-6.3-3.14-.04-6.17,2.45-6.2,6.15-.02,3.45,2.81,6.26,6.29,6.28,3.39.02,6.15-2.72,6.17-6.13ZM53.81,50.04c.11-2.9-2.35-6.15-6.14-6.24-2.92-.07-6.21,1.9-6.32,6.2-.08,3.23,2.8,6.18,6.15,6.24,3.48.06,6.24-2.65,6.32-6.2Z"/>
  </g>
</svg>
