<?xml version="1.0" encoding="UTF-8"?>
<svg id="Calque_2" xmlns="http://www.w3.org/2000/svg" viewBox="0 0 152.87 131.43">
  <g id="Calque_1-2" data-name="Calque_1">
    <path d="M46.73,65.3c5.6-11.05,11.11-21.91,16.66-32.87-2.44-2.6-4.28-5.53-5.19-9.03-2.65-10.21,3.84-20.56,14.46-22.96,10-2.27,20.41,4.75,22.22,14.93,1.09,6.12-.51,11.46-4.58,16.1-.53.6-.82,1.03-.38,1.89,5.32,10.41,10.59,20.84,15.88,31.27.07.15.2.26.41.53.31-.34.61-.63.86-.97,3.65-4.86,7.28-9.74,10.97-14.58.68-.89.76-1.49.11-2.52-4.03-6.41-3.73-14.62.64-20.69,4.5-6.25,12.1-9.09,19.7-7.37,7.16,1.62,12.75,7.57,14.08,15,1.73,9.6-4.19,18.92-13.68,21.38-1.19.31-1.57.84-1.7,1.9-1.49,12.74-2.98,25.48-4.52,38.22-.61,5.07-1.08,10.17-2.06,15.17-1.01,5.15-4.22,8.9-9.05,11.02-11.3,4.94-23.06,8.1-35.38,9.25-19.04,1.77-37.19-1.63-54.64-9.14-6.6-2.84-9.35-8.31-10.05-15.21-.84-8.24-1.95-16.46-2.93-24.69-.96-8.06-1.93-16.12-2.84-24.18-.15-1.32-.5-2.02-1.97-2.42C5.02,52.95-.4,45.13.02,35.8c.37-8.1,7.02-15.63,15.44-16.98,7.74-1.25,14.24,1.32,18.71,7.82,4.45,6.48,4.63,13.37.66,20.21-.68,1.18-.67,1.89.15,2.96,3.58,4.63,7.05,9.34,10.57,14.02.33.44.68.85,1.18,1.46Z"/>
  </g>
</svg>