<?xml version="1.0" encoding="UTF-8"?>
<svg id="Calque_2" xmlns="http://www.w3.org/2000/svg" viewBox="0 0 799.85 685.6">
  <g id="Calque_1-2" data-name="Calque_1">
    <path d="M0,342.4c0-46.4,9.07-90.67,27.2-132.8,18.13-42.13,42.4-78.67,72.8-109.6,30.4-30.93,66.93-55.2,109.6-72.8C252.27,9.6,296.8.53,343.2,0c46.4,0,90.67,9.07,132.8,27.2,42.13,18.13,78.67,42.4,109.6,72.8,30.93,30.4,55.2,66.93,72.8,109.6,17.6,42.67,26.67,86.93,27.2,132.8h57.6c12.27,0,22.93,3.47,32,10.4s15.73,15.47,20,25.6c4.27,10.13,5.6,20.8,4,32-1.6,11.2-6.93,21.07-16,29.6l-114.4,114.4c-11.2,11.2-24.53,16.8-40,16.8s-29.07-5.6-40.8-16.8l-114.4-114.4c-8.53-8.53-13.6-18.4-15.2-29.6-1.6-11.2-.53-21.87,3.2-32,3.73-10.13,10.4-18.67,20-25.6s20.53-10.4,32.8-10.4h56.8c0-41.07-10.13-79.2-30.4-114.4-20.27-35.2-48-62.93-83.2-83.2-35.2-20.27-73.33-30.4-114.4-30.4-41.07,0-79.47,10.13-115.2,30.4-35.73,20.27-63.47,48-83.2,83.2s-29.87,73.33-30.4,114.4c-.53,41.07,9.6,79.47,30.4,115.2,20.8,35.73,48.53,63.47,83.2,83.2,34.67,19.73,73.07,29.87,115.2,30.4,28.8,0,56.8-5.33,84-16l85.6,84.8c-52.27,30.4-108.8,45.6-169.6,45.6-46.93,0-91.47-9.07-133.6-27.2-42.13-18.13-78.67-42.4-109.6-72.8-30.93-30.4-55.2-66.93-72.8-109.6C9.6,433.33.53,388.8,0,342.4h0Z"/>
  </g>
</svg>