<?xml version="1.0" encoding="UTF-8"?>
<svg id="Calque_2" xmlns="http://www.w3.org/2000/svg" viewBox="0 0 89.58 63.52">
  <g id="Calque_1-2" data-name="Calque_1">
    <path d="M89.58.16c-1.53,2.25-2.9,4.28-4.3,6.29-5.2,7.49-10.29,15.06-15.68,22.41-1.7,2.31-1.48,3.75.09,5.94,6.24,8.67,12.27,17.49,18.36,26.26.46.66.84,1.36,1.5,2.43-1.25,0-2.13,0-3.01,0-17.78,0-35.56-.03-53.34.04-1.99,0-3.36-.52-4.76-2.01-8.87-9.36-17.86-18.6-26.8-27.89-.51-.53-.95-1.11-1.64-1.91,3.11-3.27,6.18-6.53,9.28-9.75C15.92,15.06,22.55,8.14,29.26,1.3c.67-.69,1.85-1.25,2.8-1.25C50.76-.02,69.46,0,88.16,0c.34,0,.68.07,1.42.15Z"/>
  </g>
</svg>