<?xml version="1.0" encoding="UTF-8"?>
<svg id="Calque_2" xmlns="http://www.w3.org/2000/svg" viewBox="0 0 383.33 383.36">
  <g id="Calque_1-2" data-name="Calque_1">
    <path d="M209.66,383.36h-35.93c-1.25-.45-2.48-.97-3.76-1.35-9.86-2.89-17.05-8.98-21.84-18.02-3.27-6.15-4.18-12.79-3.68-19.58.26-3.57-1.05-5-4.31-5.99-4.27-1.29-8.38-3.15-12.49-4.92-7.32-3.16-7.3-3.21-13.11,2.37-13.78,13.25-34.22,13.91-48.4,1.15-7.04-6.33-13.76-13.07-20.09-20.11-10.5-11.68-11.75-28.88-3.25-41.95,2.35-3.61,5.51-6.74,8.57-9.83,1.6-1.61,1.74-2.79.74-4.77-1.97-3.88-4.3-7.77-5.2-11.94-1.63-7.57-5.45-9.73-13.25-9.77C14.69,238.57.13,222.78.06,203.72c-.03-8.11-.14-16.22.03-24.33.3-14.4,7.17-24.79,19.79-31.5,6.4-3.41,13.35-3.59,20.38-3.63,1.28,0,3.27-.88,3.71-1.89,3.15-7.29,5.98-14.71,9.23-22.9-1.81-1.62-4.2-3.46-6.24-5.63-12.42-13.18-13.15-33.38-1.21-46.98,6.57-7.48,13.69-14.56,21.15-21.16,13.37-11.82,33.65-11.2,46.7.96,2.27,2.11,4.18,4.62,6.07,6.73,5.74-2.5,10.57-5.42,15.8-6.67,7.33-1.74,9.19-5.45,9.25-12.86C144.85,14.62,160.51.08,179.78.02c8.11-.03,16.22-.03,24.33,0,14.66.07,27.96,9.09,32.55,23.07,1.78,5.42,1.57,11.49,2.43,17.24.19,1.25.78,3.1,1.69,3.49,7.4,3.17,14.92,6.05,22.98,9.25,1.58-1.72,3.33-3.84,5.31-5.74,13.76-13.17,34.29-13.67,48.4-.86,6.83,6.2,13.35,12.78,19.56,19.59,8.21,9,10.59,19.78,8.11,31.65-1.74,8.29-6.59,14.69-12.73,20.2-1.83,1.65-2.29,2.94-1.02,5.34,2.25,4.28,4.55,8.7,5.72,13.34,1.56,6.18,4.52,8.08,11.04,7.98,15.18-.23,25.92,7.5,32.34,21.17,1.19,2.54,1.91,5.3,2.85,7.96v35.94c-.27.65-.63,1.29-.8,1.97-2.3,9.24-7.39,16.51-15.31,21.78-7.03,4.69-14.92,6.13-23.18,5.55-3.23-.23-4.55,1.01-5.49,3.93-1.4,4.37-3.21,8.62-5.04,12.84-3.18,7.34-3.24,7.31,2.32,13.11,13.24,13.8,13.93,34.18,1.2,48.4-6.23,6.96-12.93,13.53-19.82,19.84-9.23,8.45-20.32,10.68-32.36,7.91-8.07-1.86-14.31-6.81-19.71-12.87-1.47-1.65-2.66-1.85-4.73-.86-5.26,2.52-10.55,5.18-16.12,6.8-4.5,1.31-5.58,3.46-5.38,7.86.63,13.66-4.86,24.56-16.4,31.93-3.88,2.48-8.55,3.7-12.87,5.5ZM108.5,191.49c-.07,46.08,36.91,83.28,82.9,83.41,46.07.13,83.34-36.86,83.48-82.84.15-46.27-36.91-83.54-83.1-83.58-46.05-.04-83.22,37-83.29,83.02Z"/>
  </g>
</svg>