<?xml version="1.0" encoding="UTF-8"?>
<svg id="Calque_2" xmlns="http://www.w3.org/2000/svg" viewBox="0 0 95.52 87.82">
  <g id="Calque_1-2" data-name="Calque_1">
    <path d="M57.06,34.06c-2.82,0-5.38,0-7.94,0-7.75,0-15.5-.01-23.26,0-3.44,0-4.3.9-4.3,4.36,0,14.98,0,29.97,0,44.95,0,3.07-1.33,4.42-4.44,4.43-4.29.02-8.59.03-12.88,0-3.16-.02-4.15-1.05-4.15-4.22,0-19.28.18-38.56-.1-57.84-.1-6.64,5.02-10.71,10.89-10.68,14.61.06,29.22.02,43.83.02.71,0,1.41,0,2.32,0-.55-3.4-1.05-6.61-1.61-9.82-.29-1.68-.68-3.38.97-4.58,1.72-1.25,3.43-.6,4.98.38,2.31,1.44,4.54,3.01,6.81,4.52,7.05,4.68,14.12,9.34,21.16,14.03,1.83,1.22,3.61,2.49,5.4,3.77,1.01.73,1.02,1.51-.03,2.21-5.17,3.45-10.34,6.88-15.51,10.33-3.45,2.3-6.88,4.63-10.33,6.92-2.76,1.83-5.52,3.65-8.31,5.43-1.37.88-2.84.92-4.19-.03-1.39-.97-1.32-2.44-1.08-3.9.56-3.34,1.15-6.68,1.76-10.28Z"/>
  </g>
</svg>