<?xml version="1.0" encoding="UTF-8"?>
<svg id="Calque_2" xmlns="http://www.w3.org/2000/svg" viewBox="0 0 401.99 363.3">
  <g id="Calque_1-2" data-name="Calque_1">
    <path d="M180.77,236.39c-3.07,3.5-6,6.84-8.93,10.18-20.94,23.92-41.88,47.84-62.83,71.77-12.66,14.46-25.33,28.9-37.94,43.4-1.01,1.16-2.04,1.57-3.54,1.56-19.11-.05-38.21-.03-57.32-.03-.62,0-1.24,0-2.31,0,48.16-55.03,96.05-109.75,144.04-164.57C101.34,132.55,50.78,66.46,0,.08c.95-.02,1.61-.05,2.26-.05,39.14,0,78.27,0,117.41,0,2.02,0,4.04.06,6.06-.03,1.1-.05,1.79.31,2.45,1.2,6.16,8.21,12.37,16.39,18.56,24.58,19.94,26.36,39.89,52.71,59.83,79.07,2.61,3.45,5.22,6.9,7.84,10.35.17.23.36.44.62.74.39-.41.75-.76,1.08-1.14,17.44-19.93,34.89-39.86,52.33-59.79,15.66-17.89,31.32-35.77,46.95-53.69.78-.89,1.53-1.33,2.77-1.33,19.39.04,38.79.03,58.19.03.5,0,1,0,1.97,0-45.06,51.48-89.84,102.64-134.67,153.87,52.76,69.73,105.47,139.39,158.35,209.28-.86.04-1.42.09-1.97.09-40.12,0-80.24,0-120.36.03-1.21,0-2.01-.3-2.76-1.28-22.41-29.34-44.84-58.66-67.27-87.99-9.25-12.1-18.51-24.19-27.77-36.28-.31-.41-.65-.8-1.09-1.35ZM328.93,326.23c-.69-.93-1.16-1.58-1.64-2.21-9.6-12.7-19.21-25.39-28.81-38.09-21.27-28.1-42.54-56.2-63.8-84.31-13.43-17.76-26.86-35.52-40.29-53.28-21.12-27.92-42.25-55.84-63.38-83.76-7.13-9.43-14.27-18.86-21.39-28.3-.62-.82-1.22-1.32-2.39-1.32-11.2.06-22.39.03-33.59.04-.41,0-.82.09-1.37.16.43.6.72,1.04,1.03,1.45,10.16,13.28,20.33,26.57,30.49,39.85,20.33,26.57,40.66,53.14,61,79.7,22.19,28.99,44.38,57.99,66.56,86.99,20.85,27.26,41.71,54.51,62.54,81.79.73.95,1.46,1.41,2.71,1.4,10.16-.05,20.32-.03,30.47-.03.51,0,1.01-.04,1.86-.08Z"/>
  </g>
</svg>