<?xml version="1.0" encoding="UTF-8"?>
<svg id="Calque_2" xmlns="http://www.w3.org/2000/svg" viewBox="0 0 800 739.05">
  <g id="Capa_1">
    <path d="M697.06,0c-56.85,0-102.94,46.09-102.94,102.94v236.22c-4.42-5.03-9.58-9.45-15.52-12.9L93.15,46c-19.22-11.1-42.88-11.1-62.1,0C11.85,57.08,0,77.59,0,99.78v560.5c0,22.2,11.85,42.69,31.05,53.79,9.61,5.53,20.35,8.31,31.05,8.31s21.44-2.78,31.05-8.31l485.44-280.27c5.95-3.46,11.1-7.89,15.52-12.92v215.22c0,56.85,46.09,102.94,102.94,102.94s102.94-46.09,102.94-102.94V102.94c0-56.85-46.09-102.94-102.94-102.94Z"/>
  </g>
</svg>