<?xml version="1.0" encoding="UTF-8"?>
<svg id="Calque_2" xmlns="http://www.w3.org/2000/svg" viewBox="0 0 335.35 311.4">
  <g id="Calque_1-2" data-name="Calque_1">
    <path d="M167.68,311.39c-43.16,0-86.31,0-129.47,0C15.25,311.39,0,296.16,0,273.2c0-78.33,0-156.66,0-234.99C0,15.23,15.23,0,38.2,0c86.31,0,172.62,0,258.94,0,23,0,38.21,15.19,38.21,38.18,0,78.33,0,156.66,0,234.99,0,23-15.2,38.21-38.19,38.21-43.16,0-86.31,0-129.47,0ZM95.82,154.79c0,16.46-.03,32.93,0,49.39.05,19.93,18.7,31.39,36.29,22.12,30.64-16.14,61.16-32.48,91.76-48.69,8.91-4.72,14.09-11.91,14.08-22.08,0-10-5.05-17.14-13.78-21.89-30.53-16.6-60.98-33.34-91.55-49.87-17.94-9.7-36.75,1.63-36.79,22-.04,16.34,0,32.68,0,49.01ZM47.75,72.06h-23.56v23.49h23.56v-23.49ZM287.51,95.58h23.61v-23.42h-23.61v23.42ZM47.68,143.65v-23.62h-23.43v23.62h23.43ZM311.21,119.99h-23.52v23.45h23.52v-23.45ZM47.74,167.94h-23.49v23.49h23.49v-23.49ZM311.24,167.95h-23.49v23.47h23.49v-23.47ZM24.21,215.76v23.49h23.51v-23.49h-23.51ZM311.13,239.37v-23.49h-23.49v23.49h23.49ZM47.77,23.98c-4.49,0-8.59-.16-12.67.04-5.55.28-10.37,4.5-10.92,9.99-.45,4.51-.09,9.09-.09,13.65h23.68v-23.67ZM311.36,263.75h-23.64v23.67c4.25,0,8.22.13,12.18-.03,6.17-.26,11.1-5.04,11.42-11.16.21-4.07.04-8.16.04-12.48ZM311.39,47.77c0-3.42,0-6.51,0-9.6,0-1.12.04-2.24-.06-3.35-.53-5.47-4.85-10.22-10.29-10.69-4.4-.37-8.86-.08-13.37-.08v23.72h23.73ZM47.64,287.39v-23.61h-23.67c0,4.25-.13,8.23.03,12.19.24,5.99,4.89,10.97,10.8,11.37,4.19.28,8.41.05,12.83.05Z"/>
  </g>
</svg>