<?xml version="1.0" encoding="UTF-8"?>
<svg id="Calque_2" xmlns="http://www.w3.org/2000/svg" viewBox="0 0 168.12 168.06">
  <g id="Calque_1-2" data-name="Calque_1">
    <path d="M105.88,130.22c-32.97,19-71.94,8.88-92.29-18.57C-6.75,84.21-4.02,45.66,20.16,20.89,44.09-3.62,82.59-6.96,110.82,12.98c27.16,19.19,39.19,58.53,19.61,92.61,4.6,4.58,9.22,9.19,13.84,13.8,6.33,6.33,12.73,12.59,18.95,19.02,6.03,6.22,6.51,15.73,1.36,22.58-6.49,8.64-18.73,9.53-26.56,1.79-10.41-10.28-20.72-20.68-31.05-31.04-.46-.46-.78-1.08-1.09-1.52ZM69.83,25.34c-24.37-.06-44.56,19.84-44.65,44-.09,25.03,19.6,45.09,44.36,45.17,24.75.08,44.88-19.73,44.94-44.23.06-24.87-19.81-44.87-44.64-44.93Z"/>
  </g>
</svg>