<?xml version="1.0" encoding="UTF-8"?>
<svg id="Calque_2" xmlns="http://www.w3.org/2000/svg" viewBox="0 0 383.13 383.37">
  <g id="Calque_1-2" data-name="Calque_1">
    <g>
      <path d="M383.13,113.15c-1.36,6.94-2.3,13.99-4.17,20.79-4.7,17.18-13.57,32.06-26.08,44.72-12.19,12.33-24.43,24.62-36.79,36.78-7.74,7.62-17.1,10.16-27.53,6.95-10.27-3.15-16.69-10.31-18.79-20.83-1.95-9.75,1-18.21,8.04-25.25,12.09-12.08,24.3-24.04,36.22-36.29,24.76-25.46,16.47-67.57-16.29-81.16-19.34-8.02-37.91-5.11-53.18,9.29-19.87,18.74-39.05,38.22-58.01,57.89-18.16,18.84-17.53,48.85.86,68.48,6.98,7.45,10.16,15.92,7.87,26-2.28,10.03-8.45,16.86-18.23,20.02-9.94,3.21-19.23,1.37-26.75-5.85-17.24-16.54-27.59-36.88-30.57-60.55-4.47-35.52,6.52-65.82,31.99-90.99,17.39-17.19,34.52-34.63,51.91-51.83,37.69-37.29,95.1-41.87,137.02-10.64,24.32,18.12,38.19,42.57,41.81,72.75.13,1.09.45,2.16.69,3.24v16.47Z"/>
      <path d="M96.44,383.37c-8.14-1.74-16.46-2.88-24.39-5.32C33.39,366.14,4.23,329.84.53,289.58c-3.09-33.62,7.42-62.35,31.11-86.31,8.68-8.78,17.4-17.54,26.22-26.18,7.92-7.75,17.48-10.1,27.93-6.74,10.34,3.32,16.63,10.79,18.49,21.54,1.62,9.39-1.36,17.49-8.02,24.21-8.96,9.04-18.13,17.86-26.95,27.03-13.56,14.11-18.07,30.88-12.48,49.64,5.59,18.76,18.5,30.49,37.61,34.66,16.72,3.64,31.97-.4,44.27-12.27,19.48-18.79,38.62-37.95,57.44-57.4,18.38-19,17.96-49.02-.51-68.76-7.63-8.15-10.66-17.38-7.41-28.15,6.04-20,31.05-25.97,45.8-10.89,20.32,20.78,30.5,45.84,30.21,74.92-.29,28.38-10.66,52.74-30.53,72.93-18.02,18.32-36.26,36.43-54.49,54.54-17.6,17.48-38.7,27.77-63.46,30.38-.71.08-1.4.41-2.1.62h-17.22Z"/>
    </g>
  </g>
</svg>