<?xml version="1.0" encoding="UTF-8"?>
<svg id="Calque_2" xmlns="http://www.w3.org/2000/svg" viewBox="0 0 408.65 408.79">
  <g id="Calque_1-2" data-name="Calque_1">
    <path d="M0,216.38c0-7.98,0-15.97,0-23.95.33-2.87.66-5.74.98-8.62,4.89-43.98,21.69-82.78,51.34-115.68C83.79,33.2,122.79,11.39,169.19,3.18,176.88,1.82,184.68,1.04,192.42,0c7.98,0,15.97,0,23.95,0,6.84.86,13.72,1.48,20.51,2.61,42.69,7.14,79.89,25.5,110.51,56.09,45.92,45.89,66.13,101.66,60.26,166.25-3.94,43.35-20.91,81.67-49.9,114.23-38.5,43.24-86.95,66.53-144.77,69.35-40.32,1.96-78.23-7.44-112.74-28.49C47.2,347.69,14.64,300.81,3.18,239.58,1.75,231.91,1.04,224.11,0,216.38ZM231.35,204.27c-1.3,1.38-2.27,2.44-3.28,3.46-22.48,22.48-44.96,44.96-67.43,67.45-1.31,1.31-2.63,2.65-3.76,4.12-5.8,7.49-4.35,18.04,3.19,23.76,7.34,5.57,16.27,4.56,23.67-2.83,27.21-27.16,54.39-54.35,81.57-81.53,9.73-9.73,9.71-18.9-.06-28.67-26.9-26.9-53.81-53.8-80.72-80.68-1.31-1.31-2.65-2.64-4.14-3.73-4.05-2.99-8.62-4.15-13.56-2.98-6.46,1.53-10.84,5.47-12.75,11.89-2.04,6.82.09,12.58,4.93,17.45,10.97,11.04,21.99,22.03,33,33.03,12.98,12.97,25.98,25.93,39.35,39.27Z"/>
  </g>
</svg>