<?xml version="1.0" encoding="UTF-8"?>
<svg id="Calque_2" xmlns="http://www.w3.org/2000/svg" viewBox="0 0 223.57 268.21">
  <g id="Calque_1-2" data-name="Calque_1">
    <g>
      <path d="M117.33,0c2.61.54,5.25.94,7.81,1.64,26.15,7.19,43.04,23.91,48.4,50.43,7.07,34.96-14.12,65.22-44.26,74.31-39.33,11.86-75.22-13.45-82.51-48.73C40.08,45.19,58.9,13.22,90.56,2.88c3.45-1.13,7.12-1.56,10.69-2.33.66-.14,1.29-.36,1.94-.55,4.71,0,9.43,0,14.14,0Z"/>
      <path d="M111.64,268.17c-22.17,0-44.35.12-66.52-.05-11.7-.09-22.29-3.66-31.12-11.62-7.7-6.94-12.42-15.69-13.34-25.91-2.02-22.34.5-44.23,8.82-65.17,4.96-12.47,12.36-23.22,24.61-29.84,7.69-4.15,15.95-6.17,24.6-6,2.7.05,5.55,1.4,8.02,2.74,3.97,2.16,7.68,4.81,11.51,7.23,11.59,7.32,24.14,11.27,37.93,10.22,10.15-.77,19.54-4.16,28.21-9.48,2.97-1.82,6.06-3.53,8.76-5.71,7.09-5.72,14.92-5.77,23.28-3.91,15.74,3.51,26.63,12.99,34.17,26.89,6.41,11.82,9.86,24.57,11.37,37.78,1.12,9.76,1.63,19.65,1.63,29.48,0,21.13-14.35,38.22-35.04,42.18-4.08.78-8.3,1.11-12.46,1.13-21.47.11-42.95.05-64.42.05v-.02Z"/>
    </g>
  </g>
</svg>