<?xml version="1.0" encoding="UTF-8"?>
<svg id="Calque_2" xmlns="http://www.w3.org/2000/svg" viewBox="0 0 749.77 749.77" fill="currentColor" aria-hidden="true" focusable="false">
  <g id="Calque_1-2" data-name="Calque_1">
    <path d="M620.03,174.8v.02c0,24.85-20.15,44.97-44.97,44.97s-44.97-20.15-44.97-44.97,20.15-44.97,44.97-44.97h0c24.83.02,44.95,20.12,44.97,44.95h0ZM374.9,499.88c-69.02,0-124.98-55.95-124.98-124.98s55.95-124.98,124.98-124.98,124.98,55.95,124.98,124.98h0v.02c0,69-55.92,124.92-124.92,124.92h-.02l-.03.03ZM374.9,182.4h0c-106.33,0-192.5,86.2-192.5,192.5s86.2,192.5,192.5,192.5,192.5-86.2,192.5-192.5h0v-.03c0-106.3-86.18-192.5-192.5-192.5h-.03l.03.03ZM374.9,67.5c100.08,0,112,.5,151.53,2.22,25.08.3,48.93,5.05,71,13.45l-1.42-.48c32.85,12.8,58.35,38.3,70.87,70.3l.3.85c7.9,20.65,12.6,44.52,12.9,69.45v.13c1.77,39.55,2.17,51.43,2.17,151.52s-.47,112-2.3,151.53c-.47,25.1-5.25,48.95-13.63,71.02l.47-1.45c-6.45,16.9-16,31.3-28.07,43.15l-.02.02c-11.82,12.1-26.22,21.65-42.3,27.72l-.8.27c-20.73,7.9-44.68,12.6-69.7,12.9h-.12c-39.8,1.77-51.53,2.17-151.8,2.17s-112.02-.47-151.8-2.3c-25.2-.47-49.15-5.25-71.32-13.63l1.48.47c-16.9-6.35-31.3-15.92-43.05-28.05l-.02-.02c-12.22-11.75-21.83-26.18-27.85-42.33l-.25-.78c-7.88-20.7-12.65-44.62-13.13-69.62v-.2c-1.4-39.38-1.9-51.53-1.9-151.32s.5-112.02,1.9-151.87c.48-25.17,5.23-49.1,13.6-71.25l-.48,1.48c6.18-16.97,15.8-31.42,28.08-43.1l.05-.05c11.7-12.3,26.13-21.88,42.3-27.8l.78-.25c20.57-7.95,44.35-12.73,69.2-13.15h.17c39.83-1.4,51.55-1.88,151.8-1.88l1.37.85ZM374.9,0C273.05,0,260.35.48,220.35,2.25c-32.87.7-64.05,7.05-92.9,18.07l1.9-.62c-26,9.92-48.15,24.65-66.4,43.2l-.02.02c-18.63,18.25-33.32,40.43-42.83,65.18l-.42,1.25c-10.4,26.95-16.75,58.15-17.43,90.7v.3c-1.88,40-2.25,52.7-2.25,154.55s.48,114.55,2.25,154.55c.7,32.88,7.05,64.05,18.08,92.9l-.62-1.9c19.9,50.52,59.12,89.75,108.35,109.2l1.3.45c26.95,10.38,58.15,16.73,90.7,17.43h.3c40,1.88,52.7,2.25,154.55,2.25s114.55-.47,154.55-2.25c32.88-.72,64.05-7.05,92.9-18.07l-1.9.65c50.52-19.9,89.75-59.12,109.2-108.35l.45-1.3c10.4-26.95,16.73-58.15,17.43-90.7v-.3c1.88-40,2.25-52.7,2.25-154.55s-.47-114.55-2.25-154.55c-.72-32.88-7.05-64.05-18.07-92.9l.65,1.9c-9.95-26-24.65-48.15-43.23-66.4l-.02-.02c-18.25-18.63-40.43-33.32-65.18-42.83l-1.25-.42c-26.95-10.4-58.15-16.75-90.7-17.43h-.3c-40-1.88-52.7-2.25-154.55-2.25h.03Z"/>
  </g>
</svg>