<?xml version="1.0" encoding="UTF-8"?>
<svg id="Calque_2" xmlns="http://www.w3.org/2000/svg" viewBox="0 0 350.49 341.89">
  <g id="Calque_1-2" data-name="Calque_1">
    <path d="M350.49,226.83c-.88,5.37-1.65,10.75-2.66,16.09-3.16,16.65-9.83,31.91-18.92,46.12-13.3,20.79-30.93,37.27-51.27,51.01-3.58,2.42-7.42,2.17-11.12.82-4.03-1.47-4.96-6.11-1.96-9.61,3.78-4.41,8.09-8.37,11.75-12.87,10.41-12.79,17.11-27.24,17.18-43.98.09-20.85-9.27-37.48-24.71-50.84-15.42-13.34-33.69-20.5-53.68-23.45-6.62-.98-13.33-1.33-20.61-2.03v4.54c0,21.21-.02,42.43.02,63.64,0,3.21-.12,6.2-3.52,7.83-3.17,1.51-5.67.08-8.17-1.71C123.25,229.55,63.66,186.72,4.08,143.87c-5.58-4.01-5.43-8.26.41-12.48,33.88-24.52,67.76-49.04,101.65-73.56,25.39-18.37,50.76-36.77,76.21-55.06,1.86-1.34,4.19-2.63,6.38-2.76,3.55-.21,5.75,2.83,5.76,7.04.03,15.4.01,30.79.02,46.19,0,7.73,0,15.45,0,23.4,4.73.31,9.14.52,13.54.91,28.37,2.57,54.83,10.97,78.62,26.82,34.3,22.86,55.85,54.24,62.48,95.31.47,2.89.91,5.77,1.37,8.66v18.48Z"/>
  </g>
</svg>