<?xml version="1.0" encoding="UTF-8"?>
<svg id="Calque_2" xmlns="http://www.w3.org/2000/svg" viewBox="0 0 113.47 113.4">
  <g id="Calque_2-2" data-name="Calque_2">
    <g id="Calque_1-2">
      <path d="M113.47,56.7c-.06,31.47-25.53,56.98-57.26,56.69C25.12,113.11-.31,88.05,0,56.06.3,24.25,26.82-.88,58.38.02c29.53.84,54.89,24.69,55.09,56.68ZM49.31,38.77c-2.29,5.16-4.68,10.15-6.76,15.27-4.47,11-8.21,22.2-8.95,34.18-.2,3.21,0,6.39,1.24,9.41,1.41,3.42,4.26,4.58,7.69,3.2,2.53-1.02,4.6-2.71,6.51-4.59,4.81-4.75,8.5-10.34,11.86-16.16.09-.15.1-.35.1-.34-7.17-2.99-14.25-5.94-21.4-8.91.65-2.06,1.2-3.82,1.77-5.63,7.42,3.63,14.85,6.77,22.83,9.43,3.25-7.48,6.46-14.87,9.71-22.35,1.5.82,3.09,1.69,4.95,2.71-3.09,7.15-6.15,14.21-9.25,21.37,7.16,1.99,14.43,3.72,22.02,3.43,2.35-.09,4.68-.45,6.82-1.59,2.34-1.25,3.47-3.31,2.85-5.85-.33-1.36-.97-2.7-1.72-3.9-1.94-3.13-4.63-5.58-7.47-7.86-6.91-5.56-14.61-9.81-22.58-13.62-6.47-3.09-13.1-5.79-20.21-8.2h-.01ZM43.88,37.06c-7.45-2.07-14.95-3.91-22.78-3.38-1.95.13-3.91.72-5.77,1.38-1.92.69-3.14,2.22-3.34,4.31-.19,2.09.73,3.89,1.83,5.58,2.52,3.83,5.93,6.77,9.58,9.46,2.56,1.89,5.24,3.61,7.91,5.45-.57,1.73-1.15,3.48-1.8,5.43-2.7-1.77-5.32-3.37-7.81-5.16-5.86-4.23-11.4-8.77-14.58-15.84-2.37,9.75-2.04,19.18,1.06,28.46,3.86,11.58,11.04,20.62,21.45,27.3-.35-1.19-.69-2.2-.93-3.23-1.27-5.51-.79-11.03.12-16.52,1.63-9.79,4.7-19.18,8.49-28.32,2.05-4.96,4.32-9.84,6.56-14.91h.01ZM106.34,69.08c2.6-10.98,1.88-21.57-2.36-31.87-4.13-10.02-10.85-17.9-20.12-23.83,3.36,10.52.77,20.49-1.65,30.6-1.03-.55-1.9-1.02-2.78-1.48-2.33-1.24-2.3-1.23-1.7-3.75,1.35-5.64,2.46-11.32,2.03-17.15-.15-2.04-.56-4.13-1.28-6.04-1.2-3.19-4.01-4.32-7.21-3.11-1.22.46-2.4,1.1-3.46,1.85-4.43,3.15-7.71,7.38-10.75,11.8-1.7,2.47-3.24,5.05-4.89,7.66.62.24,1.02.4,1.43.55,12,4.29,23.6,9.45,34.33,16.39,7.37,4.76,14.43,9.91,18.41,18.37h0ZM44.58,106.24c11.67,2.78,23,1.81,33.89-3.3,9.01-4.23,16.13-10.63,21.56-19.09-11.58,3.52-22.47.35-33.12-2.38-2.88,4.28-5.54,8.56-8.53,12.58-3.7,4.99-7.92,9.51-13.8,12.19ZM68.62,7.02c-11.56-3.12-25.65-1.21-36.82,5.08-7.2,4.06-16.92,13.4-18.1,17.48,3.14-1.24,6.37-1.62,9.65-1.62,7.28.01,14.32,1.54,21.29,3.48,2.15.6,2.13.59,3.24-1.3,3.86-6.6,8.05-12.98,13.82-18.1,2.15-1.9,4.65-3.4,6.93-5.03h-.01Z"/>
    </g>
  </g>
</svg>