<?xml version="1.0" encoding="UTF-8"?>
<svg id="Calque_2" xmlns="http://www.w3.org/2000/svg" viewBox="0 0 566.67 400">
  <g id="Calque_1-2" data-name="Calque_1">
    <path d="M533.33,233.33H163.33c-18.41,0-33.33-14.92-33.33-33.33s14.92-33.33,33.33-33.33h370c18.41,0,33.33,14.92,33.33,33.33s-14.92,33.33-33.33,33.33Z"/>
    <path d="M533.33,400H163.33c-18.41,0-33.33-14.92-33.33-33.33s14.92-33.33,33.33-33.33h370c18.41,0,33.33,14.92,33.33,33.33s-14.92,33.33-33.33,33.33Z"/>
    <path d="M533.33,66.67H164.14c-19.57,0-35.35-16.02-34.06-35.55C131.22,13.74,145.67,0,163.33,0h369.2c19.57,0,35.35,16.02,34.06,35.55-1.14,17.37-15.6,31.11-33.26,31.11Z"/>
    <circle cx="33.33" cy="33.33" r="33.33"/>
    <circle cx="33.33" cy="200" r="33.33"/>
    <circle cx="33.33" cy="366.67" r="33.33"/>
  </g>
</svg>