<?xml version="1.0" encoding="UTF-8"?>
<svg id="Calque_2" xmlns="http://www.w3.org/2000/svg" viewBox="0 0 800 680.03">
  <g id="svg2">
    <path id="path6596" d="M446.48,122.36c-15.26-1.65-30.77-2.6-46.48-2.83-68.68.3-139.88,17.01-207.28,49.02-50.04,24.75-98.78,59.69-141.11,102.78-20.79,22-47.32,53.85-51.61,87.84.51,29.44,32.1,65.78,51.61,87.84,39.7,41.4,87.17,75.34,141.11,102.78,1.83.89,3.67,1.77,5.52,2.64l-50.05,87.4,68,40.19L583.81,40.01,518.35,0l-71.87,122.36ZM601.71,166.01l-49.95,86.57c22.98,29.85,36.62,66.67,36.62,106.59,0,99.5-84.35,180.18-188.43,180.18-4.5,0-8.86-.49-13.28-.78l-33.06,57.23c15.25,1.63,30.66,2.82,46.39,3.03,68.75-.31,139.91-17.21,207.23-49.02,50.04-24.75,98.83-59.69,141.16-102.78,20.79-22,47.32-53.85,51.61-87.84-.51-29.44-32.1-65.78-51.61-87.84-39.7-41.4-87.22-75.34-141.16-102.78-1.82-.88-3.68-1.68-5.52-2.54h0ZM399.95,179c4.56,0,9.09.18,13.57.49l-38.72,67.04c-54.34,11.02-95.12,57.25-95.12,112.6,0,13.9,2.56,27.21,7.28,39.55,0,.01,0,.04,0,.05l-38.82,67.24c-23.03-29.88-36.62-66.82-36.62-106.79,0-99.5,84.35-180.17,188.43-180.17h0ZM512.6,320.36l-87.26,151.17c54.05-11.22,94.53-57.25,94.53-112.4,0-13.65-2.72-26.63-7.28-38.77h0Z"/>
  </g>
</svg>