<?xml version="1.0" encoding="UTF-8"?>
<svg id="Calque_2" xmlns="http://www.w3.org/2000/svg" viewBox="0 0 176.75 191.49">
  <g id="Calque_1-2" data-name="Calque_1">
    <g>
      <path d="M90.26,0c5.02,1.08,9.09,3.62,11.22,8.37.99,2.19,1.54,4.78,1.55,7.18.11,23.99.09,47.97.06,71.96-.01,7.59-4.24,13.21-11.19,15.12-8.32,2.28-17.55-4.28-18.1-12.88-.02-.25-.04-.5-.04-.75,0-24.92-.1-49.84.04-74.76.04-7.05,4.91-12.38,11.84-13.96.3-.07.59-.19.88-.29,1.25,0,2.49,0,3.74,0Z"/>
      <path d="M0,103.03c.69-28.74,11.97-52.25,34.79-70,9.37-7.29,22.19-2.41,23.91,9.1.73,4.9-.72,9.23-4.36,12.73-3.99,3.83-8.39,7.33-11.88,11.58-10.09,12.27-14.5,26.64-12.61,42.34,2.86,23.76,15.46,40.87,38.03,49.28,23.13,8.62,44.15,3.58,61.91-13.28,10.97-10.41,16.7-23.72,17.31-38.97.81-20.17-6.94-36.48-22.58-49.08-5.12-4.12-7.56-9.15-6.28-15.7,1.88-9.63,13.47-14.72,21.69-9.34,9.25,6.06,16.59,14.09,22.6,23.33,7.48,11.51,12.12,24.11,13.62,37.76,2.4,21.85-2.55,42.01-14.95,60.12-14.61,21.35-35.09,33.8-60.54,37.62-39.77,5.98-79.03-16.91-94.13-54.35C2.25,125.56,0,114.54,0,103.03Z"/>
    </g>
  </g>
</svg>