<?xml version="1.0" encoding="UTF-8"?>
<svg id="Calque_2" xmlns="http://www.w3.org/2000/svg" viewBox="0 0 105.28 154.7">
  <g id="Calque_1-2" data-name="Calque_1">
    <path d="M52.7,154.7c-1.28-2.12-2.43-4.03-3.58-5.94-10.37-17.2-20.87-34.32-31.04-51.64-6.29-10.72-11.94-21.8-15.96-33.62C-1.9,51.65.11,40.27,5.52,29.5,13.72,13.13,27.17,3.4,45.25.6c27.78-4.31,54.55,15.25,59.4,42.7,1.72,9.74-.24,18.62-3.98,27.43-6.01,14.17-13.58,27.52-21.47,40.68-8.51,14.21-17.24,28.3-25.88,42.44-.12.2-.28.39-.62.85ZM52.72,76.38c13.91,0,25.19-11.23,25.2-25.09.01-13.84-11.3-25.18-25.15-25.2-13.83-.02-25.2,11.32-25.2,25.15,0,13.88,11.26,25.14,25.15,25.14Z"/>
  </g>
</svg>