<?xml version="1.0" encoding="UTF-8"?>
<svg id="Calque_1" xmlns="http://www.w3.org/2000/svg" viewBox="0 0 375.85 361.1">
  <path d="M375.74,146.45c0,38.38-.19,76.76.11,115.13.1,12.99-5.89,22.02-15.93,29.1-6.27,4.42-13.53,5.99-20.97,7.05-46.01,6.55-87.12,24.74-124.02,52.67-7.67,5.8-15.54,10.47-25.5,10.69-9.49.21-17.65-2.96-25.05-8.72-17.9-13.95-37.2-25.6-57.94-34.84-23.02-10.25-46.99-17.15-71.98-20.33C15.67,294.81-.11,279.77,0,258.37.4,183.33.15,108.28.16,33.24c0-13.44,5.33-23.88,17.44-30.35C24.83-.98,32.5-.2,40.18,1.02c44.95,7.14,85.27,24.99,121.56,52.27,2.06,1.55,2.13,3.26,2.13,5.36-.01,70.4-.03,140.8.03,211.2,0,3.14.26,6.4,1.09,9.41,3.15,11.32,13.97,18.37,25.81,17.12,11.51-1.21,20.51-11,21.2-23.07.08-1.46.05-2.93.05-4.4,0-69.67.02-139.33-.06-209,0-3.09.8-5.04,3.38-6.97C252.99,24.86,294.77,6.8,341.4.32c15.89-2.21,30.03,7.34,33.92,22.99.38,1.51.41,3.14.41,4.71.02,39.48.02,78.95.02,118.43Z"/>
</svg>