<?xml version="1.0" encoding="UTF-8"?>
<svg id="Calque_2" xmlns="http://www.w3.org/2000/svg" viewBox="0 0 384.24 383.1">
  <g id="Calque_1-2" data-name="Calque_1">
    <g>
      <path d="M361.72,368.27c-.87-19.1-4.7-37.52-13.14-54.83-16.73-34.29-47.88-44.88-81.07-36.21-19.13,5-36.2,14.68-52.75,25.13-24.97,15.75-49.51,32.18-74.48,47.93-18.45,11.64-37.46,22.36-58.6,28.48-6.46,1.87-20.08,5.08-31.85,3.64s-24.35-6.34-33.02-14.74c-8.86-8.58-14.01-16.45-15.78-31.25,0,0-.56-4.49.07-12.04.18-2.12,1.05-4.13,1.65-6.53.44-1.73,2.61-2.3,3.84-1,2.66,2.81,5.06,5.35,7.51,7.88,1.85,1.91,3.79,3.72,5.67,5.59,2.5,2.47,4.13,5.32,5.37,8.82,4.78,13.5,15.75,18.92,29.03,20.68,12.6,1.68,24.18-2.2,35.45-7.17,20.17-8.89,38.24-21.39,56.74-33.16,24.49-15.59,48.9-31.34,73.89-46.09,16.44-9.7,34.21-16.78,53.26-20,40.13-6.79,74.66,10.5,93.57,46.9,10.94,21.05,16.08,43.62,17.1,67.19.42,9.74-.95,14.54-10.35,15.54-7.79.83-11.68-5.41-12.11-14.76Z"/>
      <path d="M1.03,272.26c10.58-14.72,21.15-29.45,31.55-43.92,20.97,20.97,41.65,41.64,62.47,62.46.02-.02-.25.38-.61.65-12.96,9.52-25.89,19.07-38.9,28.5-5.52,4-10.93,3.49-15.82-1.37-11.59-11.51-22.85-23.35-34.62-34.67-5.4-5.2-6.05-8.42-4.06-11.65Z"/>
      <path d="M324.19,93.26c-.03,43.81-28.29,81.25-68.5,93.17-2.33.69-3.64.11-5.21-1.46-26.16-26.23-52.36-52.42-78.55-78.62-11.11-11.11-22.19-22.26-33.38-33.3-1.64-1.62-1.99-2.96-1.33-5.19C150.35,23.73,190.29-3.51,236.32.37c44.97,3.79,78.35,34.04,86.3,78.4.99,5.5,1.22,11.14,1.57,14.5Z"/>
      <path d="M129.46,96.47c32.71,32.69,65.05,65.02,97.7,97.66-37.47,27.48-75.09,55.08-112.36,82.41-22.6-22.6-45.04-45.04-67.71-67.71,27.25-37.17,54.84-74.82,82.36-112.37ZM121.32,189.33c-.77,4.73,2.19,9.86,6.45,11.8,4.52,2.06,8.86,1.38,12.48-1.99,4.19-3.91,8.23-7.98,12.17-12.14,4.45-4.7,4.4-11.49.11-15.83-4.38-4.42-11.32-4.41-16.11.17-3.96,3.79-7.97,7.56-11.57,11.69-1.85,2.13-3.01,3.47-3.53,6.3Z"/>
    </g>
  </g>
</svg>