<?xml version="1.0" encoding="UTF-8"?>
<svg id="Calque_2" xmlns="http://www.w3.org/2000/svg" viewBox="0 0 141.08 150.54">
  <g id="Calque_1-2" data-name="Calque_1">
    <g>
      <path d="M111.74,107.92c0,8.12.41,15.97-.1,23.76-.72,10.9-9.68,18.75-20.58,18.75-23.03,0-46.05-.26-69.07.11C9.72,150.73-.04,141.48,0,128.62c.04-11.69,0-23.38,0-35.07,0-23.8,0-47.61,0-71.41C.02,14.05,3.04,7.48,9.94,2.99,13.1.93,16.62,0,20.39,0c23.69,0,47.38-.01,71.06,0,10.37,0,19.21,7.9,20.18,18.24.41,4.37.26,8.79.27,13.18,0,.52-.49,1.16-.92,1.54-1.75,1.56-3.68,2.94-5.33,4.58-13.76,13.69-27.3,27.59-41.26,41.07-6.47,6.25-10.8,13.23-11.96,22.21-.54,4.17-1.6,8.27-2.38,12.41-2.03,10.78,7.08,20.02,17.87,18.07,5.74-1.04,11.46-2.23,17.19-3.37,5.6-1.11,10.35-3.79,14.36-7.85,3.6-3.65,7.24-7.25,10.87-10.87.41-.41.85-.79,1.41-1.31ZM55.92,42.4c6.32,0,12.64,0,18.97,0,2.77,0,5.54.04,8.31-.03,2.57-.07,4.67-1.75,5.33-4.11.7-2.47-.2-5.16-2.45-6.41-1.1-.61-2.5-.97-3.76-.97-17.58-.06-35.16-.04-52.74-.03-.71,0-1.45.07-2.14.26-2.07.58-3.44,1.94-4.01,4.01-1.04,3.79,1.65,7.24,5.77,7.27,8.91.05,17.82.02,26.73.02ZM48.39,65.54c6.26,0,12.53.02,18.79,0,3.58-.02,6.13-2.43,6.15-5.7.02-3.28-2.51-5.74-6.06-5.85-1.5-.04-3.01-.01-4.52-.01-11.02,0-22.04,0-33.06,0-2.7,0-4.84.94-5.99,3.5-1.73,3.85.99,8,5.36,8.05,6.44.07,12.89.02,19.33.02Z"/>
      <path d="M141.08,55.75c0,4.61-1.94,8.34-5.16,11.54-7.83,7.77-15.61,15.59-23.41,23.38-6.99,6.99-14,13.95-20.95,20.98-2.77,2.8-6.01,4.5-9.88,5.2-5.09.92-10.15,2.01-15.23,3.03-3.37.68-5.63-1.42-4.99-4.8,1.08-5.74,2.27-11.45,3.46-17.16.59-2.85,2.01-5.27,4.06-7.32,15.25-15.26,30.49-30.53,45.78-45.76,4.66-4.64,11.19-5.84,17-3.33,5.76,2.49,9.36,7.99,9.32,14.25Z"/>
    </g>
  </g>
</svg>