<?xml version="1.0" encoding="UTF-8"?>
<svg id="Calque_2" xmlns="http://www.w3.org/2000/svg" viewBox="0 0 192.67 135.48">
  <g id="Calque_1-2" data-name="Calque_1">
    <g>
      <path d="M192.67,121.17c-.5,1.46-1.01,2.92-1.61,4.68-19.31-19.7-38.45-39.22-57.17-58.32,18.44-18.82,37.6-38.35,57.05-58.2.69,1.99,1.21,3.48,1.73,4.97v106.88Z"/>
      <path d="M9.4,1.31C12.05.81,14.24.05,16.43.05c53.3-.07,106.61-.07,159.91,0,2.17,0,4.35.79,6.93,1.29-.82.88-1.22,1.34-1.66,1.78-24.09,23.98-48.2,47.94-72.27,71.93-5.18,5.17-11.22,7.37-18.28,4.95-2.57-.88-5.13-2.51-7.07-4.42C59.41,51.29,34.94,26.89,10.45,2.51c-.22-.22-.4-.46-1.05-1.21Z"/>
      <path d="M182.21,134.37c-1.76.29-4.18,1.03-6.59,1.04-16.18.1-32.36.05-48.54.05-36.5,0-72.99.02-109.49-.05-2.57,0-5.13-.67-7.48-1.01,19.34-19.73,38.49-39.26,57.84-59,2.69,2.72,4.97,5.31,7.55,7.54,2.63,2.28,5.33,4.67,8.4,6.21,11.25,5.64,23.56,3.38,32.79-5.66,2.59-2.54,5.12-5.14,7.89-7.92,19.28,19.66,38.43,39.21,57.62,58.78Z"/>
      <path d="M58.74,67.91C40.22,86.79,21.09,106.31,1.97,125.82l-.66-.16c-.43-2.1-1.24-4.2-1.25-6.3C-.02,84.93-.02,50.5.06,16.07c0-2.06.78-4.12,1.31-6.69,19.54,19.94,38.69,39.47,57.37,58.53Z"/>
    </g>
  </g>
</svg>