<?xml version="1.0" encoding="UTF-8"?>
<svg id="Calque_2" xmlns="http://www.w3.org/2000/svg" viewBox="0 0 247.75 383.21">
  <g id="Calque_1-2" data-name="Calque_1">
    <g>
      <path d="M68.05,383.21v-22.42h44.73v-57.46c-9.03-2.12-18.13-3.37-26.6-6.38C39.34,280.27,10.53,247.45,2.51,198.28c-2.96-18.17-1.79-37.01-2.51-55.83h23.14c0,2.11-.03,4.19,0,6.27.21,13.96-.37,27.99.8,41.87,3.72,44,39.66,81.78,83.49,88.63,54.9,8.57,105.1-26.15,115.83-80.51,1.63-8.24,1.65-16.85,1.91-25.3.31-10.21.07-20.44.07-30.94h22.01c.11.17.35.37.35.57-.33,19.92,1.43,39.89-2.08,59.73-8.87,50.1-52.18,91.97-102.52,98.87-2.34.32-4.68.66-7.3,1.02v58h44.63v22.55h-112.28Z"/>
      <path d="M202.58,74.79h-55.71v22.41h55.65v22.5h-55.7v22.37h55.74v22.37h-55.66v22.57h55.41c-1.51,16.36-7.44,30.42-17.65,42.64-14.58,17.45-33.37,27.21-56.04,28.38-48.89,2.53-80.65-36.95-82.27-70.85h55.12v-22.41h-55.6v-22.5h55.65v-22.37h-55.69v-22.5h55.61v-22.53h-55.46C46.43,40.75,74.63,2.39,120.31.1c45.77-2.29,80.5,33.81,82.27,74.68Z"/>
    </g>
  </g>
</svg>