<?xml version="1.0" encoding="UTF-8"?>
<svg id="Calque_2" xmlns="http://www.w3.org/2000/svg" viewBox="0 0 89.58 63.52">
  <g id="Calque_1-2" data-name="Calque_1">
    <path d="M0,63.37c1.53-2.25,2.9-4.28,4.3-6.29,5.2-7.49,10.29-15.06,15.68-22.41,1.7-2.31,1.48-3.75-.09-5.94C13.65,20.06,7.62,11.24,1.52,2.47,1.07,1.81.68,1.11.02.04c1.25,0,2.13,0,3.01,0,17.78,0,35.56.03,53.34-.04,1.99,0,3.36.52,4.76,2.01,8.87,9.36,17.86,18.6,26.8,27.89.51.53.95,1.11,1.64,1.91-3.11,3.27-6.18,6.53-9.28,9.75-6.64,6.91-13.27,13.82-19.98,20.66-.67.69-1.85,1.25-2.8,1.25-18.7.07-37.4.05-56.11.05-.34,0-.68-.07-1.42-.15Z"/>
  </g>
</svg>