<?xml version="1.0" encoding="UTF-8"?>
<svg id="Calque_2" xmlns="http://www.w3.org/2000/svg" viewBox="0 0 566.67 400">
  <g id="Calque_1-2" data-name="Calque_1">
    <path d="M533.33,233.33H33.33c-18.41,0-33.33-14.92-33.33-33.33s14.92-33.33,33.33-33.33h500c18.41,0,33.33,14.92,33.33,33.33s-14.92,33.33-33.33,33.33Z"/>
    <path d="M533.33,400H33.33c-18.41,0-33.33-14.92-33.33-33.33s14.92-33.33,33.33-33.33h500c18.41,0,33.33,14.92,33.33,33.33s-14.92,33.33-33.33,33.33Z"/>
    <path d="M533.33,66.67H33.33C14.92,66.67,0,51.74,0,33.33S14.92,0,33.33,0h500c18.41,0,33.33,14.92,33.33,33.33s-14.92,33.33-33.33,33.33Z"/>
  </g>
</svg>