<?xml version="1.0" encoding="UTF-8"?>
<svg id="Calque_2" xmlns="http://www.w3.org/2000/svg" viewBox="0 0 666.67 675">
  <g id="Calque_1-2" data-name="Calque_1">
    <path d="M191.67,25c0-13.81-11.19-25-25-25s-25,11.19-25,25v52.64c-47.98,3.84-79.47,13.27-102.61,36.41S6.48,168.69,2.64,216.67h661.38c-3.84-47.98-13.27-79.47-36.41-102.61s-54.64-32.57-102.61-36.41V25c0-13.81-11.19-25-25-25s-25,11.19-25,25v50.43c-22.18-.43-47.03-.43-75-.43h-133.33c-27.97,0-52.82,0-75,.43V25Z" style="fill: #1c274c;"/>
    <path d="M0,341.67c0-27.97,0-52.82.43-75h665.81c.43,22.18.43,47.03.43,75v66.67c0,125.71,0,188.56-39.05,227.61-39.05,39.05-101.91,39.05-227.61,39.05h-133.33c-125.71,0-188.56,0-227.61-39.05C0,596.9,0,534.04,0,408.33v-66.67ZM500,408.33c18.41,0,33.33-14.92,33.33-33.33s-14.92-33.33-33.33-33.33-33.33,14.92-33.33,33.33,14.92,33.33,33.33,33.33ZM500,541.67c18.41,0,33.33-14.92,33.33-33.33s-14.92-33.33-33.33-33.33-33.33,14.92-33.33,33.33,14.92,33.33,33.33,33.33ZM366.67,375c0,18.41-14.92,33.33-33.33,33.33s-33.33-14.92-33.33-33.33,14.92-33.33,33.33-33.33,33.33,14.92,33.33,33.33ZM366.67,508.33c0,18.41-14.92,33.33-33.33,33.33s-33.33-14.92-33.33-33.33,14.92-33.33,33.33-33.33,33.33,14.92,33.33,33.33ZM166.67,408.33c18.41,0,33.33-14.92,33.33-33.33s-14.92-33.33-33.33-33.33-33.33,14.92-33.33,33.33,14.92,33.33,33.33,33.33ZM166.67,541.67c18.41,0,33.33-14.92,33.33-33.33s-14.92-33.33-33.33-33.33-33.33,14.92-33.33,33.33,14.92,33.33,33.33,33.33Z" style="fill: #1c274c; fill-rule: evenodd;"/>
  </g>
</svg>