<?xml version="1.0" encoding="UTF-8"?>
<svg id="Calque_2" xmlns="http://www.w3.org/2000/svg" viewBox="0 0 800 479.31">
  <g id="svg2">
    <path id="path6686" d="M519.9,239.6c0,63.55-53.78,115.07-120.11,115.07s-120.11-51.52-120.11-115.07,53.78-115.07,120.11-115.07c66.34,0,120.11,51.52,120.11,115.07ZM400,0c-68.68.3-139.88,17.03-207.27,49.04-50.04,24.75-98.8,59.66-141.13,102.76C30.81,173.8,4.29,205.65,0,239.64c.51,29.44,32.09,65.78,51.6,87.84,39.7,41.4,87.19,75.35,141.13,102.79,62.85,30.5,132.41,48.06,207.27,49.04,68.75-.31,139.93-17.22,207.24-49.04,50.04-24.75,98.83-59.69,141.16-102.79,20.79-22,47.31-53.85,51.6-87.84-.51-29.44-32.09-65.78-51.6-87.84-39.7-41.4-87.22-75.32-141.16-102.76C544.43,18.56,474.69,1.12,400,0ZM399.95,59.5c104.08,0,188.45,80.66,188.45,180.17s-84.37,180.17-188.45,180.17-188.45-80.66-188.45-180.17S295.87,59.5,399.95,59.5h0Z"/>
  </g>
</svg>