<?xml version="1.0" encoding="UTF-8"?>
<svg id="Calque_2" xmlns="http://www.w3.org/2000/svg" viewBox="0 0 236.96 236.82">
  <g id="Calque_1-2" data-name="Calque_1">
    <g>
      <path d="M0,200.76V16.19c.17-.4.39-.79.51-1.21C2.24,8.74,6.03,4.24,11.93,1.57,13.31.95,14.77.52,16.19,0c38.7,0,77.41,0,116.11,0,.51.16,1,.38,1.52.47,12.91,2.33,23.23,13.6,23.89,26.69.43,8.54.21,17.11.24,25.66,0,2.69.05,5.41-.24,8.08-.43,4.02-3.87,7.38-7.84,8.02-6.65,1.06-11.71-3.4-11.76-10.54-.07-9.33.03-18.66-.04-27.98-.04-6.73-3.96-10.55-10.69-10.55-13.72-.01-27.44,0-41.17,0-.64,0-1.29.06-1.9.09,2.34,1.37,4.81,2.46,6.89,4.08,5.58,4.36,7.59,10.32,7.58,17.29-.06,47.57-.03,95.13-.03,142.7,0,1.06,0,2.12,0,3.24.71.07,1.16.16,1.61.16,9.41,0,18.81,0,28.22-.02.76,0,1.54-.12,2.27-.32,4.72-1.33,7.22-4.92,7.23-10.49.03-12.26-.01-24.52.04-36.77,0-1.6.12-3.27.59-4.78,1.38-4.44,6-7.37,10.37-6.77,5.31.73,8.84,4.69,8.87,10.38.08,13.03.07,26.06,0,39.09-.08,17.54-14.99,30.2-30.5,29.55-4.93-.21-9.87-.03-14.8-.03-4.54,0-9.07,0-13.88,0,0,1.93.05,3.69-.01,5.44-.1,2.84.1,5.77-.5,8.51-2.61,12.02-14.41,18.43-26.38,14.46-19.32-6.4-38.64-12.79-57.92-19.3-7.16-2.41-11.77-7.35-13.52-14.81-.07-.28-.28-.52-.42-.78Z"/>
      <path d="M177.63,88.82c0-9.68,0-19.07,0-28.46,0-1-.07-2.02.11-3,1.33-7.23,10.1-10.49,15.87-5.91.78.62,1.48,1.35,2.19,2.06,12.37,12.37,24.74,24.73,37.11,37.11,5.36,5.36,5.39,10.77.09,16.08-12.64,12.65-25.27,25.29-37.93,37.92-4.51,4.49-10.72,4.61-14.75.34-1.82-1.93-2.71-4.22-2.7-6.91.03-8.86.01-17.72.01-26.58,0-.84,0-1.67,0-2.8-.98,0-1.8,0-2.61,0-12.1,0-24.2.02-36.29,0-5.06-.01-8.95-2.92-10.14-7.47-1.64-6.28,2.94-12.33,9.46-12.35,12.25-.04,24.5-.01,36.76-.01.84,0,1.68,0,2.84,0Z"/>
    </g>
  </g>
</svg>