<?xml version="1.0" encoding="UTF-8"?>
<svg id="Calque_2" xmlns="http://www.w3.org/2000/svg" viewBox="0 0 509.43 131.72">
  <g id="Calque_1-2" data-name="Calque_1">
    <g>
      <path d="M0,108.31c.05-6.07,2.21-11.27,6.67-15.38,6.94-6.4,17.24-7.42,25.29-2.22,4.39,2.84,7.21,6.79,8.72,11.78,1,3.34,1.04,6.7.39,10.05-.5,2.6-1.47,5.09-3.1,7.26-.37.49-.32.85.12,1.26.65.61,1.26,1.24,1.87,1.89.99,1.06.95,2.24-.13,3.22-1.99,1.8-4.02,3.56-6.02,5.36-.45.4-.7.12-.98-.19-1.01-1.1-2.03-2.19-3.02-3.32-.42-.48-.85-.64-1.45-.4-3.26,1.31-6.61,1.82-10.12,1.38-5.82-.74-10.51-3.44-14.06-8.06C1.34,117.23-.03,113,0,108.31ZM29.76,111.84c1.15-4.21.41-8.87-3.12-11.46-3.66-2.68-8.67-2.74-12.44.47-2.97,2.54-3.95,7.99-2.07,12,1.38,2.94,5.57,5.64,8.29,5.15-.83-.87-1.56-1.66-2.32-2.42-1.67-1.68-1.59-2.72.2-4.22,1.68-1.41,3.31-2.88,4.9-4.39.85-.8.97-.87,1.77,0,1.28,1.39,2.56,2.79,3.86,4.17.24.25.55.43.92.71Z"/>
      <path d="M.02,64.58c-.09-8.7,5.26-16.59,13.47-19.53,8.43-3.01,15.97-1.21,22.26,5.1,3.4,3.42,5.23,7.69,5.62,12.58.36,4.54-.56,8.72-2.9,12.6-.11.18-.21.38-.36.52-.58.58-.57,1.03.1,1.59.68.56,1.26,1.24,1.83,1.91.93,1.08.74,2.25-.35,3.19-1.86,1.59-3.68,3.22-5.48,4.86-.8.73-.91.74-1.65-.09-.97-1.1-1.93-2.2-2.97-3.24-.22-.22-.81-.3-1.12-.17-3.65,1.59-7.47,1.91-11.31,1.23-6.69-1.18-11.71-4.83-14.86-10.88C.52,70.78.02,68.26.02,64.58ZM29.75,68.11c1.1-3.89.56-8.43-2.86-11.23-3.27-2.67-8.44-2.83-11.88-.43-3.39,2.36-4.82,7.48-3.02,12.32,1.12,3.01,5.07,5.78,8.33,5.61-.31-.43-.54-.81-.83-1.13-.59-.65-1.23-1.27-1.83-1.92-1.06-1.16-.93-2.27.23-3.3,1.94-1.71,3.84-3.47,5.73-5.24.51-.48.78-.21,1.12.16,1.41,1.53,2.81,3.05,4.23,4.56.2.21.47.36.79.59Z"/>
      <path d="M146.61,111.4c0,.79,0,1.58,0,2.37,0,4.13,0,8.25.01,12.38,0,1.38-.87,2.27-2.27,2.28-2.26.01-4.52.01-6.78,0-1.27,0-2.15-.85-2.15-2.11,0-11.77,0-23.54.04-35.31,0-.67.22-1.38.5-1.99.3-.64.93-.9,1.68-.89,1.8.02,3.61-.04,5.41.02.41.01.95.28,1.19.61,3.49,4.85,6.94,9.74,10.39,14.62.47.67.89,1.37,1.34,2.06l.3-.13c.02-.29.05-.58.05-.87-.02-4.65-.04-9.29-.05-13.94,0-1.45.92-2.36,2.38-2.36,2.14,0,4.28,0,6.42-.02,1.48,0,2.42.88,2.42,2.35,0,11.92.01,23.84.01,35.77,0,1.19-1.02,2.18-2.22,2.19-1.8.01-3.61.06-5.41,0-.44-.02-1.02-.31-1.27-.66-3.37-4.71-6.7-9.45-10.04-14.19-.35-.5-.63-1.05-.98-1.55-.21-.3-.49-.54-.75-.81-.07.06-.14.12-.21.17Z"/>
      <path d="M114.68,17.92c.03-.29.09-.59.09-.88-.02-4.65-.05-9.29-.07-13.94,0-1.57.79-2.35,2.37-2.35,2.23,0,4.46,0,6.69,0,1.3.01,2.11.82,2.11,2.1,0,11.98,0,23.96,0,35.95,0,1.28-.71,2.08-2,2.13-1.86.08-3.73.12-5.59.07-.44-.01-1.01-.33-1.27-.69-3.4-4.73-6.75-9.5-10.11-14.26-.37-.52-.68-1.09-1.05-1.61-.18-.25-.43-.43-.83-.82-.03.51-.06.77-.06,1.02.05,4.77.11,9.53.15,14.3,0,1.01-.88,1.96-1.88,1.98-2.47.05-4.95.08-7.42.06-1.19-.01-1.94-.93-1.94-2.18,0-11.49.01-22.99.01-34.48,0-.46-.04-.92-.03-1.37.03-1.38.86-2.19,2.24-2.2,1.71-.01,3.42,0,5.13-.04.7-.02,1.17.19,1.6.8,3.33,4.75,6.69,9.46,10.04,14.19.54.76,1.05,1.54,1.58,2.31.07-.03.15-.06.22-.1Z"/>
      <path d="M386.66,111.33c.06.55.17,1.11.17,1.66.02,4.49.02,8.99,0,13.48,0,.9-1.05,1.93-1.98,1.94-2.44.03-4.89.04-7.33,0-1.14-.01-1.89-.98-1.89-2.33,0-11.28,0-22.56,0-33.84,0-.55,0-1.1-.01-1.65-.02-1.61.89-2.49,2.52-2.48,1.65.01,3.3.01,4.95-.04.67-.02,1.07.26,1.43.78,2.89,4.12,5.8,8.22,8.7,12.34.75,1.07,1.46,2.18,2.21,3.25.23.33.55.59.83.89.08-.03.16-.06.24-.09,0-.53,0-1.07,0-1.6.01-4.55,0-9.1.05-13.65.01-1.04.93-1.87,1.98-1.87,2.38,0,4.77,0,7.15.05,1.14.02,1.9.81,1.92,1.99.05,2.69.07,5.38.07,8.07,0,9.26-.02,18.52-.03,27.79,0,1.53-.88,2.39-2.38,2.39-1.71,0-3.42-.01-5.13.02-.65.01-1.06-.2-1.44-.74-3.09-4.42-6.22-8.82-9.33-13.23-.56-.8-1.06-1.64-1.62-2.44-.22-.32-.53-.58-.79-.86l-.29.15Z"/>
      <path d="M64.97,17.83c0-.51,0-1.02,0-1.53,0-4.49,0-8.99,0-13.48,0-1.21.87-2.05,2.07-2.05,2.29-.01,4.58-.01,6.88,0,1.3,0,2.22.91,2.23,2.23.02,2.08,0,4.16,0,6.24,0,9.75,0,19.51,0,29.26,0,1.77-.64,2.44-2.4,2.48-1.68.04-3.36.04-5.04.07-.69.01-1.17-.24-1.59-.85-3.09-4.43-6.23-8.82-9.35-13.23-.44-.62-.84-1.27-1.26-1.9-.3-.44-.62-.88-.93-1.31l-.24.06c-.03.24-.1.48-.1.72.01,4.83.03,9.66.04,14.49,0,1-.8,1.89-1.79,1.91-2.47.05-4.95.07-7.42.04-1.32-.02-1.97-.81-1.97-2.22,0-9.11,0-18.22,0-27.33,0-2.78,0-5.56,0-8.35,0-1.4.87-2.29,2.23-2.3,1.74-.01,3.48,0,5.23-.03.67-.01,1.11.18,1.51.77,3.64,5.23,7.32,10.44,11,15.65.2.28.46.52.7.78.08-.03.15-.06.23-.1Z"/>
      <path d="M.02,20.81C-.1,9.31,9.46-.18,21.16,0c11.34.17,20.45,9.5,20.33,21.11-.11,11.07-8.93,20.64-20.9,20.61C8.52,41.69-.19,31.77.02,20.81ZM11.11,20.88c.16.96.29,1.92.49,2.87,1.46,6.69,9.89,8.92,15.06,5.02,2.51-1.89,3.52-4.51,3.58-7.56.06-2.96-.68-5.69-2.98-7.68-2.99-2.59-6.5-3.22-10.18-1.8-4.11,1.58-5.85,4.84-5.97,9.15Z"/>
      <path d="M111.97,129.17c-11.95-.28-20.58-9.23-20.65-20.71-.07-12,9.21-21.01,20.87-21.06,11.51-.05,20.72,9.38,20.64,21.1-.08,11.17-8.99,20.55-20.86,20.67ZM121.66,108.22c-.22-5.87-3.93-9.8-9.74-9.76-5.26.03-9.36,3.57-9.38,9.84-.02,5.76,3.99,9.78,9.47,9.8,5.68.02,9.52-3.71,9.66-9.88Z"/>
      <path d="M255.88,85.38c-11.41.13-20.91-9.55-20.53-21.38.35-11.01,9.06-20.35,20.95-20.29,11.56.06,20.74,9.41,20.51,21.36-.21,11.12-9.41,20.55-20.93,20.31ZM256.08,74.33c5.56.05,9.45-3.84,9.54-9.46.09-6.07-3.85-10.07-9.55-10.12-5.54-.05-9.37,3.77-9.53,9.43-.18,6.32,4.26,10.23,9.54,10.14Z"/>
      <path d="M360.74,105.29c0-1.48,0-2.97,0-4.45.01-3.48.03-6.97.05-10.45,0-1.52.72-2.23,2.24-2.23,2.23,0,4.46-.01,6.69,0,1.18,0,2.1.94,2.1,2.14,0,11.98.01,23.96.01,35.94,0,1.32-.82,2.18-2.14,2.2-1.83.02-3.67.06-5.5,0-.41-.01-.95-.31-1.19-.64-3.51-4.91-6.97-9.86-10.44-14.8-.4-.57-.77-1.16-1.15-1.75-.12.04-.24.08-.36.12-.03.49-.08.99-.08,1.48.01,4.43.06,8.86.04,13.29,0,1.64-.84,2.33-2.5,2.32-2.14-.02-4.28,0-6.42,0-1.4,0-2.22-.78-2.22-2.19,0-11.95,0-23.9,0-35.85,0-1.38.91-2.24,2.3-2.23,1.56,0,3.12.04,4.67-.04.94-.05,1.53.19,2.1,1.02,3.37,4.86,6.82,9.67,10.23,14.5.42.6.84,1.21,1.25,1.81.1-.05.19-.11.29-.16Z"/>
      <path d="M295.86,108.42c-.37-11.67,9.31-21.04,20.61-21.01,11.55.02,20.72,9.01,20.79,20.77.07,11.36-8.67,20.83-20.63,20.96-11.98.14-21.1-9.65-20.77-20.72ZM325.98,108.27c.11-5.77-3.84-9.87-9.6-9.82-5.56.05-9.46,3.71-9.45,9.8,0,6,3.83,9.8,9.61,9.85,5.25.04,9.63-3.68,9.43-9.83Z"/>
      <path d="M183.83,67.66c-.02.32-.07.65-.07.97.02,4.62.05,9.23.06,13.85,0,1.5-.85,2.23-2.38,2.21-2.23-.02-4.46,0-6.69.03-1.04.01-2.09-.94-2.09-1.98,0-11.98,0-23.97.01-35.95,0-1.48.75-2.25,2.23-2.29,1.83-.05,3.67-.07,5.5-.03.37,0,.86.3,1.08.61,3.5,4.88,6.97,9.79,10.45,14.7.46.65.9,1.32,1.35,1.98.07-.03.15-.06.22-.09.02-.23.06-.45.06-.68,0-4.77,0-9.54,0-14.31,0-1.48.58-2.17,2.07-2.21,2.44-.07,4.89-.04,7.33-.02.77,0,1.6.88,1.64,1.69.04.88,0,1.77,0,2.66,0,10.76.01,21.52.02,32.29,0,.4.04.79.06,1.19.08,1.39-.77,2.37-2.17,2.4-1.83.04-3.67.07-5.5.02-.41-.01-.96-.3-1.2-.64-2.93-4.1-5.81-8.22-8.7-12.34-.82-1.17-1.61-2.37-2.43-3.55-.16-.23-.38-.42-.58-.64-.09.04-.18.08-.26.11Z"/>
      <path d="M259.19,108.26c0-5.9,0-11.8,0-17.7,0-1.64.85-2.44,2.48-2.43,5.13.04,10.27-.12,15.4.14,5.52.28,10.05,2.79,13.48,7.14,3.85,4.87,4.86,10.46,3.98,16.48-.79,5.39-3.52,9.63-7.8,12.88-3.25,2.47-7.03,3.53-11.05,3.61-4.83.1-9.65.04-14.48.03-1.26,0-2.02-.89-2.02-2.28,0-5.96,0-11.92,0-17.88ZM270.33,108.21h-.04c0,1.38,0,2.75,0,4.13,0,1.41.03,2.81.03,4.22,0,.56.11.95.8.93,1.74-.04,3.49.05,5.22-.09,2.54-.21,4.69-1.2,6.17-3.42,1.46-2.19,1.64-4.64,1.41-7.12-.39-4.1-2.9-7.21-7.29-7.61-1.76-.16-3.54-.06-5.31-.16-.78-.04-1.01.21-1,.96.03,2.72.01,5.44.01,8.16Z"/>
      <path d="M171.09,41.05c-1.38,0-2.75-.02-4.12,0-.84.02-1.31-.25-1.52-1.17-.32-1.42-.8-2.81-1.3-4.18-.11-.29-.59-.63-.91-.63-3.48-.04-6.97-.02-10.45-.03-.56,0-.9.17-1.07.76-.39,1.41-.87,2.79-1.23,4.21-.18.72-.49,1.03-1.24,1.02-2.84-.03-5.68.01-8.52-.02-1.53-.02-2.24-1.24-1.72-2.78,1.01-2.96,1.98-5.94,2.98-8.91,1.88-5.6,3.76-11.19,5.65-16.79,1.18-3.49,2.37-6.98,3.53-10.47.45-1.34.42-1.33,1.81-1.32,3.45.01,6.91.02,10.36,0,.76,0,1.12.16,1.39,1,1.79,5.49,3.7,10.95,5.54,16.43,2.05,6.08,4.07,12.17,6.11,18.25.24.72.55,1.42.79,2.14.32.97-.57,2.36-1.6,2.39-1.5.05-2.99.01-4.49.01,0,.03,0,.06,0,.09ZM158.18,16.7c-.13,0-.27.01-.4.02-.76,2.49-1.52,4.99-2.32,7.62h5.06c-.79-2.58-1.56-5.11-2.34-7.63Z"/>
      <path d="M75.26,103.19c0,4.1.04,8.19-.01,12.29-.05,4.11-1.7,7.52-4.85,10.15-2.11,1.76-4.6,2.67-7.28,3.2-3.42.68-6.77.35-10.01-.75-5.37-1.82-9.04-6.31-9.15-11.91-.17-8.65-.05-17.3-.04-25.95,0-1.27.87-2.06,2.16-2.06,2.23,0,4.46,0,6.69-.02,1.24-.01,2.31,1.03,2.31,2.28,0,7.73-.01,15.46,0,23.2,0,.63.12,1.27.15,1.9.04,1.07.74,1.69,1.59,2.05,1.88.8,3.81.84,5.68-.03,1.18-.55,1.6-1.6,1.6-2.86,0-7.82,0-15.65,0-23.47,0-.99-.01-1.99.99-2.57.37-.22.8-.46,1.21-.47,2.2-.05,4.4-.03,6.6-.02,1.69,0,2.41.76,2.41,2.48,0,4.19,0,8.37,0,12.56,0,0-.02,0-.03,0Z"/>
      <path d="M43.91,59.59c0-4.25,0-8.5,0-12.75,0-1.62.63-2.33,2.23-2.36,2.35-.05,4.71-.03,7.06-.02.83,0,1.78.95,1.85,1.83.04.46.01.92.01,1.37,0,7.64,0,15.28,0,22.93,0,1.2.19,2.32,1.31,3.03.28.18.58.44.88.46,1.39.08,2.81.26,4.18.08,1.85-.25,2.64-1.37,2.64-3.25,0-7.79,0-15.59.01-23.38,0-.94-.06-1.93.88-2.53.33-.22.74-.45,1.11-.46,2.44-.05,4.89-.07,7.33-.05,1.1.01,1.85.84,1.85,1.96,0,8.56.09,17.12-.04,25.68-.1,6.32-4.65,11.24-10.77,12.7-3.7.88-7.38.8-11.03-.31-5.66-1.72-9.48-6.81-9.52-12.72-.03-4.07,0-8.13,0-12.2,0,0,0,0,.01,0Z"/>
      <path d="M411.86,108.16c0-5.56-.02-11.13.02-16.69,0-.95-.28-2.09.79-2.74.44-.27.97-.57,1.46-.57,7.09-.04,14.18-.03,21.27-.03,1.49,0,2.39.89,2.4,2.37,0,2.14,0,4.28-.02,6.42-.01,1.34-.83,2.18-2.14,2.18-3.91.01-7.82.03-11.73,0-.77,0-.97.25-.89.96.07.57.1,1.16.05,1.73-.07.76.28.96.96.96,3.24-.03,6.48.05,9.72-.09,1.58-.07,2.8.89,2.68,2.62-.14,2.01-.03,4.03-.03,6.05,0,1.3-.79,2.07-2.11,2.07-3.39,0-6.78.01-10.18.01-1.16,0-1.13,0-1.02,1.1.07.66.06,1.35-.02,2.01-.09.75.22.97.92.96,3.85-.03,7.7-.03,11.55-.05,1.65,0,2.48.79,2.48,2.43,0,2.05,0,4.1,0,6.14,0,1.55-.83,2.4-2.35,2.4-7.18,0-14.36,0-21.55,0-1.37,0-2.19-.71-2.21-2.1-.07-4.16-.07-8.31-.09-12.47,0-1.9,0-3.79,0-5.69h.04Z"/>
      <path d="M90.56,69.74c0,1.24-.04,2.42.05,3.59.01.18.66.43,1.01.43,3.76.03,7.52.02,11.28,0,1.99,0,2.62.61,2.62,2.59,0,2.02,0,4.04,0,6.05,0,1.4-.96,2.3-2.37,2.3-7.21,0-14.42.02-21.63.04-1.06,0-2.04-.81-2.1-1.88-.06-1-.03-2.02-.03-3.02,0-10.88.01-21.77.02-32.65,0-.82-.1-1.68.77-2.19.27-.16.55-.39.84-.4,1.56-.07,3.11-.12,4.67-.12,5.75-.01,11.49-.01,17.24,0,1.61,0,2.25.66,2.26,2.29.01,2.14.02,4.28.02,6.42,0,1.49-.74,2.2-2.26,2.2-3.82,0-7.64,0-11.46-.03-.76,0-1.07.23-.97,1,.06.48.08.98.03,1.46-.08.87.23,1.16,1.13,1.14,3.27-.06,6.54-.06,9.81-.02.57,0,1.27.16,1.65.52.41.38.7,1.08.73,1.65.08,2.14.04,4.28.04,6.42,0,1.44-.76,2.2-2.2,2.21-3.36,0-6.72,0-10.09,0-.3,0-.6,0-1.05,0Z"/>
      <path d="M216.65,108.35c0-5.93,0-11.86,0-17.79,0-1.58.85-2.42,2.41-2.42,7.03,0,14.06-.01,21.09-.01,1.55,0,2.34.76,2.35,2.28.01,2.17,0,4.34,0,6.51,0,1.28-.89,2.18-2.16,2.18-3.91,0-7.82.02-11.73,0-.6,0-.84.16-.81.76.03.58.05,1.17-.01,1.74-.11.93.34,1.16,1.17,1.15,3.21-.03,6.42-.03,9.63-.05,1.87-.01,2.63.77,2.61,2.68-.01,1.86,0,3.73,0,5.59,0,1.68-.71,2.43-2.36,2.43-3.36,0-6.72.04-10.09-.02-.92-.01-1.1.3-.99,1.13.09.66.08,1.35.03,2.01-.06.73.21.98.93.97,3.85-.03,7.7-.03,11.55-.06,1.68,0,2.44.76,2.44,2.44,0,2.08,0,4.16.01,6.24,0,1.44-.86,2.31-2.32,2.31-7.18,0-14.36,0-21.55,0-1.4,0-2.21-.79-2.21-2.19,0-5.96,0-11.92,0-17.88h0Z"/>
      <path d="M199.35,87.38c5.89.23,10.65,2.85,13.74,8.29.27.48.56.94.85,1.41.28.46.18.76-.3,1.03-2.07,1.17-4.18,2.28-6.17,3.58-1.99,1.3-3.05.94-4.22-.9-1.36-2.13-3.68-2.87-5.99-2.11-.62.21-1.11.52-1.21,1.22-.09.68.29,1.14.85,1.36,2.2.88,4.4,1.77,6.63,2.56,2.63.92,5.23,1.85,7.4,3.68,3.29,2.76,4.26,6.38,3.76,10.44-.77,6.25-5.68,9.89-11.36,10.86-3.45.59-6.81.39-10.13-.62-4.32-1.31-7.42-4.08-9.35-8.16-.91-1.92-.94-1.93.83-3.02,2.07-1.27,4.16-2.52,6.27-3.75.83-.48,1.53-.02,2.15.49.3.24.53.6.7.95,1.31,2.76,4.37,3.61,7.05,3.36.65-.06,1.32-.25,1.93-.51,1.09-.46,1.24-1.58.26-2.29-.68-.49-1.48-.86-2.27-1.13-2.28-.78-4.61-1.4-6.87-2.22-3.07-1.12-5.76-2.81-7.49-5.71-2.97-4.97-1.47-12.23,3.18-15.74,2.82-2.12,6-3.05,9.76-3.1Z"/>
      <path d="M474.2,105.13c-10.91,0-21.82,0-32.73,0-1.76,0-2.56-.84-2.35-2.45.14-1.09.94-1.73,2.3-1.74,1.86-.02,3.73-.02,5.59.03.71.02.96-.2,1.13-.92.94-3.87,1.97-7.72,2.97-11.58.96-3.71,1.85-7.44,2.91-11.12,1.17-4.07,3.94-6.63,8.06-7.5,2.13-.45,4.28-.18,6.35.75,3.97,1.79,7.97,1.69,11.97-.03,6.42-2.77,12.74,1,14.3,7.26,1.13,4.51,2.32,9.01,3.48,13.52.69,2.68,1.38,5.35,2.05,8.04.4,1.6.38,1.58,2.07,1.56,1.68-.03,3.36-.01,5.04-.02.92,0,1.65.41,1.92,1.27.25.78.32,1.65-.38,2.3-.25.23-.61.43-.94.48-.78.1-1.58.12-2.38.12-10.45,0-20.91,0-31.36,0v.02ZM494.25,92.63c-1.02-3.92-1.99-7.71-2.99-11.5-.37-1.38-.65-2.81-1.27-4.08-1.23-2.5-4.74-4.09-7.77-2.75-3.5,1.55-7.2,2.17-11,1.44-2.05-.39-4.08-1.03-6.04-1.75-2.35-.87-6.48,1.23-7.2,4.17-1.11,4.55-2.35,9.07-3.53,13.61-.07.25-.06.52-.1.86h39.9ZM452.12,100.93h44.34c-.18-.64-.32-1.15-.47-1.67-.22-.78-.22-1.86-.74-2.26-.53-.4-1.57-.14-2.39-.14-13.01-.02-26.02-.04-39.03-.03-.28,0-.74.19-.8.39-.35,1.19-.6,2.41-.9,3.71Z"/>
      <path d="M208.95,64.6c0-5.93,0-11.86,0-17.79,0-1.54.55-2.19,2.11-2.26,1.8-.08,3.6-.08,5.41-.08,5.2-.01,10.39-.01,15.59-.02,1.33,0,2.17.81,2.18,2.15.02,2.26.02,4.52.02,6.79,0,1.11-.91,2-2.05,2-3.7,0-7.4.02-11.09-.04-.9-.01-1.1.28-1.03,1.1.08.88.05,1.77.01,2.66-.03.72.24.94.96.93,3.45-.04,6.91.05,10.36-.07,1.53-.05,2.65,1,2.54,2.55-.15,1.97,0,3.97.05,5.96.04,1.42-.83,2.37-2.24,2.37-3.61,0-7.21.01-10.82-.02-.7,0-.92.13-.9.92.07,3.67.08,7.34.06,11,0,1.05-1.09,1.99-2.14,1.99-2.26,0-4.52,0-6.78,0-1.48,0-2.27-.77-2.27-2.24,0-5.96,0-11.92,0-17.89h.03Z"/>
      <path d="M121.47,64.55c0-5.93,0-11.86,0-17.79,0-1.46.73-2.23,2.21-2.26,2.23-.04,4.46-.03,6.69-.02,1.42,0,2.27.86,2.27,2.27,0,6.05,0,12.11,0,18.16,0,2.6-.05,5.19-.1,7.79-.01.75.21,1.1,1.05,1.09,3.36-.05,6.72-.03,10.08-.05,1.43,0,2.3.87,2.3,2.32,0,2.11,0,4.22.03,6.32.01,1.36-1.07,2.34-2.46,2.33-5.44-.03-10.88-.02-16.32-.03-1.16,0-2.32-.01-3.48.02-1.45.04-2.29-.75-2.29-2.17,0-5.99,0-11.98,0-17.98h.02Z"/>
      <path d="M498.44,121.77c-.11-.02-.29-.05-.47-.08-.86-.15-1.31.13-1.55,1.06-1.1,4.12-5.17,7.18-9.45,7.19-4.91,0-8.56-2.55-10.17-7.22-.31-.89-.71-1.18-1.65-1.02-.7.12-1.45,0-2.18-.03-.67-.04-1.06.15-1.24.89-.91,3.68-5.18,7.29-9.52,7.46-5.2.2-9.27-3.77-10.22-7.34-.27-1.02-.82-1.12-1.68-.97-1.34.23-2.25-.21-2.74-1.29-.63-1.36.74-3.03,2.37-2.9.03,0,.06.01.09.02q1.67.19,2.2-1.38c1.31-3.82,5-6.53,9.02-6.81,4.38-.3,8.2,2.19,9.95,5.98.12.25.24.5.33.75.61,1.58.6,1.57,2.31,1.52.67-.02,1.34.02,2.01.07.51.04.73-.13.88-.66,1.81-6.35,8.83-9.61,14.73-6.51,2.49,1.31,4.25,3.38,5.02,6.13.25.91.72,1.09,1.52.99,1-.12,1.94-.1,2.65.81.44.56.64,1.12.38,1.77-.31.75-.76,1.41-1.69,1.48-.27.02-.55.05-.89.09ZM468.09,119.74c.07-3.6-2.9-6.25-6.27-6.3-3.14-.04-6.17,2.45-6.2,6.15-.02,3.45,2.81,6.26,6.29,6.28,3.39.02,6.15-2.72,6.17-6.13ZM492.89,119.69c.11-2.9-2.35-6.15-6.14-6.24-2.92-.07-6.21,1.9-6.32,6.2-.08,3.23,2.8,6.18,6.15,6.24,3.48.06,6.24-2.65,6.32-6.2Z"/>
      <path d="M157.64,64.7c0-5.93,0-11.86,0-17.79,0-1.5.84-2.43,2.33-2.45,2.38-.03,4.77-.02,7.15,0,.81,0,1.71.97,1.74,1.9.04,1.22.05,2.44.05,3.67,0,10.48-.02,20.96-.03,31.45,0,.96.27,2.02-.75,2.66-.44.28-.99.52-1.5.53-2.2.07-4.4.03-6.6.05-1.54.01-2.4-.87-2.4-2.42,0-5.87,0-11.74,0-17.6,0,0,0,0,0,0Z"/>
      <path d="M136.58.76c1.34,0,2.69-.02,4.03,0,1.18.02,2.11,1.25,1.8,2.39-1.37,5.12-2.76,10.24-4.11,15.37-.16.61-.48.77-1.03.76-1.99-.01-3.97,0-5.96-.03-1.24-.02-2.07-1.16-1.89-2.38.44-3.01.82-6.04,1.22-9.06.28-2.09.56-4.17.8-6.26.08-.66.37-.85,1.01-.83,1.37.04,2.75.01,4.12.01,0,0,0,0,0,.01Z"/>
      <path d="M85.76,88.11c1.28,0,2.57,0,3.85,0,1.43,0,2.39,1.4,1.99,2.75-.65,2.15-1.23,4.33-1.81,6.51-.67,2.5-1.32,5-2,7.5-.16.58-.26,1.35-.67,1.65-.41.3-1.17.12-1.78.13-1.56.02-3.11.02-4.67.04-1.01.01-2.22-1.28-2.08-2.21.36-2.29.74-4.57,1.05-6.86.4-2.93.76-5.86,1.11-8.79.07-.57.41-.69.89-.69,1.37,0,2.75,0,4.12,0,0,0,0-.02,0-.03Z"/>
      <path d="M149.62,60.03c-1.07,0-2.14-.01-3.2,0-.52,0-.77-.16-.8-.71-.13-1.95-.3-3.89-.46-5.83-.17-2.03-.26-4.08-.56-6.09-.29-1.89,1.01-3.09,2.68-2.98,1.73.11,3.48.03,5.21.04,1.41.01,2.25,1.14,2.1,2.55-.27,2.51-.44,5.04-.64,7.56-.13,1.64-.23,3.28-.4,4.92-.02.2-.41.5-.64.51-1.1.05-2.2.02-3.29.02,0,0,0,0,0,.01Z"/>
    </g>
  </g>
</svg>