<?xml version="1.0" encoding="UTF-8"?>
<svg id="Calque_2" xmlns="http://www.w3.org/2000/svg" viewBox="0 0 159.82 74.33">
  <g id="Calque_1-2" data-name="Calque_1">
    <g>
      <path d="M11.45,62.63c3.72,2.11,7.4,3.51,11.43,4.04,4.99.65,9.73-.19,14.16-2.43,1.98-1,3.8-2.45,5.46-3.96,5.81-5.25,9.66-11.9,13.14-18.79.77-1.52,1.41-3.11,2.2-4.86.03.35.08.52.06.68-.54,4.23-1.35,8.42-2.85,12.42-1.15,3.07-2.33,6.16-3.88,9.03-2.91,5.39-6.76,9.99-12.24,13.01-3.93,2.16-8.11,2.62-12.52,2.22-6.03-.55-11.14-3.14-15.88-6.67-.65-.48-1.2-1.08-1.93-1.74-1.19,1.49-2.38,2.96-3.55,4.45-.96,1.22-1.86,2.48-2.84,3.69-.39.48-.89.82-1.58.43-.7-.4-.78-1.05-.51-1.65.38-.88.88-1.72,1.42-2.51,1.08-1.56,2.19-3.11,3.35-4.61,1.42-1.84,2.85-3.68,4.38-5.43,1.72-1.97,3.45-3.95,5.36-5.72,3.64-3.37,7.3-6.75,11.17-9.85,3.97-3.19,8.13-6.17,12.34-9.04,4.74-3.22,9.76-5.99,14.92-8.5,6.1-2.98,12.37-5.52,18.8-7.69,5.98-2.01,12.08-3.6,18.28-4.68,3.91-.69,7.88-1.04,11.81-1.57,5.92-.79,11.87-.64,17.81-.55,3.02.05,6.03.5,9.05.72,5.74.43,11.36,1.53,16.9,3.03,3.91,1.06,7.81,2.23,11.35,4.28.54.31,1.07.72,1.44,1.21.71.92.18,2.09-.97,2.12-.68.02-1.42-.13-2.05-.41-5.03-2.24-10.32-3.56-15.73-4.4-3.58-.55-7.18-1.03-10.79-1.29-4.72-.34-9.45-.59-14.18-.57-3.94.01-7.89.32-11.81.75-4.79.52-9.57,1.18-14.31,1.99-6.84,1.17-13.52,3.01-20.12,5.2-8.09,2.68-15.78,6.21-23.23,10.28-5.77,3.15-11.2,6.83-16.39,10.84-5.09,3.94-9.83,8.3-14.29,12.96-1.07,1.11-2.07,2.29-3.21,3.56Z"/>
      <path d="M119.38,3.3c-1.61-.31-3.22-.68-4.84-.91-2.12-.3-4.25-.51-6.39-.7-1.48-.13-2.97-.22-4.45-.19-7.89.17-15.46,1.73-22.49,5.45-3.12,1.65-5.84,3.83-8.22,6.45-.97,1.07-2.02,2.06-3.51,2.39-1.22.27-2.32,0-3.3-.7-1.13-.82-1.48-2.02-.81-3.25.49-.9,1.16-1.75,1.92-2.44,5.35-4.8,11.89-7.04,18.77-8.38,2.71-.53,5.52-.61,8.28-.85,1.51-.13,3.04-.21,4.55-.18,1.54.03,3.08.23,4.63.36,2.19.19,4.39.26,6.55.62,3.14.53,6.24,1.27,9.35,1.93-.02.13-.04.25-.06.38Z"/>
      <path d="M54.05,2.24c-.54.99-.87,1.89-1.44,2.59-2.04,2.51-4.09,5.02-6.28,7.4-3.53,3.84-6.13,8.17-7.69,13.16-.65,2.07-1.48,4.08-2.38,6.06-.71,1.57-2.55,2.34-3.92,2-1.75-.43-2.74-1.97-2.16-3.95.54-1.87,1.36-3.69,2.29-5.4,1.94-3.58,4.78-6.46,7.71-9.22,2.25-2.12,4.71-4.02,7-6.1,2.27-2.06,4.45-4.23,6.86-6.54Z"/>
      <path d="M26.86,21.82c-3.37,2.64-6,5.92-8.11,9.59-2.94,5.12-4.44,10.73-5.28,16.56-.19,1.31-.79,2.6-1.36,3.82-.41.89-2.14,1.83-3.34,1.53-1.57-.39-2.27-1.19-2.41-2.73-.25-2.74.78-5.17,1.88-7.55,2.24-4.86,5.3-9.16,9.08-12.92,2.74-2.74,5.64-5.32,8.48-7.95.26-.24.62-.38.94-.56.04.08.08.16.12.24Z"/>
      <path d="M90.15,74.08h-2.35c.21-3.33.41-6.61.62-9.95h2.27c.89,2.22,1.79,4.47,2.79,6.96.39-.93.72-1.67,1.02-2.42.46-1.14.98-2.27,1.34-3.44.29-.94.79-1.35,1.76-1.17.27.05.56,0,.94,0,.21,3.32.42,6.61.63,9.98h-2.47c-.08-1.43-.17-2.85-.27-4.61-.63,1.5-1.16,2.7-1.65,3.92-.2.51-.42.86-1.06.79-.6-.07-1.25.16-1.56-.69-.44-1.21-1-2.37-1.73-3.53-.1,1.34-.19,2.69-.3,4.16Z"/>
      <path d="M116.46,60.84h-2.51v-4.18h-3.38v4.01c-.14.13-.17.17-.2.18q-2.41.24-2.41-2.14c0-2.27.05-4.54-.02-6.81-.04-1.06.32-1.41,1.33-1.28.38.05.77,0,1.27,0v3.81h3.36v-3.73h2.57v10.14Z"/>
      <path d="M37.81,51.09c-1.01,1.68-2.01,3.32-2.99,4.98-.6,1-1.17,2.02-1.76,3.02-1.18,2.02-3.31,2.43-5.1.87-1.73-1.51-2.22-3.74.23-5.34,2.83-1.85,5.98-2.81,9.22-3.58.12-.03.26.04.39.06Z"/>
      <path d="M94.75,60.41c-.71.04-1.75,1.21-2.31-.43-.54.31-1.03.76-1.58.86-.59.1-1.29,0-1.84-.25-1.17-.51-1.87-2.44-1.59-3.99.41-2.24,1.29-2.98,4.29-3.52v-3.08c.84.1,1.57.13,2.26.31.18.05.33.57.34.88.03,1.81-.03,3.62.03,5.43.05,1.24.25,2.48.4,3.78ZM91.8,55.24c-1.02-.29-1.51-.02-1.56.8-.04.72-.06,1.45,0,2.16.02.27.31.52.48.78.26-.24.69-.45.74-.73.18-.99.23-2,.33-3.01Z"/>
      <path d="M111.5,23.36v3.48c1.96-.53,2.95-.26,3.72.95.93,1.47.77,3.95-.33,5.17-1.2,1.33-3.76,1.83-5.45,1.01-.2-.1-.36-.51-.36-.78-.03-2.91-.03-5.82,0-8.73,0-.28.31-.71.56-.8.54-.19,1.15-.2,1.85-.31ZM111.42,32.18c1.08.33,1.55-.05,1.65-.85.09-.66.11-1.35.03-2-.04-.31-.38-.59-.59-.88-.26.26-.7.49-.75.79-.19.95-.23,1.94-.34,2.94Z"/>
      <path d="M124.58,26.46v-3.1c.69.1,1.3.1,1.83.31.27.11.54.6.55.92.05,1.77-.04,3.55.05,5.32.06,1.25.32,2.48.5,3.8-1.41.78-1.55.76-2.36-.41-.87,1.09-2.01,1.27-3.21.75-1.15-.51-1.59-1.58-1.64-2.78-.12-2.72.7-4.09,2.75-4.63.44-.12.91-.12,1.53-.19ZM124.71,28.59c-1.08-.35-1.62.03-1.75.84-.11.72-.08,1.47-.02,2.21.02.24.37.66.5.64.27-.05.67-.3.72-.54.24-1.04.37-2.09.54-3.14Z"/>
      <path d="M106.88,43.81v3.55h-2.5c-.03-.27-.09-.57-.09-.87,0-2.7.02-5.39-.02-8.09-.01-.77.19-1.1,1.02-1.05.95.06,1.92,0,2.87.02,1.72.03,3.02,1.14,3.17,2.69.17,1.68-.79,3.04-2.47,3.45-.61.15-1.25.19-1.98.3ZM106.91,41.8c1.29.07,1.7-.27,1.67-1.27-.02-1.03-.54-1.47-1.67-1.36v2.63Z"/>
      <path d="M99.46,46.95c-1.68.91-1.76.9-2.59-.34-.82.99-1.85,1.31-3.06.83-1.24-.5-1.6-1.56-1.76-2.77-.35-2.6.91-4.52,3.25-4.76,1.05-.11,2.15.17,3.2.37.15.03.28.59.3.91.09,1.44.11,2.88.22,4.32.04.47.28.93.44,1.46ZM95.25,45.78c1.28-.84.98-2.14,1.1-3.29.02-.25-.25-.75-.36-.74-.35.02-.78.15-1.01.39-.51.54-.32,2.95.27,3.64Z"/>
      <path d="M150.51,53.3q2.64-.24,2.64,2.18c0,.82-.06,1.64.02,2.44.08.79.31,1.57.48,2.37q-1.71.82-2.48-.41c-.3.21-.59.47-.91.64-2.08,1.09-3.68.08-3.86-2.5-.09-1.34-.06-2.7.02-4.04.01-.27.43-.67.73-.74.54-.12,1.12-.03,1.89-.03,0,1.48-.04,2.91.02,4.34.02.48-.39,1.35.47,1.33.34,0,.88-.9.93-1.43.13-1.36.04-2.75.04-4.16Z"/>
      <path d="M125.07,60.27c-1.79.85-1.82.85-2.47-.23-.61.28-1.18.74-1.79.8-1.67.18-2.64-.47-3-2.13-.49-2.23-.18-4.09,1.68-5.08,1.47-.78,3.02-.47,4.52-.09.19.05.35.54.37.84.1,1.47.12,2.95.23,4.43.04.47.29.92.46,1.45ZM122.08,55.23c-1.3-.3-1.73.21-1.78,1.15-.03.6-.06,1.2.02,1.79.04.29.34.53.52.8.25-.21.65-.38.71-.63.23-1.01.35-2.04.52-3.11Z"/>
      <path d="M145.52,60.31c-1.65.8-1.73.79-2.53-.29-1.31,1.01-2.41,1.16-3.49.49-.99-.61-1.69-2.44-1.44-3.76.62-3.3,2.46-3.79,5.22-3.49.28.03.55.13.82.15.64.03.85.37.81.97-.03.49,0,.99,0,1.49,0,.78-.07,1.57.03,2.33.1.72.38,1.41.59,2.1ZM142.37,55.17c-1.14-.16-1.59.24-1.56,1.2.02.53-.06,1.07.02,1.59.06.36.32.69.49,1.03.27-.27.73-.51.79-.83.17-.95.18-1.93.26-2.99Z"/>
      <path d="M137.05,60.8q-2.6.3-2.6-2.11c0-.96.01-1.92-.03-2.87-.01-.23-.23-.45-.35-.67-.23.14-.58.23-.66.43-.22.54-.41,1.13-.44,1.71-.07,1.16-.02,2.32-.02,3.54h-2.33c-.29-2.29.4-4.69-.81-6.84,1.25-1.01,1.86-.97,2.46-.03.88-.26,1.68-.63,2.51-.7,1.29-.11,2.16.57,2.24,1.85.12,1.9.03,3.81.03,5.7Z"/>
      <path d="M95.82,53.26h2.59c0,1.52-.03,3.03.02,4.54.01.39.27.78.41,1.17.31-.34.83-.64.89-1.02.16-.96.13-1.96.17-2.95.02-.56,0-1.12,0-1.73h2.39c.27,2.29-.32,4.69.79,6.87-1.3,1.01-1.85.97-2.46-.18-.55.28-1.07.65-1.65.83-1.76.54-3.07-.41-3.14-2.31-.07-1.7-.01-3.4-.01-5.22Z"/>
      <path d="M115.03,74.09h-2.59c0-1.56.03-3.11-.02-4.66-.01-.36-.27-.7-.41-1.05-.29.28-.75.52-.83.84-.18.78-.19,1.6-.22,2.4-.03.78,0,1.55,0,2.42h-2.4c-.22-2.29.32-4.69-.8-6.88,1.31-.82,1.8-.78,2.56.29.11-.07.23-.12.33-.21.9-.79,1.91-1,3.04-.6,1.16.41,1.27,1.48,1.32,2.43.1,1.62.03,3.25.03,5.01Z"/>
      <path d="M95.07,25.32c-.44.34-.91.71-1.42,1.11-.17-.1-.46-.28-.78-.44-.88-.43-1.94-.1-2.09.87-.21,1.37-.26,2.8-.12,4.17.11,1.06,1.39,1.54,2.74,1.25.3-.07.59-.17.99-.28.17.59.33,1.12.48,1.62-2.05,1.22-5.35.78-6.46-.99-1.39-2.24-1.13-6.48,1.24-8.07,1.5-1,4.52-.96,5.41.76Z"/>
      <path d="M107.02,70.23c.29,3.47-2.58,4.56-4.74,3.9-1.33-.41-1.92-1.39-2.13-2.62-.12-.68-.1-1.43.03-2.11.44-2.26,1.95-3.24,4.36-2.93,1.56.2,2.48,1.59,2.48,3.76ZM104.38,70.37h0c0-.39.11-.82-.03-1.16-.14-.34-.49-.63-.82-.81-.08-.04-.61.39-.63.63-.09.83-.12,1.68,0,2.49.04.27.54.49.84.73.22-.31.51-.59.64-.93.11-.28.02-.63.02-.95Z"/>
      <path d="M107.98,33.68q-1.88.69-2.57-.27c-.7.28-1.35.65-2.04.79-1.46.3-2.54-.44-2.63-1.93-.12-1.79-.03-3.6-.03-5.47h2.57v5.44c.81.18,1.21-.23,1.29-.82.14-1.11.16-2.24.22-3.37.02-.38,0-.77,0-1.24h2.33c.29,2.26-.36,4.66.87,6.87Z"/>
      <path d="M131.04,31.81c.99,1.37,2.09.22,3.09.2.79,1.47.6,1.92-.99,2.18-.66.11-1.35.24-1.99.15-2.21-.33-3.36-2.3-2.82-4.71.5-2.26,2.27-3.47,4.56-3.07,1.04.18,1.72.81,1.87,1.88.14,1.05-.32,1.88-1.22,2.36-.76.41-1.6.66-2.5,1.02ZM130.79,29.62c.19.13.38.25.58.38.29-.4.57-.8.86-1.2-.21-.12-.58-.38-.61-.35-.31.36-.56.77-.83,1.17Z"/>
      <path d="M119.97,45.13c.35.86,1.11.64,1.88.52.45-.07,1.14-.11,1.35.14.57.69.31,1.25-.6,1.5-.63.18-1.29.32-1.95.35-1.39.06-2.63-.34-3.17-1.76-.69-1.8-.5-3.55.76-5.06.79-.95,2.8-1.27,4.03-.76,1.57.65,1.89,2.84.48,3.79-.82.55-1.81.85-2.79,1.29ZM119.55,42.92l.53.46c.35-.42.71-.84,1.03-1.28,0-.01-.45-.41-.47-.39-.38.39-.74.81-1.1,1.22Z"/>
      <path d="M139.55,45.14c.51.9,1.28.64,2.08.44.49-.12,1.08-.48,1.31.45.17.69.13,1.1-.64,1.24-.65.12-1.3.34-1.95.36-2.18.06-3.24-.78-3.58-2.91-.25-1.53.05-3.03,1.27-4.07,1.07-.92,2.45-1.25,3.76-.59.6.31,1.26,1.07,1.33,1.69.07.67-.34,1.63-.86,2.08-.71.61-1.73.85-2.71,1.3ZM139.15,42.9c.17.16.35.32.52.48.36-.42.72-.83,1.05-1.27.01-.02-.45-.42-.46-.41-.39.38-.75.79-1.12,1.2Z"/>
      <path d="M159.5,53.28c-.08.61-.16,1.15-.25,1.76-.43.03-.84.07-1.42.12,0,1.1-.04,2.22.04,3.33.01.18.65.51.92.44,1.02-.26.78.57.95,1.01.23.59-.12.74-.64.77-.35.02-.69.16-1.03.18-2.09.09-2.76-.53-2.82-2.6-.03-1.02,0-2.04,0-3.08-.42-.05-.73-.09-1.04-.13-.42-1.54-.3-1.75,1.06-1.92.11-.42.23-.85.36-1.34.65-.15,1.33-.29,2.11-.47.04.64.08,1.19.13,1.83.5.04,1.01.08,1.63.13Z"/>
      <path d="M121.78,66.82c-.46.91-.73,1.43-.97,1.91-.74-.14-1.38-.27-2.02-.39-.06.15-.12.29-.18.44.57.33,1.13.67,1.7,1,1.4.81,1.85,2.28.83,3.47-.49.57-1.42.8-2.2,1.04-.36.11-.82-.08-1.23-.15-2.07-.39-2.1-.47-.95-2.34.34.14.67.33,1.03.4.37.07.76.02,1.14.02.06-.09.12-.18.18-.26-.32-.27-.63-.56-.95-.82-.59-.47-1.38-.82-1.74-1.42-.81-1.33.11-3.06,1.72-3.19,1.11-.09,2.25.17,3.65.3Z"/>
      <path d="M129.87,40.31c-.35.78-.58,1.29-.84,1.87-.39-.12-.74-.27-1.11-.34-.32-.06-.65-.01-.98-.01-.03.11-.05.23-.08.34.33.22.65.47,1,.65,1.73.89,2.28,1.87,1.77,3.21-.51,1.32-1.96,1.95-3.63,1.57-.1-.02-.19-.1-.29-.13-1.87-.49-1.91-.58-.76-2.29.46.17.93.4,1.42.51.22.05.49-.14.73-.22-.1-.24-.14-.55-.32-.7-.29-.24-.68-.36-1.02-.54-1.17-.62-1.61-1.46-1.39-2.68.16-.89,1.24-1.79,2.37-1.75.99.03,1.97.31,3.11.5Z"/>
      <path d="M130.24,47.13c.35-.78.6-1.34.87-1.95.56.21,1,.45,1.47.53.29.04.62-.17.93-.27-.16-.25-.27-.57-.49-.74-.26-.21-.63-.3-.94-.47-1.14-.64-1.67-1.51-1.5-2.42.21-1.09,1.14-1.97,2.41-1.98.98,0,1.96.29,3.07.47-.29.76-.49,1.28-.7,1.84-.73-.15-1.42-.29-2.11-.44-.05.14-.1.28-.15.42.38.27.74.61,1.15.81,1.34.63,2.04,1.6,1.81,2.63-.33,1.46-1.19,2.15-2.83,2.07-.95-.04-1.9-.31-2.99-.5Z"/>
      <path d="M87.77,37.07c.86-.15,1.61-.28,2.54-.45v8.82c.53.07.9.13,1.33.19.07.48.13.96.21,1.55-.6.15-1.19.37-1.79.45-1.17.15-2.25-.74-2.27-1.97-.05-2.83-.02-5.66-.02-8.58Z"/>
      <path d="M98.42,23.32c0,2.68,0,5.19,0,7.71,0,.69-.11,1.34.97,1.37.24,0,.45.9.7,1.44-.53.16-.83.3-1.13.34-1.82.19-3.02.06-2.95-2.38.07-2.27.06-4.54,0-6.81-.03-.95.17-1.5,1.24-1.44.34.02.68-.12,1.18-.22Z"/>
      <path d="M111.96,40.39q1.53-.74,2.29.43c.85-.79,1.75-1.4,3.03-.7-.2.72-.4,1.46-.59,2.18-1.37-.16-1.83.24-1.84,1.59,0,1.13,0,2.26,0,3.48h-2.23c-.21-2.24-.43-4.52-.66-6.97Z"/>
      <path d="M128.47,53.3c0,1.55-.04,3.06.03,4.57.02.4.38.77.55,1.17.15.34.37.7.34,1.03-.02.24-.37.51-.64.65-1.15.58-2.89-.25-2.73-1.82.18-1.82.04-3.67.04-5.59h2.4Z"/>
      <path d="M127.17,52.51c-.84,0-1.3-.52-1.29-1.44,0-.74.68-1.42,1.41-1.38.86.04,1.25.61,1.35,1.36.1.78-.64,1.47-1.47,1.46Z"/>
    </g>
  </g>
</svg>