<svg xmlns="http://www.w3.org/2000/svg" xmlns:xlink="http://www.w3.org/1999/xlink" width="174px" height="95px" viewBox="0 0 174 95" version="1.1">
    <!-- Generator: Sketch 39.1 (31720) - http://www.bohemiancoding.com/sketch -->
    <title>brand-logo</title>
    <desc>Created with Sketch.</desc>
    <defs>
        <polygon id="path-1" points="6.9539703 0.153727273 0.224821782 0.153727273 0.224821782 7.94519545 6.9539703 7.94519545 6.9539703 0.153727273"/>
        <polygon id="path-3" points="4.66958361e-20 0.736509091 4.66958361e-20 47.4998273 40.3926356 47.4998273 40.3926356 0.736509091 0 0.736509091"/>
    </defs>
    <g id="UI" stroke="none" stroke-width="1" fill="none" fill-rule="evenodd">
        <g id="Projet-de-societe" transform="translate(-83.000000, -16.000000)">
            <g id="header-content" transform="translate(-35.000000, 16.000000)">
                <g id="brand-logo" transform="translate(118.000000, 0.000000)">
                    <path d="M165.548079,83.3592182 C169.794713,83.3592182 173.236812,79.9081273 173.236812,75.6512636 C173.236812,71.3944 169.794713,67.9424455 165.548079,67.9424455 C161.303168,67.9424455 157.861069,71.3944 157.861069,75.6512636 C157.861069,79.9081273 161.303168,83.3592182 165.548079,83.3592182" id="Fill-1" fill="#A49A7D"/>
                    <path d="M61.4629158,44.9038227 L62.5706584,44.2621409 L62.5706584,20.8809136 L42.3754604,9.18986818 L22.179401,20.8809136 L22.179401,44.2621409 L24.8738168,45.8218682 C24.9039653,45.3969591 24.9435891,44.9703227 24.9961337,44.5419591 C25.1339554,43.41405 25.4483614,42.3077318 25.5879059,41.1806864 C25.7188366,40.1192773 25.9376287,39.0846409 25.2407673,38.0171864 C24.7876782,37.32455 25.6680149,37.4342318 26.0082624,37.4843227 C28.1772327,37.8012773 29.9956188,38.7823682 31.3376584,40.54505 C31.7933317,41.14355 32.1525297,41.8145955 32.6822822,42.4761409 C32.097401,40.1132318 34.506698,38.2132318 33.5669257,35.6672318 C34.859005,36.1033682 35.5110743,37.0766864 36.0649455,38.1545045 C36.4956386,38.3470955 36.4034703,37.9964591 36.4181139,37.7960955 C36.4749653,36.9894591 36.3276683,36.17505 36.5025297,35.3718682 C37.143401,31.26355 39.8240347,28.6925045 43.0938564,26.56105 C43.4995693,26.2967773 43.7760743,26.2527318 43.8406782,26.8641864 C43.9388762,27.8081409 44.5504604,28.4714136 45.174104,29.09755 C46.1242129,30.0527318 47.1191139,30.9621409 48.0864505,31.90005 C50.1167376,33.8682773 51.7680149,36.0593227 52.1625297,39.2694591 C53.4287673,37.5119591 55.0145792,36.7027318 56.8906782,36.4246409 C57.5651436,36.3235955 58.0845594,36.2709136 58.1939554,37.2304136 C58.3042129,38.1994136 58.9528366,38.99655 59.399896,39.8524136 C59.9072525,40.8214136 60.4576782,41.7748682 60.8814802,42.7801409 C61.1864109,43.5012773 61.3733317,44.2085955 61.4629158,44.9038227" id="Fill-3" fill="#EE4047"/>
                    <polygon id="Fill-5" fill="#D12329" points="92.7777475 43.3898682 92.7777475 28.3833227 79.8173317 20.8809136 66.8551931 28.3833227 66.8551931 43.3898682 79.8173317 50.8931409"/>
                    <polygon id="Fill-7" fill="#A49A7D" points="77.0746782 18.75775 77.0746782 12.02225 71.2568762 8.65493182 65.4390743 12.02225 65.4390743 18.75775 71.2568762 22.1250682"/>
                    <g id="Group-11" transform="translate(75.801980, 0.709909)">
                        <mask id="mask-2" fill="white">
                            <use xlink:href="#path-1"/>
                        </mask>
                        <g id="Clip-10"/>
                        <polygon id="Fill-9" fill="#EE4047" mask="url(#mask-2)" points="3.58939604 0.153468182 0.224821782 2.10096818 0.224821782 5.99769545 3.58939604 7.94519545 6.9539703 5.99769545 6.9539703 2.10096818"/>
                    </g>
                    <g id="Group-14" transform="translate(0.000000, 47.346273)">
                        <mask id="mask-4" fill="white">
                            <use xlink:href="#path-3"/>
                        </mask>
                        <g id="Clip-13"/>
                        <path d="M40.3926356,16.1999182 L40.3926356,13.2506 C40.023101,13.2886 39.6561505,13.3205545 39.2857545,13.3784182 C37.2520218,13.7031455 35.2182891,14.0503273 33.210398,14.5002818 C29.4504475,15.3431909 26.4209525,14.1945545 23.9944277,11.2815091 C23.1588832,10.2788273 22.3827743,9.22691818 21.556705,8.21646364 C20.8796554,7.3891 20.0682297,6.73619091 19.029398,6.39764545 C18.7804574,6.31732727 18.3557941,6.40282727 18.3566554,5.98137273 C18.3583782,5.65750909 18.696903,5.52364545 18.9225861,5.34832727 C20.8710416,3.8361 23.0563782,3.35419091 25.4622297,3.86028182 C25.5363089,3.87496364 25.6103881,3.89482727 25.6836059,3.91296364 L20.1965762,0.736509091 L-0.000344554456,12.4275545 L-0.000344554456,35.8087818 L20.1965762,47.4998273 L38.1177149,37.1249636 C37.5664277,33.1306455 37.0073881,29.1371909 36.4629921,25.1420091 C36.342398,24.2567818 36.0193782,23.4907364 35.5378634,22.7696 C34.602398,21.3653273 33.4989624,20.0957818 32.3929426,18.8262364 C32.0733683,18.4583273 31.6607644,18.1526 31.4807347,17.6231909 C34.5257347,17.3831 37.4191307,16.5168727 40.3926356,16.1999182" id="Fill-12" fill="#D12329" mask="url(#mask-4)"/>
                    </g>
                    <path d="M85.6355644,83.1551409 L85.6355644,59.7739136 L65.439505,48.0837318 L60.0859901,51.1824591 C60.786297,51.0684591 61.437505,51.0028227 62.0921584,51.0226864 C63.8011485,51.0745045 65.2672277,51.7369136 66.6101287,52.7499591 C67.1889802,53.1869591 67.4430891,53.5021864 66.4723069,53.7491864 C65.2310495,54.0652773 64.3696634,54.9461864 63.585802,55.8996409 L60.9559901,59.1339591 C58.6776238,61.6402318 55.8944851,62.5859136 52.5281881,61.86305 C50.112,61.3431409 47.6889208,60.8413682 45.2425842,60.60905 L45.2425842,63.6188227 C48.1730198,63.9824136 51.0336832,64.7458682 53.9796238,64.9522773 C54.0666238,65.21655 53.8331881,65.3296864 53.716901,65.4911864 C53.5928614,65.6647773 53.4533168,65.8323227 53.2965446,65.9782773 C50.2627426,68.8230955 48.8586832,72.2975045 48.4167921,76.4800955 C48.1368416,79.1349136 47.7991782,81.7828227 47.4468713,84.4307318 L65.439505,94.8461864 L85.6355644,83.1551409 Z" id="Fill-15" fill="#9C2529"/>
                    <path d="M96.5597495,63.7132182 L98.4892545,63.7132182 L98.4892545,58.4761273 L100.09574,58.4761273 C101.637621,58.4761273 102.405977,57.6565364 102.405977,56.0182182 L102.405977,51.7268091 C102.405977,50.0746727 101.629007,49.2490364 100.075928,49.2490364 L96.5597495,49.2490364 L96.5597495,63.7132182 Z M98.4892545,51.0022182 L99.6133634,51.0022182 C100.190492,51.0022182 100.478195,51.2837636 100.478195,51.8485818 L100.478195,55.8774455 C100.478195,56.4414 100.224086,56.7229455 99.7141455,56.7229455 L98.4892545,56.7229455 L98.4892545,51.0022182 Z M107.750878,63.7132182 L109.680383,63.7132182 L109.680383,49.2490364 L107.750878,49.2490364 L107.750878,63.7132182 Z M119.144433,60.3294909 L119.144433,61.1145364 C119.144433,61.6793545 118.888601,61.9609 118.380383,61.9609 L117.897146,61.9609 C117.389789,61.9609 117.133957,61.6793545 117.133957,61.1145364 L117.133957,51.8485818 C117.133957,51.2837636 117.389789,51.0022182 117.897146,51.0022182 L118.279601,51.0022182 C118.855007,51.0022182 119.144433,51.2837636 119.144433,51.8485818 L119.144433,53.3383545 L121.072215,53.3383545 L121.072215,51.7078091 C121.072215,50.0686273 120.301274,49.2490364 118.761977,49.2490364 L117.515551,49.2490364 C115.976254,49.2490364 115.205314,50.0686273 115.205314,51.7078091 L115.205314,61.2553091 C115.205314,62.8953545 115.976254,63.7132182 117.515551,63.7132182 L118.761977,63.7132182 C120.301274,63.7132182 121.072215,62.8953545 121.072215,61.2553091 L121.072215,60.3294909 L119.144433,60.3294909 Z M128.226027,58.4156727 L130.436344,58.4156727 L130.436344,63.7132182 L132.364126,63.7132182 L132.364126,51.7268091 C132.364126,50.0746727 131.595769,49.2490364 130.05475,49.2490364 L128.607621,49.2490364 C127.066601,49.2490364 126.297383,50.0746727 126.297383,51.7268091 L126.297383,63.7132182 L128.226027,63.7132182 L128.226027,58.4156727 Z M128.226027,56.6624909 L128.226027,51.8485818 C128.226027,51.2837636 128.506839,51.0022182 129.070185,51.0022182 L129.592185,51.0022182 C130.155532,51.0022182 130.436344,51.2837636 130.436344,51.8485818 L130.436344,56.6624909 L128.226027,56.6624909 Z M137.889056,63.7132182 L139.819423,63.7132182 L139.819423,57.8707182 L140.984878,57.8707182 L142.250254,63.7132182 L144.078977,63.7132182 L142.733492,57.6902182 C143.49668,57.3542636 143.879136,56.5554 143.879136,55.2927636 L143.879136,51.7268091 C143.879136,50.0746727 143.141789,49.2490364 141.667957,49.2490364 L137.889056,49.2490364 L137.889056,63.7132182 Z M139.819423,51.0022182 L141.08566,51.0022182 C141.661066,51.0022182 141.948769,51.3519909 141.948769,52.0489455 L141.948769,55.1718545 C141.948769,55.8705364 141.661066,56.2194455 141.08566,56.2194455 L139.819423,56.2194455 L139.819423,51.0022182 Z M153.059789,63.7132182 C154.600809,63.7132182 155.370888,63.0154 155.370888,61.6180364 L155.370888,52.0290818 C155.370888,50.1757182 154.468155,49.2490364 152.659245,49.2490364 L149.302423,49.2490364 L149.302423,63.7132182 L153.059789,63.7132182 Z M151.231066,51.0022182 L152.578274,51.0022182 C153.15368,51.0022182 153.443106,51.3519909 153.443106,52.0489455 L153.443106,61.3166273 C153.443106,61.7467182 153.187274,61.9609 152.677334,61.9609 L151.231066,61.9609 L151.231066,51.0022182 Z M160.89668,63.7132182 L162.826185,63.7132182 L162.826185,49.2490364 L160.89668,49.2490364 L160.89668,63.7132182 Z M173.233452,63.7132182 L173.233452,61.9609 L170.37968,61.9609 L170.37968,57.1461273 L172.912155,57.1461273 L172.912155,55.3938091 L170.37968,55.3938091 L170.37968,51.0022182 L173.233452,51.0022182 L173.233452,49.2490364 L168.451898,49.2490364 L168.451898,63.7132182 L173.233452,63.7132182 Z" id="Fill-17" fill="#EE4047"/>
                    <path d="M101.140946,81.5796955 L98.489599,81.5796955 L98.489599,68.8678318 L96.5600941,68.8678318 L96.5600941,83.3320136 L101.140946,83.3320136 L101.140946,81.5796955 Z M107.89249,78.0344682 L110.101084,78.0344682 L110.101084,83.3320136 L112.03145,83.3320136 L112.03145,71.3456045 C112.03145,69.6926045 111.26051,68.8678318 109.721213,68.8678318 L108.274084,68.8678318 C106.733064,68.8678318 105.962985,69.6926045 105.962985,71.3456045 L105.962985,83.3320136 L107.89249,83.3320136 L107.89249,78.0344682 Z M107.89249,76.2812864 L107.89249,71.4665136 C107.89249,70.9025591 108.173302,70.62015 108.736649,70.62015 L109.258649,70.62015 C109.820272,70.62015 110.101084,70.9025591 110.101084,71.4665136 L110.101084,76.2812864 L107.89249,76.2812864 Z M117.556381,83.3320136 L119.485886,83.3320136 L119.485886,68.8678318 L117.556381,68.8678318 L117.556381,83.3320136 Z M116.33149,67.9212864 L117.937975,67.9212864 L117.937975,65.9064227 L116.33149,65.9064227 L116.33149,67.9212864 Z M119.143916,67.9212864 L120.750401,67.9212864 L120.750401,65.9064227 L119.143916,65.9064227 L119.143916,67.9212864 Z M132.586708,81.5796955 L131.48155,81.5796955 L131.48155,71.3456045 C131.48155,69.6926045 130.710609,68.8678318 129.169589,68.8678318 L127.321054,68.8678318 C125.780896,68.8678318 125.010817,69.6926045 125.010817,71.3456045 L125.010817,80.8948318 C125.010817,82.5201955 125.787787,83.3320136 127.342589,83.3320136 L132.586708,83.3320136 L132.586708,81.5796955 Z M127.803431,81.5796955 C127.228025,81.5796955 126.940322,81.29815 126.940322,80.7333318 L126.940322,71.4665136 C126.940322,70.9025591 127.221134,70.62015 127.783619,70.62015 L128.688074,70.62015 C129.26348,70.62015 129.551183,70.9025591 129.551183,71.4665136 L129.551183,81.5796955 L127.803431,81.5796955 Z M141.647629,68.8678318 L141.647629,80.6314227 C141.647629,81.2644682 141.385767,81.5796955 140.863767,81.5796955 L140.079906,81.5796955 C139.518282,81.5796955 139.23747,81.2644682 139.23747,80.6314227 L139.23747,68.8678318 L137.307104,68.8678318 L137.307104,80.5718318 C137.307104,82.4122409 138.078045,83.3320136 139.619064,83.3320136 L141.246223,83.3320136 C142.798441,83.3320136 143.576272,82.41915 143.576272,80.5916955 L143.576272,68.8678318 L141.647629,68.8678318 Z M153.985262,83.3320136 L153.985262,81.5796955 L151.13149,81.5796955 L151.13149,76.7649227 L153.663965,76.7649227 L153.663965,75.0117409 L151.13149,75.0117409 L151.13149,70.62015 L153.985262,70.62015 L153.985262,68.8678318 L149.201985,68.8678318 L149.201985,83.3320136 L153.985262,83.3320136 Z" id="Fill-19" fill="#424244"/>
                    <path d="M163.680594,74.7802 L163.680594,73.9683818 C163.680594,73.5952909 163.680594,72.7454727 162.254139,72.7454727 C162.051713,72.7454727 161.458218,72.7515182 161.078347,73.1626091 C160.840604,73.4234273 160.819069,73.7144727 160.819069,74.1393818 L160.819069,77.0014727 C160.819069,77.2925182 160.819069,77.7036091 161.234257,77.9791091 C161.539188,78.1803364 161.977634,78.2321545 162.254139,78.2321545 C163.680594,78.2321545 163.680594,77.3149727 163.680594,76.8900636 L163.680594,76.1456091 L162.721871,76.1456091 L162.721871,76.8304727 C162.721871,77.1517455 162.721871,77.4799273 162.267059,77.4799273 C161.836366,77.4799273 161.784683,77.1957909 161.784683,76.8831545 L161.784683,74.0642455 C161.784683,73.8258818 161.806218,73.4907909 162.23002,73.4907909 C162.654683,73.4907909 162.721871,73.7144727 162.721871,74.1100182 L162.721871,74.7802 L163.680594,74.7802 Z M163.963129,78.1207455 L164.930465,78.1207455 L165.071733,77.2631545 L165.963267,77.2631545 L166.089891,78.1207455 L167.072733,78.1207455 L166.089891,72.8560182 L164.98301,72.8560182 L163.963129,78.1207455 Z M165.539465,74.1912 L165.85904,76.4504727 L165.191465,76.4504727 L165.539465,74.1912 Z M167.511178,78.1207455 L169.898941,78.1207455 L169.898941,77.3227455 L168.470762,77.3227455 L168.470762,72.8560182 L167.511178,72.8560182 L167.511178,78.1207455 Z" id="Fill-21" fill="#FEFEFE"/>
                    <path d="M11.5437802,67.9360545 C11.5437802,67.9360545 21.9570772,75.4522818 31.3065624,64.9297364 C31.3065624,64.9297364 19.0395624,88.5709182 11.5437802,67.9360545" id="Fill-23" fill="#FEFEFE"/>
                    <path d="M24.3678386,82.3573136 C24.3678386,82.3573136 16.293205,73.0879045 8.21943267,84.8143591 C8.21943267,84.8143591 18.2425218,65.4974045 24.3678386,82.3573136" id="Fill-25" fill="#FEFEFE"/>
                    <path d="M21.7037436,68.3577682 C23.1749911,68.3577682 24.3680109,67.1616318 24.3680109,65.6874045 C24.3680109,64.21145 23.1749911,63.0153136 21.7037436,63.0153136 C20.232496,63.0153136 19.0394762,64.21145 19.0394762,65.6874045 C19.0394762,67.1616318 20.232496,68.3577682 21.7037436,68.3577682" id="Fill-27" fill="#FEFEFE"/>
                    <path d="M73.9311356,67.9360545 C73.9311356,67.9360545 63.5178386,75.4522818 54.1683535,64.9297364 C54.1683535,64.9297364 66.4353535,88.5709182 73.9311356,67.9360545" id="Fill-29" fill="#FEFEFE"/>
                    <path d="M61.1070772,82.3573136 C61.1070772,82.3573136 69.1808495,73.0879045 77.2554832,84.8143591 C77.2554832,84.8143591 67.2323941,65.4974045 61.1070772,82.3573136" id="Fill-31" fill="#FEFEFE"/>
                    <path d="M63.7711723,68.3577682 C62.2999248,68.3577682 61.106905,67.1616318 61.106905,65.6874045 C61.106905,64.21145 62.2999248,63.0153136 63.7711723,63.0153136 C65.2424198,63.0153136 66.4354396,64.21145 66.4354396,65.6874045 C66.4354396,67.1616318 65.2424198,68.3577682 63.7711723,68.3577682" id="Fill-33" fill="#FEFEFE"/>
                </g>
            </g>
        </g>
    </g>
</svg>