<?xml version="1.0" encoding="UTF-8"?>
<svg id="Calque_2" xmlns="http://www.w3.org/2000/svg" viewBox="0 0 341.61 139.49">
  <g id="Calque_1-2" data-name="Calque_1">
    <g>
      <path d="M80,85.16v-1.59c0-10.1.05-20.21-.03-30.31-.02-2.66-.23-5.35-.7-7.96-.97-5.41-4.64-8.4-10.15-8.76-5.45-.36-9.93,1.29-12.93,6.05-1.63,2.59-2.34,5.47-2.34,8.54,0,10.58,0,21.16,0,31.75q0,2.28-2.27,2.28c-3.32,0-6.64,0-9.95,0-.43,0-.86,0-1.45,0,0-.59,0-1.05,0-1.51,0-10.7.05-21.4-.04-32.11-.02-2.41-.35-4.86-.91-7.21-1.1-4.61-4.5-7.33-9.23-7.74-8.97-.78-15.42,4.72-15.95,13.72-.19,3.18-.18,6.38-.19,9.57-.02,7.95,0,15.89,0,23.84v1.34c-.43.04-.74.09-1.05.09-3.84,0-7.68-.02-11.51.02-.86,0-1.08-.3-1.08-1.11.02-19.49.01-38.97.02-58.46,0-.31.05-.62.08-.95h13.65c-4.39,6.55-5.06,13.84-5.21,21,1.07-2.81,2.06-5.9,3.4-8.83,3.02-6.62,7.76-11.51,15.13-12.95,7.42-1.46,14.35-.29,19.86,5.43,1.42,1.47,2.45,3.32,3.69,5.05.06-.06.25-.23.4-.44,4.71-6.68,11.17-10.36,19.3-10.57,6.3-.16,12.23,1.3,16.77,6.2,3.31,3.56,4.94,7.9,5.62,12.58.44,3.07.65,6.19.67,9.29.08,10.78.01,21.56.06,32.35,0,1.18-.36,1.46-1.49,1.44-3.99-.06-7.98-.03-12.17-.03Z" style="fill: #09a9c0;"/>
      <path d="M231.98,47.18c-.07-5.81-.46-11.59-3.25-16.83-.97-1.83-2.49-3.38-3.73-5.07-.31-.42-.7-.93-.7-1.4-.05-6.15-.03-12.3-.03-18.45,0-.19.04-.38.07-.64h13.48v80.3h-12.86v-7.33c-1.09,1-1.95,1.88-2.9,2.63-4.54,3.63-9.76,5.44-15.53,5.87-7.08.53-13.46-1.22-19.02-5.66-5.63-4.5-8.97-10.45-10.42-17.41-2.14-10.24-.87-20,5.37-28.63,6.07-8.38,14.49-11.93,24.8-10.95,6.06.57,11.38,2.89,15.68,7.18,4.46,4.45,7.71,9.65,8.92,15.95.03.15.07.29.11.44ZM224.38,54.93c-.14-1.38-.21-2.78-.45-4.15-.2-1.13-.53-2.25-.93-3.33-5.08-13.46-21.27-13.64-28.5-5.1-3.78,4.47-4.89,9.69-4.26,15.33.51,4.59,2.47,8.54,6.06,11.57,2.78,2.34,6.01,3.57,9.6,3.89,5.43.47,10.09-1.15,13.78-5.22,3.32-3.67,4.64-8.1,4.7-12.99Z" style="fill: #09a9c0;"/>
      <path d="M335.24,47.26c-.49-7.78-.99-16.13-7.65-22.53h13.34c.02.37.05.75.05,1.14,0,19.32,0,38.65.03,57.97,0,1.04-.25,1.37-1.33,1.35-3.72-.06-7.43-.02-11.15-.03-.35,0-.7-.04-1.14-.06v-7.41c-.52.51-.85.82-1.16,1.14-4.46,4.52-9.94,6.81-16.2,7.39-8.07.75-15.18-1.49-21.13-7.03-4.54-4.23-7.36-9.52-8.69-15.54-2.31-10.46-1.04-20.38,5.34-29.18,6.05-8.34,14.48-11.85,24.73-10.86,10.03.97,16.95,6.49,21.47,15.2,1.47,2.84,2.46,5.92,3.48,8.44ZM327.41,54.18c-.18-1.13-.31-3.1-.84-4.96-1.85-6.49-5.88-11.03-12.66-12.31-6.99-1.32-13.01.78-17.31,6.63-3.49,4.74-4.15,10.15-3.07,15.84,2.27,11.92,16.44,17.88,26.34,11.01,5.34-3.71,7.3-9.14,7.54-16.22Z" style="fill: #09a9c0;"/>
      <path d="M164.64,59.39h-1.37c-12.71,0-25.42-.01-38.14.02-.97,0-1.54-.31-2.03-1.09-1.7-2.72-2.64-5.68-3.01-8.98h31.53c-.11-.67-.17-1.21-.3-1.73-1.91-7.61-8.59-12.76-16.42-12.66-6.71.08-12.92,4.54-15.32,11.3-2.65,7.47-1.98,14.67,2.86,21.1,3.27,4.34,8.01,6.26,13.32,6.6,6.64.43,12.83-1.16,18.48-4.73.2-.12.41-.22.71-.38.68,1.23,1.33,2.41,1.97,3.59.93,1.72,1.76,3.5,2.79,5.16.67,1.08.34,1.55-.61,2.13-4.89,3-10.14,5.06-15.82,5.92-7.65,1.16-15.09.32-22.03-3.22-10.09-5.16-15.57-13.51-16.53-24.79-.83-9.77,2.11-18.29,8.9-25.36,4.61-4.81,10.34-7.73,16.93-8.79,9.78-1.58,18.34,1.05,25.29,8.11,7.15,7.27,9.92,16.18,8.93,26.29-.04.44-.08.87-.14,1.52Z" style="fill: #09a9c0;"/>
      <path d="M130.1,134.27c1.28-3.22,2.48-6.23,3.68-9.25,2.09-5.28,4.19-10.56,6.26-15.85.27-.68.58-.99,1.37-.95,1.63.08,3.27.02,5.05.02.36,10.21.72,20.38,1.07,30.61h-4.46c-.18-8.18-.36-16.31-.54-24.45-.1,0-.19-.02-.29-.03-1.46,3.63-2.93,7.26-4.39,10.89-1.71,4.24-3.42,8.47-5.1,12.71-.27.69-.62,1.06-1.39.93-.31-.05-.64,0-.96,0-2.76,0-2.75,0-3.81-2.62-2.95-7.25-5.91-14.49-8.87-21.73-.04-.1-.1-.19-.38-.27-.18,8.16-.37,16.32-.55,24.55h-4.38c.35-10.14.71-20.27,1.06-30.5h6.13c3.45,8.5,6.94,17.11,10.52,25.94Z" style="fill: #232221;"/>
      <path d="M72.27,139.16c-1.42,0-2.78.07-4.12-.04-.44-.04-.97-.46-1.25-.86-5.71-7.78-11.39-15.58-17.07-23.38-.09-.13-.2-.24-.41-.49v24.43h-4.26v-30.57c1.54,0,3.09-.05,4.62.04.33.02.68.48.93.81,5.52,7.52,11.03,15.06,16.54,22.59.22.31.47.6.88,1.13v-24.52h4.16v30.86Z" style="fill: #232221;"/>
      <path d="M314.5,108.24c1.45,0,2.85-.07,4.24.04.44.03.97.45,1.26.84,5.65,7.67,11.28,15.36,16.91,23.05.11.16.23.31.49.66v-24.53h4.21v30.86c-1.48,0-2.95.06-4.41-.04-.35-.02-.74-.51-1-.87-5.49-7.49-10.97-15-16.45-22.5-.3-.41-.59-.81-1.05-1.43v24.51h-4.21v-30.59Z" style="fill: #232221;"/>
      <path d="M281.19,139.49c-6.68-.18-12.26-2.51-15.2-8.86-4.36-9.42.43-21.42,12.79-22.89,4.91-.58,9.48.28,13.43,3.33,4.56,3.51,6.2,8.34,5.73,13.93-.76,9.04-8.23,14.64-16.76,14.49ZM281.19,111.12c-7.2,0-12.25,5.02-12.3,12.26-.06,7.33,5.13,12.6,12.41,12.59,7.17,0,12.2-5.07,12.23-12.33.03-7.32-5.09-12.52-12.33-12.52Z" style="fill: #232221;"/>
      <path d="M30.27,138.86h-4.36c-.99-2.44-1.99-4.86-2.93-7.3-.23-.6-.5-.83-1.19-.83-4.36.04-8.71.04-13.07,0-.76,0-1.04.29-1.28.92-.81,2.11-1.69,4.2-2.5,6.31-.26.67-.57,1.02-1.36.96-1.11-.08-2.23-.02-3.58-.02,4.24-10.27,8.42-20.41,12.65-30.66,1.63,0,3.25-.02,4.88.02.22,0,.54.3.63.53,4.03,9.89,8.04,19.79,12.05,29.69.04.1.04.22.06.38ZM21.21,127.07c-1.98-4.98-3.9-9.81-5.94-14.94-2.07,5.14-4.03,10-6.02,14.94h11.96Z" style="fill: #232221;"/>
      <path d="M183.8,130.75c-4.78,0-9.42-.01-14.05.03-.34,0-.85.37-.99.69-.93,2.15-1.81,4.33-2.64,6.52-.27.71-.64.97-1.4.92-1.11-.07-2.23-.02-3.52-.02.5-1.25.94-2.38,1.4-3.51,3.6-8.74,7.21-17.47,10.8-26.21.27-.66.58-1.01,1.37-.96,1.19.08,2.4-.02,3.59.05.34.02.85.29.96.57,4.06,9.92,8.08,19.86,12.11,29.8.01.03,0,.08-.02.26-1.27,0-2.57.05-3.86-.04-.29-.02-.65-.47-.79-.81-1.01-2.41-1.98-4.84-2.98-7.3ZM176.44,112.14c-2.08,5.16-4.03,10-6,14.9h11.93c-1.96-4.93-3.88-9.75-5.93-14.9Z" style="fill: #232221;"/>
      <path d="M259.6,0c4.77,0,8.72,3.95,8.7,8.69-.02,4.65-4.04,8.68-8.65,8.65-4.83-.03-8.63-3.88-8.62-8.71C251.04,3.86,254.88,0,259.6,0Z" style="fill: #09a9c0;"/>
      <path d="M251.03,50.28c.01-4.75,3.91-8.63,8.62-8.57,4.78.05,8.72,4.04,8.65,8.75-.07,4.69-4.01,8.58-8.7,8.59-4.75,0-8.58-3.9-8.57-8.76Z" style="fill: #09a9c0;"/>
      <path d="M251.03,76.84c0-4.81,3.78-8.58,8.58-8.58,4.8,0,8.75,3.94,8.7,8.67-.06,4.74-3.92,8.57-8.66,8.58-4.86,0-8.61-3.77-8.61-8.67Z" style="fill: #09a9c0;"/>
      <path d="M228.25,108.3v3.52h-11.53v26.99h-4.43v-26.92h-11.71v-3.59h27.67Z" style="fill: #232221;"/>
      <path d="M148.09.07c-2.58,6.51-17.98,17.33-24.27,16.99,1.08-1.74,2.12-3.43,3.17-5.11,2.3-3.69,4.6-7.38,6.95-11.03.27-.42.88-.87,1.35-.87,4.07-.07,8.15-.04,12.22-.04.19,0,.37.04.58.07Z" style="fill: #09a9c0;"/>
      <path d="M95.02,138.85h-4.34v-30.55h4.34v30.55Z" style="fill: #232221;"/>
      <path d="M243.6,138.84v-30.52h4.29v30.52h-4.29Z" style="fill: #232221;"/>
    </g>
  </g>
</svg>