<?xml version="1.0" encoding="UTF-8"?>
<svg id="Calque_1" xmlns="http://www.w3.org/2000/svg" viewBox="0 0 245.6 344.3">
  <path d="M47.74,157.75c-1.4,7.11-2.83,14.2-4.18,21.32-.66,3.48-1.24,6.98-1.7,10.49-.28,2.12-1.68,2.28-3.25,2.14-2.06-.19-1.92-1.74-1.66-3.17,1.1-5.97,2.25-11.92,3.39-17.89,1.26-6.6,2.43-13.23,3.88-19.79.29-1.3,1.48-2.98,2.64-3.39,2.08-.73,2.4,1.39,2.94,2.86,1.83,4.96,3.68,9.91,5.65,15.2,4.13-5.42,7.99-10.48,11.85-15.53.4-.52.84-1.07,1.25-1.49.86-.88,1.89-1.52,3.56-1.08.92.35.77,2.28.58,3.32-2.05,11.11-4.23,22.19-6.35,33.29-.3,1.56-.71,3.15-.68,4.71.05,2.54-1.5,3.11-3.4,2.88-2.09-.26-1.81-1.93-1.51-3.48,1.78-9.16,3.53-18.33,5.28-27.51.05-.26-.03-.55-.08-1.45-2.96,3.8-5.56,7.27-8.33,10.59-.81.97-2.07,2.46-3.2,2.26-1.01-.13-1.55-1.95-1.98-3.06-1.44-3.73-2.73-7.52-4.07-11.29-.21.02-.42.03-.64.05Z"/>
  <path d="M189.3,116.9c1.5-8.35,3-16.7,4.53-25.04.23-1.28.31-2.83,1.08-3.69.75-.82,2.35-1.46,3.52-1.16,1.38.67,1.22,1.91,1.05,2.79-2.4,12.26-4.93,24.49-7.44,36.73-.17.82-.12,1.88-.61,2.4-.79.83-1.91,1.65-2.97,1.79-.59.08-1.84-1.17-1.98-1.96-1.22-7.18-2.25-14.39-3.35-21.6-.29-1.88-.58-3.76-1.49-5.64-1.2,6.15-2.43,12.3-3.6,18.46-.47,2.47-.95,4.96-1.19,7.46-.21,2.11-.64,3.74-3.25,3.46-2.86-.3-1.87-2.49-1.63-3.88,1.25-7.17,2.7-14.3,4.09-21.45,1.01-5.22,2.04-10.44,3.07-15.66.11-.54.35-1.14.44-1.58.22-1.12.48-1.53,2.88-1.63,1.48.1,1.55,1.42,1.71,2.31,1.64,9.28,3.14,18.58,4.69,27.88.15,0,.29,0,.44,0Z"/>
  <path d="M130.78,222.7c-1.68,9.26-3.43,18.51-4.99,27.8-.38,2.28-1.87,2.05-3.29,1.97-1.94-.11-1.76-1.57-1.5-2.91,2.22-11.64,4.45-23.28,6.68-34.91.25-1.28.28-2.7.89-3.79.6-1.08,1.06-2.71,2.75-2.71,1.22,0,1.96,1.95,2.16,3.06,1.5,8.45,2.8,16.94,4.18,25.42.1.63.35,1.24.73,2.56,1.68-9.35,3.22-18,4.81-26.63.33-1.79.4-3.91,3.01-4.05,1.97-.11,3.08.58,2.62,2.8-2.67,12.95-5.32,25.91-8,38.87-.32,1.53-1.11,2.41-2.9,2.39-2.14-.03-2.37-1.46-2.59-2.98-1.18-8.13-2.33-16.27-3.51-24.4-.12-.82-.38-1.62-.58-2.43-.16-.02-.31-.03-.47-.05Z"/>
  <path d="M108.72,191.74c-1.31,0-2.62,0-3.94,0-3.33-.02-3.83-.54-3.2-3.8,2.38-12.37,4.86-24.73,7.2-37.11.43-2.28,1.54-3.24,3.8-3.13,1.96.1,3.94.01,5.9.14,6.03.39,8.64,2.83,8.16,8.94-.52,6.59-1.72,13.14-2.96,19.65-.64,3.36-1.82,6.66-3.07,9.86-1.47,3.76-4.28,5.79-8.51,5.48-1.12-.08-2.25-.01-3.37-.01ZM106.68,186.88c6.37,1.4,8.99.19,10.65-5.76,1.6-5.73,2.79-11.6,3.79-17.47.48-2.8.34-5.79,0-8.63-.29-2.49-2.39-3.05-4.66-3.04-1.7,0-3.27.16-3.65,2.2-2.06,10.9-4.09,21.8-6.13,32.7Z"/>
  <path d="M169.97,97.24c-1.99,8.7-3.66,17.49-6.07,26.07-1.79,6.37-7.78,9.03-14.04,7-2.35-.76-3.39-2.83-3.83-5-.78-3.83-.02-7.86.6-11.7,1.02-6.34,2.22-12.69,3.95-18.86,1.95-6.97,4.24-8.13,12.4-7.97,3.79.07,5.82,2.85,6.34,5.12.3,1.3,1.04,2.98.65,5.35ZM164.84,98.33c.43-1.46.17-5.88-3.24-7.18-2.23-.85-4.52,1.19-6.08,5.06-.1.26-.24.51-.31.78-1.02,4.17-2.29,8.29-2.99,12.51-.74,4.49-1.65,9.08-1.25,13.62.15,1.66,1.08,2.67,1.97,2.92,1.09.3,2.87-.21,3.69-1.03,1.27-1.27,2.4-2.99,2.86-4.72,1.93-7.28,3.59-14.64,5.34-21.97Z"/>
  <path d="M58.7,115.69c-3.27,0-6.35-.12-9.41.08-.74.05-1.68,1.01-2.07,1.78-1.69,3.33-3.17,6.76-4.8,10.12-.44.9-.97,1.97-1.76,2.43-.83.48-2.29.73-2.98.3-.55-.34-.77-2.07-.41-2.85,5.96-13.08,12.06-26.1,18.05-39.16.89-1.94,2.48-2.05,3.95-1.6.83.26,1.78,1.59,1.88,2.53.8,7.44,1.41,14.9,2.08,22.35.48,5.31.99,10.61,1.49,15.92.12,1.24.84,2.77-1.11,3.2-1.91.42-3.17-.65-3.5-2.39-.44-2.29-.53-4.64-.78-6.96-.2-1.84-.4-3.67-.63-5.74ZM58.38,111.78c-.34-5.22-.66-10.15-.97-15.08-.21-.03-.43-.05-.64-.08-2.25,4.98-4.49,9.96-6.84,15.16h8.46Z"/>
  <path d="M94.41,243.55c1.54-8.54,3.09-17.07,4.6-25.61.34-1.92.64-3.86.81-5.81.18-2.01.9-3.57,3.14-3.52,2.43.05,2.18,2,1.91,3.53-1.15,6.62-2.49,13.2-3.6,19.82-.66,3.95-1.07,7.95-1.5,11.93-.19,1.78.24,3.87,2.17,3.96,1.59.07,5.05-1.03,5.68-2.25,1.87-3.59,2.46-7.23,3.38-11.17,1.65-7.08,2.76-14.28,4.06-21.44.7-3.82,1.67-5.03,4.06-4.38.78.21,2.09.84,1.76,2.39-2.27,10.65-4.15,20.46-6.56,30.61-.98,4.13-2.18,8.71-7.03,10.02-2.59.7-5.56.7-8.22.23-3.05-.53-5.14-4.7-4.68-8.32Z"/>
  <path d="M165.59,176.55c-3.28,0-6.28-.11-9.25.08-.77.05-1.8.87-2.18,1.61-1.71,3.32-3.21,6.74-4.81,10.12-.36.75-.88,1.54-1.27,2.11-.71,1.05-2.59,1.05-3.75.98-1.18.07-.48-2.39-.08-3.3,3.97-8.87,8.08-17.67,12.15-26.49,1.8-3.9,3.69-7.76,5.36-11.72.87-2.08,2.32-2.36,4.26-2.23,2.14.14,1.9,1.7,2.02,3.05.91,9.78,1.79,19.57,2.68,29.35.25,2.8.39,5.61.81,8.38.21,1.4.6,3.01-1.16,3.03-1.13.01-2.78-1.13-3.31-2.2-.71-1.43-.59-3.28-.76-4.95-.26-2.5-.46-5.02-.71-7.81ZM165.27,172.57c-.36-5.18-.71-10.06-1.05-14.94-.23-.01-.47-.02-.7-.04-2.22,4.92-4.43,9.84-6.74,14.98h8.5Z"/>
  <path d="M79.53,187.27c4.49,0,8.7.06,12.91-.03,1.88-.04,3.32.53,3.28,2.5-.05,2.02-1.75,2.03-3.34,2.01-5.06-.04-10.12-.02-15.18-.01-2.37,0-3.33-.76-2.79-3.43,2.58-12.8,5-25.64,7.39-38.48.33-1.8,1.33-2.37,2.87-2.38,4.78-.04,9.56-.02,14.34-.01,1.69,0,2.63.75,2.59,2.55-.04,2-1.43,1.83-2.77,1.82-4.02-.01-8.05,0-12.43,0-.92,4.73-1.82,9.42-2.8,14.47,3.02,0,5.71,0,8.41,0,1.68,0,3.14.51,3.11,2.41-.03,1.96-1.69,1.88-3.13,1.88-2.44,0-4.87.05-7.31-.02-1.48-.04-2.11.45-2.37,2.02-.78,4.78-1.78,9.53-2.77,14.71Z"/>
  <path d="M161.81,212.76c-.94,4.79-1.85,9.44-2.84,14.46,2.93,0,5.69.05,8.45-.02,1.76-.05,3.11.52,3.06,2.39-.05,1.83-1.54,2.04-3.08,2.02-3.08-.05-6.15-.01-9.38-.01-1.06,5.52-2.08,10.81-3.17,16.46,4.3,0,8.39-.04,12.48.03.97.02,2.09.23,2.85.76.53.37.93,1.53.76,2.16-.17.61-1.14,1.4-1.77,1.41-5.91.11-11.82.14-17.72-.04-.65-.02-1.91-1.66-1.78-2.35,2.43-13.22,5-26.42,7.67-39.6.15-.76,1.44-1.82,2.23-1.84,5.06-.18,10.13-.2,15.18-.02.78.03,1.94,1.28,2.16,2.15.38,1.52-.78,2.05-2.24,2.03-4.21-.04-8.42-.01-12.88-.01Z"/>
  <path d="M74.97,227.23c3.08,0,5.79.02,8.49,0,1.6-.02,2.85.43,2.87,2.27.02,1.99-1.43,2.13-2.93,2.12-3-.01-5.99,0-9.35,0-1.05,5.4-2.09,10.76-3.2,16.47,4.52,0,8.72-.1,12.92.07,1.03.04,2.51.7,2.93,1.51.74,1.43.18,2.83-1.81,2.85-5.72.03-11.44.01-17.16.02-1.94,0-2.41-1.06-2.08-2.77,2.13-10.9,4.25-21.81,6.38-32.71.41-2.11.97-4.2,1.22-6.32.21-1.7,1.12-2.21,2.62-2.21,4.88,0,9.75,0,14.63-.01,1.52,0,2.55.52,2.54,2.25-.01,1.83-1.2,2.06-2.66,2.04-3.56-.03-7.13-.09-10.69.06-.79.03-2.09.76-2.23,1.38-.95,4.18-1.65,8.41-2.5,13.01Z"/>
  <path d="M73.39,121.08c.78-9.51,2.31-18.89,5.28-27.97,1.55-4.73,4.67-6.64,9.64-6.43,1.49.06,3,.2,4.46.51,3.56.73,5.65,4.47,4.15,7.77-.42.93-1.37,2.18-2.98,1.88-1.21-.22-1.52-1.38-1.57-2.18-.11-1.78-.46-3.27-2.4-3.54-2.25-.32-4.8-.52-5.81,2.11-1.35,3.55-2.53,7.2-3.36,10.9-1.14,5.09-1.88,10.27-2.76,15.42-.14.82-.14,1.68-.14,2.52,0,2.04.11,4.03,2.78,4.41,3.37.48,5.47-.62,6.18-3.32.26-.98.48-2,.56-3.01.14-1.73,1.24-2.53,2.62-1.96.93.38,2.11,1.79,2.06,2.68-.36,7.1-5.14,10.91-12.28,10.06-4.27-.51-6.3-2.72-6.43-7.03-.03-.94,0-1.87,0-2.81Z"/>
  <path d="M193.31,147.43c4.87.03,7.61,1.75,8.97,6.05.34,1.08.51,3.1-.48,3.71-1.02.41-2.77-1-3.25-1.95-1.17-2.34-2.82-3.25-5.32-3.27-2.45-.01-4.02,1.31-3.83,3.47.21,2.39,1.02,4.89,2.19,7.01,1.85,3.34,4.34,6.31,6.33,9.57,2.88,4.72,2.33,9.7.4,14.57-1.84,4.65-9.09,6.83-14.33,4.12-1.94-1.01-3.67-2.8-4.93-4.62-1.08-1.55-.3-3.54,1.56-4.07,1.51-.43,2.97.05,3.14,2.42.17,2.32,2.46,2.55,4.3,2.81,2.54.36,4.73-.32,5.75-2.9,1.42-3.6,1.94-7.32-.2-10.8-1.91-3.1-4.11-6.02-6.23-8.99-2.68-3.76-4.21-7.67-2.28-12.32,1.56-3.75,3.24-4.83,8.19-4.8Z"/>
  <path d="M192.42,208.48c5.94-.45,8.19,2.75,9.36,6.59.25.84.06,2.63-.63,2.93-.82.35-1.98-.17-2.72-.96-.4-.44-.82-1-1.16-1.55-1.46-2.38-4.64-3.48-6.9-2.38-1.82.88-2.84,4-1.57,6.45,1.53,2.97,3.42,5.79,5.45,8.46,4.32,5.67,6.07,11.7,3.5,18.64-1.32,3.57-4.41,5.64-9.05,5.86-4.31.2-8.08-.94-10.17-5.01-.52-1.02-.53-3.05.26-3.92.29-.32,1.68-.95,2.03-.69.89.65,1.36,1.88,2.22,2.6,1.18.99,2.48,2.13,3.91,2.5,2.52.65,5.03.1,6.1-2.64,1.44-3.65,2.08-7.44-.28-11.02-2.37-3.59-5.14-6.94-7.17-10.7-1.21-2.24-2.03-5.13-1.83-7.63.47-5.81,2.8-7.53,8.64-7.52Z"/>
  <path d="M114.54,91.04c-3.6,0-6.88.09-10.14-.05-1-.04-2.27-.47-2.89-1.18-1.33-1.52-.52-3.22,1.49-3.23,8.06-.02,16.12.03,24.18.12,1.83.02,3.14.98,2.88,2.98-.27,2.08-1.69,1.91-3.39,1.63-1.91-.31-3.95-.37-5.85-.02-.75.14-1.62,1.57-1.82,2.53-2.33,11.43-4.59,22.88-6.74,34.34-.46,2.48-1.89,3.18-3.96,2.65-.62-.16-1.44-1.66-1.3-2.37,1.64-8.42,3.47-16.8,5.19-25.2.81-3.92,1.51-7.87,2.33-12.21Z"/>
  <path d="M46.44,252.51c-4.8,0-8.34-2.39-8.68-6.18-.1-1.05,0-2.93,1.28-3.28,1.04-.04,2.03,1.37,2.32,2.28.88,2.74,2.9,2.78,5.14,2.75,2.46-.03,3.85-1.39,4.34-3.61,1.02-4.64,1.96-9.31,2.82-13.98,1.19-6.51,2.16-13.06,3.52-19.53.23-1.1,1.48-2.82,2.93-2.82,1.2.3,2.02,2.22,1.88,3.16-.81,5.62-1.94,11.2-2.99,16.79-1.02,5.41-2.11,10.8-3.08,16.21-1.04,5.77-3.8,8.22-9.48,8.21Z"/>
  <path d="M141.09,89.12c-1.36,7.09-2.58,13.31-3.75,19.54-1.27,6.78-2.57,13.55-3.72,20.34-.39,2.27-2.13,2.15-3.36,1.78-.74-.23-1.61-2.01-1.45-2.92,1.37-7.89,3-15.74,4.47-23.62.91-4.85,1.72-9.72,2.49-14.6.3-1.9,1.46-3.07,3.16-2.76.96.17,2.49.69,2.16,2.25Z"/>
  <path d="M128.86,189.72c1.4-7.28,2.69-13.69,3.85-20.11,1.13-6.24,2.13-12.5,3.2-18.74.32-1.87,1.25-3.25,3.32-3.05,2.13.2,2.05,1.89,1.76,3.42-1.79,9.54-3.64,19.06-5.42,28.6-.58,3.11-1.12,6.24-1.49,9.39-.25,2.12-1.47,2.6-3.26,2.42-1.2-.12-2.3-.12-1.97-1.91Z"/>
  <path d="M124.59,39.83c0,1.3.13,3.05-1.79,2.67-.82-.16-1.83-.29-1.94-2.69-.35-7.29-1.15-31.4-1.24-36.17-.05-2.62,1.56-4.02,3.82-3.56,1.97.4,2.36,1.8,2.35,3.57-.04,6.08-1.19,30.19-1.2,36.18Z"/>
  <path d="M74.49,51.08c0,.79-.7,1.23-1.27,1.44-.55.2-1.47-.06-1.96-.45-.54-.43-.83-1.22-1.14-1.89-4.86-10.71-9.72-21.42-14.56-32.15-1.21-2.67-.56-4.42,1.86-5.06,2.51-.67,3.29,1.14,3.97,2.95,4.18,11.09,8.33,22.18,12.49,33.27.2.52.34,1.07.6,1.89Z"/>
  <path d="M125.83,340.43c0,2-.15,3.79-2.85,3.88-2.72.08-3.39-1.58-3.32-3.78.36-11.88.72-23.75,1.26-35.62.05-1.07.51-3.13,1.99-3.13,1.96,0,1.64,2.01,1.66,3.03.16,6.07,1.25,29.83,1.26,35.63Z"/>
  <path d="M58.9,331.69c-3.21.13-4.62-2.32-3.43-4.96,4.36-9.69,14.22-31.87,15.08-33.05.58-.79,1.83-1.98,2.68-1.7.71.56.94,2.23.64,3.07-3.36,9.28-11.89,32.15-12.9,34.23-.51,1.06-.76,2.42-2.07,2.41Z"/>
  <path d="M190.82,15.67c-.46,1.27-.72,2.17-1.1,3.01-4.75,10.46-9.52,20.9-14.29,31.35-.27.59-.57,1.23-.89,1.72-.5.76-1.57.92-2.13.7-.54-.21-1.42-.78-1.05-1.97.11-.37.24-.87.4-1.31,4.18-11.19,8.33-22.38,12.54-33.56,1.09-2.89,2.75-3.6,4.86-2.1.74.52,1.96,1.32,1.64,2.14Z"/>
  <path d="M188.35,331.34c-.83.45-2.07.36-3.15-.89-.46-.53-.76-1.44-1.06-2.22-4.07-10.72-8.14-21.45-12.19-32.17-.26-.69-.63-1.43-.59-2.13.03-.65,0-1.38.87-1.81,1.34-.66,1.62.09,2.2.52.54.4.78,1.24,1.09,1.92,4.74,10.45,9.46,20.92,14.2,31.37,1.86,4.11.3,4.5-1.37,5.42Z"/>
  <path d="M0,52.2c0-1.13,1.17-2.2,2.07-2.43,1.03-.25,2.65.15,3.41.89,2.96,2.85,5.69,5.94,8.51,8.95,5.37,5.73,10.75,11.47,16.12,17.21.38.41.75.9,1.07,1.26.48.54.34,1.98-.09,2.44-.41.44-1.57.75-2.41.13-.55-.4-1.14-.93-1.68-1.45-8.39-7.88-16.79-15.74-25.15-23.65-.82-.77-1.86-1.83-1.86-3.35Z"/>
  <path d="M242.42,49.35c1.17,0,2.32,1.1,2.75,2.07.46,1.03.16,2.33-.25,2.82-.31.38-.71.84-1.12,1.22-8.59,8.07-17.17,16.14-25.79,24.19-.96.9-2,2.49-3.49,1.01-1.53-1.52-.09-2.68.93-3.77,7.93-8.47,15.84-16.94,23.8-25.39.86-.91,2.01-2.15,3.17-2.15Z"/>
  <path d="M215.74,263.05c.78.55,1.51.95,2.11,1.51,8.68,8.11,17.34,16.23,25.99,24.37,1.35,1.26,2.51,2.64,1.17,4.61-1.47,2.15-3.27,2.07-5.53-.33-5.65-5.99-11.26-12.01-16.88-18.01-2.62-2.8-5.29-5.55-7.81-8.44-.51-.59-.64-1.68-.59-2.51.03-.39,1.03-1.48,1.55-1.19Z"/>
  <path d="M.35,292.85c-.8-1.34.41-2.88,1.03-3.47,8.86-8.37,17.73-16.73,26.7-24.99.65-.6,2.49-1.18,3.13-.51.59.88-.05,2.41-.66,3.08-8.19,8.9-16.45,17.74-24.81,26.48-.81.85-2.17,1.82-3.27,1.63-.91-.16-1.49-1.38-2.11-2.22Z"/>
  <path d="M97.4,142.11c-3.07,1.1-4.68,1.71-7.78,2.93-.51.2-1.7-.76-2-1.47-.33-.79.61-1.62,1.21-1.88,2.31-.99,4.67-1.93,7.11-2.47.81-.18,2.2-.49,2.65.91.33.89-.7,1.95-1.18,1.98Z"/>
  <path d="M189.18,13.53c.81.41,1.64,1.12,1.64,2.14-.46,1.27-.72,2.17-1.1,3.01"/>
</svg>