<?xml version="1.0" encoding="UTF-8"?>
<svg id="Calque_2" xmlns="http://www.w3.org/2000/svg" viewBox="0 0 425.24 278.38">
  <g id="Calque_1-2" data-name="Calque_1">
    <g>
      <path d="M199.37,40.7c1.71-1.97,3.09-3.62,4.53-5.22,8.41-9.34,17.58-17.79,28.48-24.18,6.61-3.88,13.63-6.51,21.4-6.77,9.82-.33,18.35,3.04,25.55,9.47,10.21,9.14,15.54,20.84,16.35,34.44.24,3.99-.47,8.1-1.2,12.07-1.12,6.05-3.19,11.85-5.91,17.38-1,2.03-2.48,3.83-3.34,5.9-1.31,3.14-2.97,6.04-4.79,8.88-8.29,12.91-18.24,24.4-29.59,34.69-7.89,7.15-16.11,13.9-24.99,19.8-1.73,1.15-3.51,2.24-5.33,3.26-3.23,1.8-6.81,2.5-10.43,2.67-15.69.76-30.87-1.54-45.09-8.43-7.99-3.88-15.38-8.86-22.62-14.02-7.88-5.63-15.14-11.96-21.35-19.44-6.39-7.7-11.33-16.16-13.23-26.12-1.37-7.19-1.3-14.36.28-21.54,2.38-10.77,7.49-19.94,15.62-27.45,5.34-4.93,11.53-8.18,18.48-10.2,8.41-2.45,16.91-2.67,25.39-.92,10.41,2.16,19.91,6.6,28.54,12.82,1.03.74,1.92,1.7,3.25,2.89Z" style="fill: #cb1840;"/>
      <path d="M309.42,1.16h18.57c.81,1.1.47,2.35.47,3.51.02,13.06-.02,26.12-.01,39.19,0,17.78-.04,35.56.07,53.35.03,4.81.58,9.6,1.6,14.34.91,4.24,2.56,8.16,4.73,11.85,3.4,5.78,8.35,9.77,14.6,12.19,6.55,2.54,13.39,3.35,20.33,3.02,5.13-.25,10.24-.85,15.12-2.74,8.24-3.19,13.93-8.9,17.21-17.06,2.1-5.22,2.97-10.68,3.49-16.28.56-5.93.43-11.83.44-17.75.05-26.78.02-53.57.03-80.35,0-1.06.08-2.13.12-3.33h18.57c.72,1.34.44,2.69.44,3.96.03,23.38.04,46.76.03,70.14,0,6.37-.02,12.73-.13,19.1-.16,8.9-1.11,17.69-3.78,26.25-2.89,9.27-7.93,17.1-15.56,23.09-3.48,2.74-7.27,5.13-11.46,6.77-4.1,1.6-8.31,2.76-12.66,3.43-5.75.89-11.53,1.58-17.36,1.22-7.31-.45-14.6-1.07-21.61-3.6-6.5-2.35-12.32-5.77-17.28-10.5-4.72-4.51-8.25-9.96-10.72-16.02-2.83-6.94-4.08-14.23-4.86-21.68-.65-6.25-.53-12.48-.54-18.72-.04-26.67,0-53.35,0-80.02,0-1.07.08-2.13.14-3.37Z" style="fill: #9d9e9f;"/>
      <path d="M63.15,67.87c2.13-1.58,2.82-3.98,4.18-5.87,1.4-1.95,2.6-4.06,3.83-6.13,1.22-2.05,2.32-4.18,3.57-6.21,1.26-2.04,2.67-3.98,3.97-5.99,1.3-2.03,2.55-4.09,3.82-6.15,1.32-2.14,2.62-4.3,3.94-6.44,1.26-2.05,2.56-4.09,3.82-6.14,1.26-2.06,2.47-4.14,3.74-6.19,1.27-2.05,2.6-4.05,3.88-6.09,1.28-2.04,2.53-4.11,3.79-6.16,1.26-2.04,2.51-4.09,3.86-6.28,6.22-.25,12.35-.23,18.48-.19.61,0,1.21.26,2.03.45-.45.88-.75,1.56-1.14,2.19-6.68,10.69-13.36,21.38-20.06,32.06-9.09,14.48-18.2,28.95-27.3,43.42-1.22,1.95-2.41,3.92-3.66,5.85-.83,1.27-.9,2.65-.9,4.1,0,15.36,0,30.72,0,46.08,0,5.59,0,11.19,0,17.03-.64.27-1.29.79-1.94.79-5.59.06-11.19.04-16.79.02-.3,0-.59-.18-1.06-.34v-64.06c-3.61-5.91-7.14-11.71-10.69-17.5-3.55-5.8-7.1-11.59-10.66-17.38-3.56-5.79-7.14-11.57-10.7-17.36-3.56-5.79-7.18-11.54-10.66-17.38C7.01,12.19,3.24,6.58,0,.82.31.43.37.33.45.26c.08-.07.19-.14.28-.14,6.57,0,13.15,0,20.21,0,.48.61,1.29,1.47,1.9,2.46,6.77,11.02,13.51,22.07,20.26,33.1,6.29,10.28,12.59,20.56,18.9,30.84.27.44.68.8,1.15,1.35Z" style="fill: #cb1840;"/>
      <path d="M129.14,173.59c2.61,2.87,5.65,8.23,6.44,12.13.76,3.77,1.21,7.57,1.19,11.44-.04,6.58.12,13.17-.03,19.75-.08,3.49-.44,7-.99,10.46-.32,2.03-.91,4.32-1.74,6.51-2.44,0-49.81.14-53.98.14-1-2.87-1.49-5.88-1.76-8.93-1.03-11.5-1.3-23.01-.2-34.51.25-2.61.74-5.22,1.37-7.76,1.08-4.31,2.37-6.09,6.22-9.23h43.46ZM114.27,186.3c-.79-1.15-1.18-1.67-1.53-2.22-2.41-3.76-9.1-4.54-11.74,1.22-.99,2.16-1.32,4.4-1.34,6.71-.04,4.39-.06,8.78-.05,13.17.01,5.81.07,11.63.09,17.44.01,2.35.45,4.6,1.63,6.63,1.21,2.08,2.83,3.57,5.47,3.61,2.94.04,5.02-1.13,6.32-3.82,1.23-2.54,1.59-5.26,1.62-8,.15-11.72.64-23.45-.49-34.75Z" style="fill: #cb1840;"/>
      <path d="M197.32,234.21c-17.65,0-34.76,0-51.87-.02-.4,0-.81-.3-1.29-.49-1.81-6.25-2.3-12.68-2.42-19.14-.12-6.03-.08-12.07.09-18.1.13-4.49.75-8.95,1.92-13.32.98-3.65,3.14-6.52,5.72-9.58,14.54-.07,29.22.04,43.69-.1,3.9,3.76,5.82,7.98,5.63,13.29-.58.26-1.15.72-1.72.73-6.13.05-12.27.03-18.57.03-.28-1.03-.51-1.95-.78-2.86-.72-2.43-2.32-3.95-4.85-4.32-2.8-.41-5.31.21-6.89,2.75-.68,1.09-1.31,2.4-1.38,3.64-.19,3.48-.06,6.97-.06,10.65.7-.07,1.4.04,1.92-.22,5.63-2.79,11.66-3.18,17.67-2.34,7.16,1,12.03,5.23,14.51,12.07,1.71,4.73,1.97,9.66,1.62,14.61-.19,2.7-.73,5.4-1.31,8.06-.34,1.58-1.06,3.07-1.63,4.66ZM174.32,232.91c2.72-1.6,3.54-4.02,3.7-6.55.22-3.7.2-7.43.03-11.13-.07-1.47-.62-3.01-1.3-4.34-1.24-2.42-4.22-3.76-6.97-3.28-2.55.45-4.6,1.87-5.19,4.43-1.24,5.38-1.53,10.89,0,16.23,1.1,3.86,3.08,4.98,6.44,4.82,1.19-.06,2.39-.12,3.29-.17Z" style="fill: #cb1840;"/>
      <path d="M228.7,202.02c-.66-10.47-.29-20.35,7.3-28.17,2.43-.53,39.84-.7,43.21-.21,3.33,2.99,5.2,6.87,6.37,11.18,1.27,4.71,1.42,9.53,1.43,14.36,0,7.02-.03,14.03-.21,21.05-.12,4.72-.66,8.92-2.5,13.6-7.8.06-16.03.36-23.99.38,2.5-1.9,3.34-4.53,3.81-6.8.24-1.17.29-2.4.32-3.6.05-2.39.01-4.77.01-7.44-1.01.29-1.75.41-2.42.71-6.02,2.61-12.28,3.2-18.66,1.91-5.47-1.1-9.54-4.2-12.06-9.24-.38-.76-1.99-3.14-2.6-7.72ZM254.72,181.12c-2.15,1.38-3.23,3.26-3.63,5.68-.67,4.03-.68,8.06-.2,12.08.17,1.39.5,2.83,1.1,4.08,2.04,4.24,8.04,4.96,10.91,1.22.93-1.21,1.55-2.93,1.64-4.46.24-3.69.22-7.41.05-11.11-.22-5.02-3.28-9.03-9.88-7.5Z" style="fill: #cb1840;"/>
      <path d="M404.08,232.86c.31-8.65.62-16.94.92-25.23-1.6,5.04-6.57,22.15-7.35,24.99-4.23,0-16.53.07-21.25.07-2.24-8.7-4.52-17.52-6.79-26.34,0,8.92.12,17.33.12,26.08-3.37,0-10.62.32-15.23.32-.07-.08-.15-.16-.21-.25-.06-.09-.14-.19-.14-.28-.03-13.39.18-41.87.28-42.06,2.78,0,17.89-.32,23.5-.32,1.85,5.88,8.07,31.57,8.95,36.14,1.35-3.17,8.41-33.01,9.19-35.88,2.92,0,19.24-.21,23.57-.21,0,3.81.08,40.52.08,42.96h-15.63Z" style="fill: #9d9e9f;"/>
      <path d="M30.17,180.35c8-.7,16.04-.74,22.32-6.5,3.03,0,16.07-.05,18.62-.05,0,2.75.1,55.93.1,60.01-2.64,0-16.28.23-21.41.23,0-5.87-.37-35.56-.37-42.07-3.3,0-15.89-.03-19.2-.03,0-2.95-.04-8.39-.04-11.58Z" style="fill: #cb1840;"/>
      <path d="M424.06,163.95v11.05c-.21.25-.26.35-.35.41-.09.06-.2.1-.31.1-37.41.04-74.81.07-112.22.09-.65,0-1.3-.07-2.05-.12-.81-1.92-.37-9.55-.37-11.36.14-.13.21-.21.3-.28.08-.07.18-.17.27-.17,37.95-.05,75.9-.09,113.85-.11.2,0,.39.17.89.39Z" style="fill: #cb1840;"/>
      <path d="M327.86,209.5h18c0,1.78-.01,5.76-.01,11.08-.66.09-16.84-.09-18.2-.03-.05,4.19-.1,8.2-.15,12.4h-15.05c-.2-.2-.28-.27-.36-.35-.07-.08-.19-.17-.19-.25-.03-13.82-.06-27.65-.06-41.47,0-.3.19-.6.28-.87,2.39,0,31.91-.15,35.46-.15,0,2.15.12,7.16.12,10.43h-19.98c-.18,3.11-.31,6.03.14,9.22Z" style="fill: #9d9e9f;"/>
      <path d="M317.72,253.52c-1.59-2.51-3.71-2.51-5.8-2.16-2.26.38-4.46,1.07-6.63,2.75v15.98h-4.1c-.65-2.18-.82-17.43-.23-21.75.45-.07.96-.19,1.47-.21.54-.02,1.09.07,1.76.11.68.58,1.41,1.2,2.16,1.84.34-.12.7-.15.94-.34,2.66-2.16,5.77-2.49,9.01-2.22,1.69.14,3.17.85,4.35,2.07.45.46.71,1.1.97,1.51,2.48-1.18,4.39-2.26,6.41-3.02,2.75-1.05,5.61-.97,8.36.02,2.45.89,4.2,2.73,4.31,5.32.22,5.46.07,10.93.07,16.47-1.49.58-2.83.59-4.28-.14-.85-5.6.7-11.37-1.07-17.01-4.29-3.16-8.09-.86-12.2.99-.32,5.3.04,10.66-.21,16.02-1.38.91-2.75.53-4.3.32-.9-5.66.72-11.44-1-16.54Z" style="fill: #9d9e9f;"/>
      <path d="M373.5,269.04c-1.71,1.16-3.34,1.53-5.06.92-.55-2.46-.67-27-.15-30.34h4.27c.8,3.19.02,6.5.54,9.92.77-.21,1.42-.27,1.94-.56,2.38-1.32,4.94-1.71,7.6-1.68,4.44.05,7.47,2.26,9.07,6.31,1.24,3.15,1.28,6.46.06,9.63-1.75,4.56-5.31,6.8-10.07,7.2-2.75.23-5.46,0-8.2-1.39ZM373.31,253.43c-.64,3.48-.52,10.04.22,12.53,2.58,1.22,5.39,1.45,8.2.96,2.09-.37,3.93-1.42,4.87-3.48,1.56-3.4,1.51-6.75-.58-9.95-.82-1.25-1.96-1.97-3.48-2.17-3.39-.44-6.45.39-9.23,2.11Z" style="fill: #cb1840;"/>
      <path d="M46.98,248.06c2.1.11,3.47.18,4.9.25.87,2.8,1.59,5.43,2.52,7.99.91,2.5,1.17,5.26,2.9,7.77,2.27-5.47,4.39-10.6,6.54-15.78h3.85c2.26,5.25,4.48,10.42,6.96,16.19,1.76-5.79,3.33-10.93,4.91-16.11h4.64c-1.06,3.83-2.44,7.24-3.58,10.72-1.12,3.44-2.23,6.87-3.45,10.62-1.22.16-2.58.33-3.8.49-1.52-1.46-2.06-3.11-2.7-4.72-1.26-3.15-2.56-6.29-3.92-9.41-.27-.61-.84-1.09-1.52-1.94-2.25,5.45-4.32,10.47-6.47,15.69-1.33.12-2.69.25-4.2.39-.54-1.22-1.05-2.18-1.39-3.19-2.02-6.1-3.99-12.22-6.19-18.96Z" style="fill: #cb1840;"/>
      <path d="M100.24,269.99h-4.44c-2.37-7.16-4.7-14.19-7.07-21.35,1.58-.92,3.05-.34,4.73-.27,1.7,5.08,3.21,10.18,4.7,15.4,1.21-.27,1.35-1.21,1.67-1.96,1.67-4.06,3.31-8.13,4.97-12.18.16-.4.41-.76.69-1.28h3.78c2.22,5.12,4.46,10.29,6.93,15.99,1.27-2.09,1.35-3.95,1.88-5.64.52-1.66.91-3.35,1.39-5.02.51-1.76,1.05-3.51,1.6-5.34h4.66c-.89,3.94-2.48,7.42-3.55,11.05-1.04,3.55-2.36,7.01-3.59,10.62h-4.19c-.38-.74-.76-1.38-1.05-2.07-1.7-4.04-3.35-8.1-5.07-12.14-.22-.51-.71-.91-1.35-1.71-2.32,5.5-4.47,10.6-6.7,15.9Z" style="fill: #cb1840;"/>
      <path d="M160.03,269.6q-2.32.67-4.69.03c-2.48-5.07-4.19-10.6-7.09-16.12-2.35,5.66-4.5,10.87-6.64,16.03q-2.25.74-4.79.09c-2.25-6.84-4.57-13.87-6.92-21.01,1.71-.81,3.17-.46,4.86-.16.76,2.56,1.41,5.19,2.34,7.72.89,2.43,1.03,5.14,2.79,7.65,1.72-2.53,2.35-5.28,3.52-7.76,1.16-2.46,2.09-5.03,3.06-7.42q2.08-.63,4.17-.01c1.05,2.49,2.05,5.14,3.28,7.69,1.21,2.5,1.78,5.33,3.77,7.89,1.57-5.44,3.04-10.55,4.56-15.83h4.51c-1.95,7.37-4.72,14.22-6.72,21.22Z" style="fill: #cb1840;"/>
      <path d="M421.78,264.71c.42,1.54.64,2.78-.21,4.2-5.55,1.62-11.21,2.46-16.97.49-4.11-1.41-6.68-4.29-7.18-8.58-.49-4.22.7-7.7,4.38-10.56,4.09-3.18,8.48-3.3,13.07-2.64,4.37.63,7.36,4.24,7.67,8.65.07.96.01,1.94.01,3.1-6.71.37-13.25-.14-19.96.17-.1,2.74.97,4.61,3.04,5.94,1.7,1.09,3.59,1.57,5.62,1.63,3.18.09,5.79-.46,10.53-2.39ZM417.7,256.04c-.35-3.38-1.59-4.97-4.53-5.31-1.82-.21-3.71-.2-5.52.05-2.94.41-4.81,2.69-4.79,5.45,3.91.44,12.69.32,14.85-.2Z" style="fill: #cb1840;"/>
      <path d="M230.82,270.38c-3.09.29-5.79-.28-8.25-2.01-3.93-2.76-5.3-6.61-4.58-11.17.82-5.23,4.91-9.06,10.21-9.65,2.71-.3,5.46-.3,8.1.73,3.7,1.44,7.31,4.68,7.11,9.98-.02.44-.03.88,0,1.31.46,6.18-5.08,10.49-10.12,10.79-.87.05-1.75,0-2.47,0ZM222.92,258.97c.02,4.33,1.83,7.21,5.44,7.93,1.76.35,3.7.15,5.5-.14,1.82-.3,3.09-1.61,3.87-3.28,1.15-2.48,1.44-5.04.49-7.66-.79-2.17-2.25-3.72-4.42-4.56-4.61-1.77-11.33.45-10.88,7.71Z" style="fill: #9d9e9f;"/>
      <path d="M187.36,248.1c2.01.11,3.4.18,4.84.26,3.12,5.12,5.55,10.47,8.68,16.04,2.94-5.62,5.62-10.73,8.33-15.91,1.48-.29,2.93-.61,4.38.12-.81,3.05-9.46,19.41-15.54,29.46-1.37.36-2.83.5-4.63-.08,1.6-3.01,3.11-5.86,4.63-8.72-3.31-7.03-7.38-13.53-10.7-21.16Z" style="fill: #9d9e9f;"/>
      <path d="M273.3,248.62c.48,2.25.59,17.76.13,21.26-1.07.75-2.25.4-3.55.29-.49-.62-1-1.27-1.52-1.92-.41.1-.78.09-1.02.26-3.09,2.18-6.61,2.1-10.12,1.84-3.21-.23-6.36-2.99-6.47-5.99-.19-5.23-.05-10.48-.05-15.77,1.51-.66,2.84-.49,4.32-.07.85,5.36-.66,10.79,1.04,16.13.69.58,1.43,1.21,2.11,1.79,3.94.54,7.51.17,10.84-2.53v-15.2q2.14-.58,4.29-.11Z" style="fill: #9d9e9f;"/>
      <path d="M287.42,270.1h-4.41c-.16-6.01-.32-11.87-.48-17.81-1.04-.31-1.84-.55-2.8-.84v-2.65c.95-.34,1.85-.65,2.68-.95.17-.44.37-.74.39-1.05.24-4.03,2.69-6.14,6.35-6.93,2.55-.55,5.18-.54,7.99.16.11,1,.22,1.93.34,2.93-3.13.86-6.41-.84-9.11,1.36-.83,1.1-1.14,2.28-.54,3.88,2.49.06,4.97.13,7.27.19,1.02,1.04.93,1.95.42,3.05-2.42.9-5.11-.13-7.93.64-.22,5.89.03,11.79-.16,18.01Z" style="fill: #9d9e9f;"/>
      <path d="M254.72,234.18h-23.55c-.97-2.48-1.59-4.83-1.25-7.33,2.41,0,16.23-.21,20.54-.21.87,2.64,1.16,5.78,4.26,7.53Z" style="fill: #cb1840;"/>
      <path d="M219.13,225.98c.63.04,1.26.07,2.13.13.23,3.72.85,7.22-1.8,10.38-1.82,2.18-3.29,4.65-4.91,6.98-1.14.59-2.27.82-3.55.25-.11-1.94,3.56-7.51,4.43-9.16-1.86-.19-3.32-.35-4.65-.49.13-2.45.2-4.59.4-6.73.04-.43.54-.83.83-1.24,2.38-.04,4.75-.08,7.13-.12Z" style="fill: #cb1840;"/>
      <path d="M357.21,264.28v5.42c-1.87.85-3.71.27-5.62.49-.64-2.06-.9-3.92-.13-5.92h5.74Z" style="fill: #cb1840;"/>
      <path d="M179.21,264.31c.25.46.67.9.71,1.37.1,1.29.03,2.59.03,3.66-1.08,1.08-2.09.54-3.03.59-.95.05-1.9.15-3.04.24-.06-1.69-.18-3.21-.12-4.72.02-.43.56-.83.86-1.25,1.53.03,3.06.06,4.59.1Z" style="fill: #cb1840;"/>
    </g>
  </g>
</svg>