<?xml version="1.0" encoding="UTF-8"?>
<svg id="Calque_2" xmlns="http://www.w3.org/2000/svg" viewBox="0 0 415.52 671.1">
  <g id="Calque_1-2" data-name="Calque_1">
    <g>
      <path d="M324.86,671.1c-.23-.14-.45-.35-.69-.4-10.16-2.04-14.31-9.49-14.73-16.96-.68-11.93-.46-23.91-.52-35.87,0-.55.96-1.58,1.48-1.59,5.74-.12,11.48-.07,17.63-.07,0,1.19,0,2.13,0,3.08,0,9.18,0,18.36,0,27.53,0,5.46,2.92,8.57,8.08,8.64,5.2.06,8.61-3.14,8.7-8.53.12-8.19.04-16.38.04-24.56,0-1.96,0-3.91,0-6.01h18.67v52.96h-14.8v-9.85c-2.54,6.4-7.42,9.76-13.61,11.63h-10.25Z"/>
      <path d="M97.66,671.1c-2.09-.38-4.2-.67-6.25-1.17-9.21-2.23-14.07-9.06-13.16-18.44.52-5.37,3.71-8.83,8.29-11.13,5.25-2.64,10.94-3.34,16.73-3.39,3.39-.03,6.78,0,10.16,0,.12-4.63-2.1-6.91-6.85-6.88-6.46.04-12.92.35-19.38.53-.87.03-1.75,0-2.79,0v-14.61c3.99-.19,8.07-.63,12.13-.52,6.52.19,13.18.01,19.52,1.3,10.56,2.15,15.93,9.57,15.97,20.33.03,9.89,0,19.78,0,29.67,0,.79-.08,1.58-.13,2.51h-15.16v-7.41c-3.89,6.63-10.2,8.28-16.91,9.2h-2.16ZM113.63,646.25c-3.77,0-7.27-.16-10.75.05-3.27.2-5.51,2.46-5.82,5.36-.36,3.33,1.16,5.94,4.44,6.73,6.06,1.45,11.31-.21,12.12-7.51.16-1.41.02-2.84.02-4.63Z"/>
      <path d="M263.34,671.1c-2.09-.38-4.2-.67-6.26-1.17-9.22-2.24-14.06-9.04-13.14-18.47.57-5.84,4.24-9.34,9.28-11.59,5.09-2.27,10.52-2.9,16.04-2.91,3.29,0,6.59,0,9.87,0-.02-4.73-2.2-6.92-6.96-6.88-6.47.05-12.93.36-19.39.55-.87.03-1.73,0-2.74,0v-14.63c4.09-.19,8.18-.64,12.25-.52,6.44.18,13,.05,19.27,1.28,9.9,1.95,15.3,7.98,15.86,18.08.63,11.37.15,22.81.15,34.42h-15.12v-7.3c-3.16,4.45-7.11,7.27-12.26,8.33-1.56.32-3.14.54-4.71.8h-2.16ZM279.59,646.23c-4.02,0-7.44-.14-10.84.05-2.67.15-4.89,1.43-5.75,4.15-.75,2.35-.47,4.62,1.45,6.46,4.27,4.09,12.87,1.96,14.39-3.69.57-2.11.49-4.39.75-6.96Z"/>
      <path d="M415.52,563.12c-.95.16-1.9.45-2.85.45-8.09.04-16.18.02-24.27.02-.97,0-1.94,0-2.89,0-.5,5.57,2.7,10.61,7.56,12.2,5.78,1.89,11.71-.03,14.52-4.54.45-.72,1.56-1.27,2.44-1.42,1.37-.24,2.82-.06,4.23-.06-.1,5.35-4.84,10.72-10.88,12.1-15.12,3.45-24.97-5.32-25.07-19.18-.06-7.63,1.98-14.31,8.91-18.45,11.68-6.97,25.47-.53,27.81,12.83.07.41.33.79.5,1.19v4.86ZM385.72,558.01h22.31c-.49-6.31-4.69-10.06-10.97-10.07-6.34,0-10.84,4.01-11.34,10.07Z"/>
      <path d="M222.15,509.79c-4.87-.67-9.41-1.07-13.87-1.93-32.14-6.22-60.54-19.99-84.48-42.51-21.13-19.88-35.53-44.06-45.01-71.32-7.18-20.64-11.37-41.91-12.95-63.67-.79-10.93-1.38-21.9-1.4-32.85-.12-69.47-.06-138.93-.06-208.4,0-13.93-1.34-27.64-6.8-40.65-7.25-17.27-20.07-29.13-36.71-37.03-5.81-2.76-11.95-4.89-18.07-6.89C.38,3.76-.49,2.82.26.05c.81,0,1.75,0,2.7,0,40.02,0,80.05-.15,120.07.07,17.64.09,35.11,1.92,51.94,7.87,23.54,8.33,37.55,24.9,43,49.06,2.84,12.6,3.91,25.4,3.92,38.27.12,137.04.19,274.07.27,411.11,0,.97,0,1.94,0,3.37ZM126.98,48.31c0-8.66-6.69-15.44-15.27-15.46-8.66-.02-15.75,7.01-15.67,15.52.08,8.38,7.19,15.39,15.6,15.38,8.54-.02,15.34-6.86,15.35-15.45Z"/>
      <path d="M414.96,510.23c-8.3-1.53-16.13-2.58-23.76-4.45-34.74-8.52-64.25-25.88-87.78-53-17.85-20.56-29.65-44.39-37.34-70.36-5.83-19.71-9.48-39.87-10.26-60.39-.82-21.64-.73-43.32-1.02-64.99,0-.25.13-.5.29-1.14,4.41.4,8.85.65,13.26,1.22,22.82,2.92,44.9,8.59,65.84,18.27,22.38,10.34,41.81,24.49,56.46,44.63,12.51,17.2,19.95,36.48,22.6,57.51,1.11,8.8,1.58,17.73,1.63,26.6.18,34,.07,68.01.07,102.02v4.09Z"/>
      <path d="M.64,599.31h19.19v26.85c1.94,0,3.62,0,5.3,0,6.93,0,13.85-.07,20.77.04,2.04.03,2.6-.6,2.58-2.61-.1-8-.04-16-.04-24.21h19.31v69.93h-19.23v-27.26h-28.57v27.25H.64v-69.99Z"/>
      <path d="M199.05,669.39h-19c-.06-.82-.17-1.59-.17-2.36-.01-16.01.04-32.03-.06-48.04-.01-2.3.72-2.92,2.91-2.84,3.93.16,7.87.04,12.03.04v11.22c.14.04.29.08.43.12.23-.41.54-.79.69-1.23,2.79-7.67,8.57-11.32,16.42-11.76,3.01-.17,6.16.05,9.07.78,9.05,2.27,13.17,9.12,13.61,17.66.62,12.01.16,24.07.16,36.28h-18.74c0-.98,0-1.93,0-2.89,0-9.27.03-18.53-.01-27.8-.02-3.84-2.16-6.84-5.42-7.88-3.97-1.27-8.37-.18-10.4,2.97-.91,1.42-1.44,3.32-1.46,5.02-.14,9.17-.07,18.35-.07,27.53,0,.97,0,1.94,0,3.15Z"/>
      <path d="M379.41,629.12h-8.05v-12.77h8.01v-13.76h17.69v13.6h15.55v12.9h-15.43c0,7.25-.19,14.23.09,21.18.13,3.13,3.26,5.08,7.17,5.19,2.6.08,5.21.08,7.81.12.07,0,.14.1.36.26v13.99c-.54.1-1.13.32-1.7.3-5.02-.15-10.1.1-15.05-.62-11.2-1.63-16.09-7.39-16.4-18.72-.16-6.11-.04-12.23-.05-18.34,0-.98,0-1.96,0-3.32Z"/>
      <path d="M147.2,629.11h-7.15v-12.66h25.99v52.86h-18.84v-40.2Z"/>
      <path d="M361,547.53v-18.2h6.96v51.87h-5.29v-6.23c-2.56,3.29-5.46,5.68-9.28,6.87-11.36,3.56-23.33-4.68-24.14-16.68-.31-4.61,0-9.11,2.14-13.4,6.2-12.42,22.75-12.73,28.93-4.47.08.1.29.11.67.23ZM361.57,561.81c-.01-10.1-7.8-16.19-16.9-13.22-6.34,2.07-9.72,9.34-8.08,17.37,1.57,7.66,8.07,11.87,15.61,10.1,5.97-1.4,9.38-6.58,9.37-14.26Z"/>
      <path d="M7.57,563.07v18.1H.31c-.05-.87-.14-1.74-.14-2.61,0-15.63.05-31.27-.06-46.9-.02-2.44.72-3.07,3.05-2.97,5.91.26,11.87-.06,17.74.5,10.16.97,15.26,7.57,14.82,18.41-.36,8.86-6.74,15.04-16.14,15.44-3.92.17-7.86.03-12.01.03ZM7.6,556.82c1.2,0,2.09,0,2.98,0,2.87-.02,5.75.07,8.61-.11,5.3-.33,8.88-4.31,9.26-10.06.37-5.52-2.66-10.29-7.68-11.06-4.28-.66-8.68-.53-13.17-.76v21.99Z"/>
      <path d="M276.39,563.59c-.34,5.85,2.76,10.68,7.68,12.22,5.27,1.65,12.33.19,14.55-4.89.22-.51,1-1.04,1.57-1.09,1.67-.14,3.35-.05,5.35-.05-1.04,5.29-3.71,9.01-8.24,10.95-12.18,5.23-27.63.07-28.03-17.49-.16-6.98,1.31-13.33,7.08-17.78,6.01-4.63,12.87-4.92,19.65-2.15,6.3,2.57,9.26,7.92,10.02,14.54.2,1.76.25,3.54.4,5.74h-30.03ZM298.95,558.18c-.27-6.03-4.34-9.99-10.23-10.21-6.78-.26-11.27,3.49-12.17,10.21h22.4Z"/>
      <path d="M91.45,582.54c-12.04,0-20.65-8.53-20.59-20.41.05-11.7,8.75-20.36,20.49-20.43,11.86-.06,20.64,8.61,20.71,20.46.07,11.91-8.5,20.38-20.61,20.38ZM104.85,562.21c0-8.33-5.46-14.16-13.3-14.2-7.88-.03-13.43,5.74-13.49,14.04-.06,8.55,5.32,14.23,13.46,14.2,8.04-.03,13.32-5.59,13.33-14.04Z"/>
      <path d="M190.31,581.28h-7.02v-38.02h5.49v6.35c1.96-3.03,4.03-5.95,7.49-6.69,3.26-.7,6.81-1,10.07-.48,5.69.9,9.4,5.41,9.8,12.56.5,8.68.12,17.4.12,26.26h-6.82c0-1.04,0-1.99,0-2.95,0-6.66.03-13.32,0-19.97-.04-6.32-3.38-9.85-9.24-9.86-6.08,0-9.81,3.7-9.87,9.95-.06,6.57-.02,13.14-.02,19.7,0,.97,0,1.94,0,3.15Z"/>
      <path d="M262.23,556.32h-6.11c-3.27-7.12-7.06-9.29-13.81-7.91-5.12,1.05-8.57,5.07-9.11,11.26-.23,2.63-.04,5.44.64,7.99,2.13,7.91,11.42,11.4,18.09,6.71,2.06-1.45,3.35-3.98,5.45-6.58h5.38c.3,3.68-1.06,6.71-3.49,9.2-5.94,6.09-13.27,6.9-20.91,4.5-7.59-2.38-11.19-8.44-12.16-15.98-.92-7.16.49-13.78,6.01-19,7.34-6.93,21.26-6.34,27.07,1.39,1.69,2.26,2.54,5.15,3.78,7.75-.28.23-.56.45-.83.68Z"/>
      <path d="M135.82,575.75c.29-.78.63-1.55.86-2.36,2.63-8.95,5.38-17.86,7.78-26.87.74-2.76,1.8-4.03,4.68-3.52.94.17,1.94.03,3.3.03-1.22,4.13-2.35,7.89-3.45,11.66-2.4,8.17-4.83,16.34-7.17,24.53-.46,1.61-1.15,2.36-2.96,2.24-3.04-.2-6.86.96-8.94-.49-2.05-1.43-2.4-5.36-3.39-8.23-3.34-9.74-6.64-19.5-10.1-29.69,2.3,0,4.35-.19,6.32.1.7.11,1.49,1.32,1.79,2.18,3.13,9.17,6.16,18.37,9.23,27.55.33.97.74,1.92,1.11,2.87.31,0,.62,0,.94,0Z"/>
      <path d="M45.16,543.17h5.46v7.93c3.01-6.89,8.56-8.64,15.46-8.47v6.38c-1.13,0-2.18-.02-3.23,0-6.51.13-10.57,4.13-10.67,10.68-.09,6.12-.02,12.24-.02,18.36,0,.98,0,1.95,0,3.14h-7v-38.02Z"/>
      <path d="M155.04,613.26c-6.45.01-10.21-3.48-10.25-9.52-.04-5.97,3.81-9.65,10.12-9.68,6.32-.02,10.06,3.59,10.03,9.69-.03,6.04-3.63,9.49-9.9,9.5Z"/>
      <path d="M163.1,548.69h-5.68v-5.43h12.44v37.95h-6.76v-32.53Z"/>
      <path d="M169.73,532.68c.04,2.58-1.71,4.36-4.39,4.46-2.92.1-4.92-1.74-4.89-4.5.03-2.6,1.72-4.16,4.53-4.19,2.97-.03,4.72,1.52,4.76,4.23Z"/>
    </g>
  </g>
</svg>