<?xml version="1.0" encoding="UTF-8"?>
<svg id="Calque_2" xmlns="http://www.w3.org/2000/svg" viewBox="0 0 442.7 421.28">
  <g id="Calque_1-2" data-name="Calque_1">
    <g>
      <path d="M260.57,267.09v-44.84c.44.04.86-.04,1.11.13,16.73,11.44,34.32,11.28,51.72,2.51,17.02-8.59,25.31-23.22,24.14-42.3-1.08-17.66-10.99-29.64-26.63-37.21-9.2-4.45-19.11-5.41-29.1-6.04-6.95-.44-13.9-.92-21.05-1.39v-21c3.67-.22,7.35-.55,11.03-.65,10.89-.31,21.3-2.76,30.41-8.7,3.69-2.41,6.83-6.42,8.93-10.39,5.84-11.03,7.27-23.13,7.16-35.49-.02-2.08.98-4.17,1.5-6.26h7.83c11.99,7.24,15.78,18.84,15.1,32.38-.42,8.38-2.52,16.49-5.82,24.22-1.43,3.36-3.47,6.45-4.97,9.79-.65,1.44-.63,3.18-.89,4.67,15.67,4.39,28.48,12.27,38.92,23.76,19.04,20.96,21.93,44.72,11.55,70.53-3.77,9.38-9.51,17.55-16.73,24.57-16.72,16.25-36.75,25.53-59.92,28.25-10.43,1.23-20.7.4-30.84-1.79-4.56-.98-8.87-3.09-13.46-4.75Z" style="fill: #233970;"/>
      <path d="M136.65,163.22c1.04-1.66,1.63-2.6,2.41-3.84,1.01-.56,2.29-1.27,3.23-1.79,4.45.61,5.81,4.12,7.75,6.76,5.99,8.15,11.77,16.46,17.57,24.75,1.1,1.58,1.65,3.62,4.59,4.24.73-2.51,1.77-4.97,2.12-7.52.4-2.95.12-5.98.27-8.97.47-9.46.64-18.95,1.62-28.35.8-7.73,2.37-15.41,4.01-23.03,1.82-8.46,3.84-16.89,6.25-25.2,3.04-10.51,7.77-20.32,12.88-30,5.94-11.22,13.93-20.72,23.3-29.04,5.47-4.85,12.05-8.18,18.59-11.59,6.12-3.19,12.54-5.25,19.09-6.76,9.13-2.11,18.56-2.88,27.88-1.58,6.92.97,13.56,3.53,19.1,7.97,3.2,2.56,4.47,7.6,2.8,11.88-.4,1.03-.88,2.03-1.46,3.35-2.79,2.08-6.23,2.95-10.01,3.57-5.46.89-10.88,2.34-16.14,4.09-7.77,2.59-15.27,5.73-22.22,10.31-6.31,4.17-12.06,8.88-17.07,14.44-3.43,3.8-6.44,7.99-9.52,12.09-6.54,8.69-10.48,18.7-14.31,28.73-4.24,11.11-6.55,22.77-8.93,34.38-1.02,4.97-1.14,10.11-1.81,15.15-.76,5.77-1.71,11.52-2.51,17.29-.22,1.6-.2,3.23-.29,4.85-.53,10.06-2.29,19.89-6.1,29.25-2.33,5.73-5.32,11.14-11.31,13.92-3.55,1.65-6.98,2.52-11.3,1.63-13.23-2.73-20.1-11.81-25.17-23.1-1.75-3.89-3.48-7.8-4.98-11.79-1.54-4.1-2.85-8.28-4.15-12.46-1.18-3.77-2.3-7.56-3.29-11.38-1.1-4.25-2.02-8.54-2.89-12.26Z" style="fill: #f6ba17;"/>
      <path d="M136.52,273.86c-3.18-.2-5.89-2.01-8.27-4.16-4.72-4.25-9.22-8.74-13.84-13.1-1.12-1.05-2.35-1.99-2.87-2.43-1.76-2.42-2.95-4.28-4.36-5.97-14.67-17.59-27.24-36.56-37.11-57.25-6.79-14.23-12.19-28.91-13.63-44.8-1.73-19.06,1.66-37.24,9.1-54.77,4.69-11.04,10.93-21.21,17.29-31.34,4.95-7.9,9.99-15.82,14.07-24.18,3.83-7.84,2.5-11.66-3.8-17.58-7.44-6.99-6.24-13.23,3.3-16.87,5.9-2.25,11.78-1.64,17.55.57,6.05,2.32,11.07,6.15,15.57,10.76,4.05,4.15,5.01,9.59,5.67,14.84.51,3.99-.48,8.2-1,12.29-2.03,16.1-10.52,29.32-19.16,42.45-6.94,10.55-13.25,21.42-17.12,33.51-6.72,21-5.1,41.67,3.43,61.75,5.4,12.71,11.56,25.1,17.38,37.63,6.66,14.35,13.69,28.55,18.32,43.73,1.01,3.31,1.54,6.78,2.02,10.21.26,1.87-.03,3.81-2.54,4.69Z" style="fill: #dd1f28;"/>
      <path d="M340.64,354.07c-.01-17.79,15.72-29.01,32.35-22.93,8.32,3.04,12.95,9.31,14.61,17.91,2.17,11.26-2.6,22.47-12.06,27.02-15.83,7.6-35.09-1.47-34.9-22ZM379.98,354.61c.19-8.12-4-14.74-10.59-16.73-11.54-3.48-21.64,4.83-20.86,17.15.71,11.29,8.09,17.45,18.93,15.82,7.42-1.12,12.31-7.47,12.52-16.24Z" style="fill: #1c1f23;"/>
      <path d="M411.05,342.88v34.72h-7.09v-46.89h7.02c7.66,11.19,15.5,22.65,23.39,34.17v-34.21h7.38v46.93h-6.99c-7.7-11.28-15.6-22.85-23.7-34.71Z" style="fill: #1c1f23;"/>
      <path d="M86.31,377.61v-47.15c7.36.22,14.59-.87,21.59,1.44,11.11,3.67,17.19,13.44,15.97,24.88-1.23,11.58-10.2,20.18-21.39,20.78-5.32.28-10.66.05-16.17.05ZM94.19,370.66c2.2,0,4.3.13,6.37-.02,8.51-.65,14.75-6.5,15.47-14.4.81-8.92-3.82-15.98-12.18-17.89-3.06-.7-6.33-.47-9.66-.67v32.99Z" style="fill: #1c1f23;"/>
      <path d="M199.94,331.05c11.23,1.07,13.23,13.13,9.23,19.74-2.25,3.73-5.58,5.5-9.91,5.11,4.8,7.14,9.55,14.2,14.56,21.65h-8.78c-4.47-6.81-9.04-13.77-13.61-20.73-.35-.62-.71-1.25-1.47-2.6v23.14c-2.16.12-4.12.23-6.08.33-.25-.43-.49-.85-.74-1.28,0-7.22-.02-14.45-.03-21.67,0-4.02.02-8.04.02-12.06.02-3.8.04-7.61.06-11.41.37-.27.75-.77,1.12-.77,4.79.06,9.58.2,14.37.31l1.24.23ZM190.54,350.59c2.39,0,4.61.08,6.82-.02,4.19-.18,6.17-2.2,6.3-6.24.14-4.37-1.66-6.68-5.85-7.08-2.44-.23-4.93-.04-7.27-.04v13.37Z" style="fill: #1c1f23;"/>
      <path d="M147.41,337.83v12.42h16.99v7.13h-16.96v13.2h19.41c-.33,2.47-.62,4.67-.93,7.04h-26.1v-46.97h26.12c.31,2.34.61,4.54.96,7.17h-19.48Z" style="fill: #1c1f23;"/>
      <path d="M50.5,337.78v12.41h16.98v7.15h-16.99v13.16h19.34c-.22,2.47-.42,4.64-.64,7.05h-26.55v-46.79h26.5c.25,2.28.49,4.48.78,7.02h-19.42Z" style="fill: #1c1f23;"/>
      <path d="M249.56,330.63c5.74,15.77,11.34,31.17,17.06,46.89h-7.88c-1.62-4.52-3.23-9.05-4.88-13.65h-15.42c-1.67,4.56-3.37,9.19-5.08,13.85h-7.84c5.76-15.85,11.41-31.41,17.1-47.09h6.93ZM251.67,356.56c-1.92-5.66-3.73-10.96-5.6-16.46-1.93,5.68-3.73,10.99-5.58,16.46h11.18Z" style="fill: #1c1f23;"/>
      <path d="M.72,330.66h26.51c.41,2.23.83,4.52,1.31,7.14H8.57v12.33h16.96v7.17H8.64v20.22H.72v-46.85Z" style="fill: #1c1f23;"/>
      <path d="M291.26,377.64h-7.57v-39.99h-11.31c.34-2.41.64-4.6.97-6.98h27.98c.36,2.21.72,4.47,1.14,7.05h-11.22v39.92Z" style="fill: #1c1f23;"/>
      <path d="M15.55,398.66c1.8,5.27,3.3,9.67,4.8,14.07.25.04.51.08.76.12,1.76-5.94,3.52-11.89,5.32-17.94h4.6c-2.64,8.69-5.21,17.16-7.83,25.83-1.31.07-2.5.13-3.86.2-1.21-3.63-2.36-7.1-3.82-11.49-1.42,4.28-2.56,7.72-3.75,11.29h-3.94c-2.58-8.53-5.15-17.03-7.81-25.82h4.62c1.75,5.98,3.5,11.99,5.25,18,.21.03.43.06.64.09,1.59-4.52,3.17-9.04,5.04-14.36Z" style="fill: #1c1f23;"/>
      <path d="M324.12,330.62v46.97h-7.37v-46.97h7.37Z" style="fill: #1c1f23;"/>
      <path d="M132.43,407.93c-.05,8.08-5.38,13.45-13.25,13.33-7.57-.11-12.99-5.76-12.9-13.44.1-8.01,5.6-13.7,13.19-13.64,7.74.06,13.01,5.65,12.96,13.75ZM127.94,408.12c.09-5.72-3.04-9.47-8.03-9.61-5.43-.16-9.06,3.38-9.2,8.95-.14,5.52,3.51,9.66,8.55,9.71,5.11.05,8.59-3.58,8.68-9.05Z" style="fill: #1c1f23;"/>
      <path d="M145.46,403.29v17.45h-3.9v-25.83h3.87c3.95,5.73,7.94,11.52,11.93,17.31.23-.05.45-.1.68-.15v-17.06c1.57-.12,2.73-.21,4.16-.32v26.02h-3.72c-4.09-5.94-8.22-11.92-12.34-17.91-.22.16-.44.32-.66.48Z" style="fill: #1c1f23;"/>
      <path d="M296.34,394.88h3.98c0,6.22.3,12.3-.1,18.35-.3,4.63-4.15,7.68-8.88,8-5.35.36-9.39-2.12-10.8-6.67-.29-.94-.52-1.95-.53-2.92-.05-5.47-.02-10.94-.02-16.64h4.39c0,4.36-.02,8.68.01,13.01.01,1.62-.04,3.27.27,4.84.56,2.84,2.68,4.36,5.67,4.39,2.91.02,4.73-1.21,5.41-4.11.45-1.91.54-3.93.58-5.9.08-3.98.02-7.96.02-12.33Z" style="fill: #1c1f23;"/>
      <path d="M255.71,394.76c2.43,0,4.55-.02,6.66,0,5.03.06,7.79,1.87,8.56,5.58.85,4.11-1.03,6.97-5.92,8.92,2.47,3.72,4.93,7.43,7.62,11.48h-4.76c-2.38-3.47-4.9-7.15-7.96-11.62v11.59h-4.21v-25.96ZM259.97,398.7v7.42c2.25-.34,4.24-.65,5.85-.9,1.74-2.74,1.6-4.71-.78-6.52h-5.07Z" style="fill: #1c1f23;"/>
      <path d="M242.79,406.81c3.45,2.84,4.62,5.8,3.33,9.03-1.42,3.58-4.47,4.86-8.05,5.04-2.6.13-5.21.03-8.07.03v-26.14c2.53,0,5.11-.07,7.68.02,3.11.11,5.92.78,7.28,4.12,1.33,3.24.27,5.75-2.18,7.9ZM233.91,409.08v8.01c2.98-.15,6.14.91,7.94-2.08.61-1.02.53-3.05-.09-4.11-1.86-3.15-5.02-1.58-7.85-1.82ZM239.88,398.67h-5.93v6.76c2.23-.11,4.18-.21,5.88-.3,2.11-2.21,2.18-4.14.05-6.46Z" style="fill: #1c1f23;"/>
      <path d="M350.46,394.9c.23,1.15.44,2.23.77,3.88h-10.84v6.66h9.16v4.17h-9.1v6.91h10.64c-.24,1.72-.42,2.99-.6,4.3h-14.25v-25.93h14.22Z" style="fill: #1c1f23;"/>
      <path d="M192.44,416.65h10.35c-.08,1.48-.14,2.65-.21,4.04h-14.51v-25.72h14.38c.14,1.05.29,2.21.49,3.71h-10.42v6.69h8.93v4.19h-9.01v7.1Z" style="fill: #1c1f23;"/>
      <path d="M418.02,394.9c.18,1.28.34,2.36.56,3.92h-10.66v6.57h9.12c.07,1.51.12,2.69.19,4.23h-9.28v6.92h10.67c-.28,1.72-.48,2.99-.68,4.23h-14.19v-25.87h14.27Z" style="fill: #1c1f23;"/>
      <path d="M44.18,394.86h3.92c3.08,8.48,6.16,16.95,9.4,25.86-1.52.08-2.78.15-4.2.22-1.03-2.66-2-5.18-3.02-7.83h-8.23c-.94,2.42-1.95,5.02-2.98,7.68h-4.3c3.17-8.75,6.26-17.28,9.4-25.94ZM49.16,408.95c-.99-2.77-1.91-5.33-3.08-8.6-1.15,3.38-2.01,5.89-2.94,8.6h6.02Z" style="fill: #1c1f23;"/>
      <path d="M320.64,407.51c2.49,4.49,4.83,8.71,7.35,13.25h-4.75c-1.57-2.89-3.26-5.99-5.14-9.47-1.84,3.44-3.45,6.47-5.08,9.52h-4.78c2.51-4.55,4.86-8.84,7.33-13.32-2.25-4.03-4.55-8.13-7-12.53h4.79c1.47,2.73,2.99,5.53,4.76,8.79,1.69-3.11,3.21-5.9,4.81-8.85h4.77c-2.41,4.32-4.69,8.39-7.04,12.61Z" style="fill: #1c1f23;"/>
      <path d="M442.23,396.89c-1.56,1.48-2.36,2.24-3.23,3.07-2.38-1.39-4.69-3.28-7.52-.61v3.26c2.31,1.36,4.56,2.65,6.77,4,2.98,1.82,4.73,4.3,4.42,7.99-.27,3.33-2.38,5.92-5.64,6.47-4.16.69-7.87-.14-10.89-3.64.87-.94,1.69-1.83,2.38-2.57,1.87.92,3.43,1.98,5.15,2.47,1.72.48,3.62.16,4.39-1.82.75-1.93.26-3.69-1.57-4.88-1.04-.67-2.15-1.24-3.21-1.89-1.06-.64-2.16-1.25-3.13-2.01-3.17-2.47-3.99-5.21-2.65-8.46,1.19-2.88,4.48-4.68,8.02-3.94,2.09.43,4.05,1.52,6.72,2.58Z" style="fill: #1c1f23;"/>
      <path d="M65.23,420.76v-25.89h4.11v21.65h9.8c-.33,1.76-.56,3.02-.79,4.24h-13.12Z" style="fill: #1c1f23;"/>
      <path d="M87,394.85h4.11v21.86h9.66c-.3,1.64-.52,2.84-.75,4.12h-13.02v-25.98Z" style="fill: #1c1f23;"/>
      <path d="M360.5,394.87h4.14v21.86h9.38c-.17,1.52-.31,2.72-.46,4.06h-13.06v-25.91Z" style="fill: #1c1f23;"/>
      <path d="M382.17,394.87h4.02v21.59h9.38c-.1,1.62-.17,2.89-.26,4.31h-13.14v-25.9Z" style="fill: #1c1f23;"/>
      <path d="M177.15,420.85h-3.94v-25.92c1.15-.06,2.43-.13,3.94-.21v26.13Z" style="fill: #1c1f23;"/>
      <path d="M56.09,325.06h-5.86c1.03-3.01,1.98-5.78,3.01-8.77h8.74c-2.04,3.03-3.94,5.87-5.89,8.77Z" style="fill: #1c1f23;"/>
      <path d="M146.99,325.08c1.17-3.22,2.18-5.98,3.22-8.84h8.59c-2.03,3.07-3.91,5.91-5.85,8.84h-5.96Z" style="fill: #1c1f23;"/>
      <path d="M219.96,409.59v3.58h-8.78c-.08-1.04-.16-2.2-.26-3.58h9.04Z" style="fill: #1c1f23;"/>
      <path d="M183.9,377.7c1.96-.11,3.92-.22,6.08-.33v-23.14c.76,1.35,1.11,1.97,1.47,2.6-.25,1.01-.69,2.02-.71,3.03-.07,5.85-.03,11.7-.03,17.84h-6.8Z" style="fill: #233970;"/>
      <path d="M183.13,354.75c0,7.22.02,14.45.03,21.67,0-7.22-.02-14.45-.03-21.67Z" style="fill: #233970;"/>
      <path d="M183.21,331.28c-.02,3.8-.04,7.61-.06,11.41.02-3.8.04-7.61.06-11.41Z" style="fill: #233970;"/>
      <path d="M199.94,331.05c-.41-.08-.83-.15-1.24-.23.41.08.83.15,1.24.23Z" style="fill: #233970;"/>
    </g>
  </g>
</svg>