<?xml version="1.0" encoding="UTF-8"?>
<svg id="Calque_2" xmlns="http://www.w3.org/2000/svg" viewBox="0 0 192.45 151.62">
  <g id="Calque_1-2" data-name="Calque_1">
    <g>
      <path d="M152.77,56.7c-.06,31.47-25.53,56.98-57.26,56.69-31.09-.28-56.52-25.34-56.21-57.33C39.6,24.25,66.12-.88,97.68.02c29.53.84,54.89,24.69,55.09,56.68ZM88.61,38.77c-2.29,5.16-4.68,10.15-6.76,15.27-4.47,11-8.21,22.2-8.95,34.18-.2,3.21,0,6.39,1.24,9.41,1.41,3.42,4.26,4.58,7.69,3.2,2.53-1.02,4.6-2.71,6.51-4.59,4.81-4.75,8.5-10.34,11.86-16.16.09-.15.1-.35.1-.34-7.17-2.99-14.25-5.94-21.4-8.91.65-2.06,1.2-3.82,1.77-5.63,7.42,3.63,14.85,6.77,22.83,9.43,3.25-7.48,6.46-14.87,9.71-22.35,1.5.82,3.09,1.69,4.95,2.71-3.09,7.15-6.15,14.21-9.25,21.37,7.16,1.99,14.43,3.72,22.02,3.43,2.35-.09,4.68-.45,6.82-1.59,2.34-1.25,3.47-3.31,2.85-5.85-.33-1.36-.97-2.7-1.72-3.9-1.94-3.13-4.63-5.58-7.47-7.86-6.91-5.56-14.61-9.81-22.58-13.62-6.47-3.09-13.1-5.79-20.21-8.2ZM83.18,37.06c-7.45-2.07-14.95-3.91-22.78-3.38-1.95.13-3.91.72-5.77,1.38-1.92.69-3.14,2.22-3.34,4.31-.19,2.09.73,3.89,1.83,5.58,2.52,3.83,5.93,6.77,9.58,9.46,2.56,1.89,5.24,3.61,7.91,5.45-.57,1.73-1.15,3.48-1.8,5.43-2.7-1.77-5.32-3.37-7.81-5.16-5.86-4.23-11.4-8.77-14.58-15.84-2.37,9.75-2.04,19.18,1.06,28.46,3.86,11.58,11.04,20.62,21.45,27.3-.35-1.19-.69-2.2-.93-3.23-1.27-5.51-.79-11.03.12-16.52,1.63-9.79,4.7-19.18,8.49-28.32,2.05-4.96,4.32-9.84,6.56-14.91ZM145.64,69.08c2.6-10.98,1.88-21.57-2.36-31.87-4.13-10.02-10.85-17.9-20.12-23.83,3.36,10.52.77,20.49-1.65,30.6-1.03-.55-1.9-1.02-2.78-1.48-2.33-1.24-2.3-1.23-1.7-3.75,1.35-5.64,2.46-11.32,2.03-17.15-.15-2.04-.56-4.13-1.28-6.04-1.2-3.19-4.01-4.32-7.21-3.11-1.22.46-2.4,1.1-3.46,1.85-4.43,3.15-7.71,7.38-10.75,11.8-1.7,2.47-3.24,5.05-4.89,7.66.62.24,1.02.4,1.43.55,12,4.29,23.6,9.45,34.33,16.39,7.37,4.76,14.43,9.91,18.41,18.37ZM83.88,106.24c11.67,2.78,23,1.81,33.89-3.3,9.01-4.23,16.13-10.63,21.56-19.09-11.58,3.52-22.47.35-33.12-2.38-2.88,4.28-5.54,8.56-8.53,12.58-3.7,4.99-7.92,9.51-13.8,12.19ZM107.92,7.02c-11.56-3.12-25.65-1.21-36.82,5.08-7.2,4.06-16.92,13.4-18.1,17.48,3.14-1.24,6.37-1.62,9.65-1.62,7.28.01,14.32,1.54,21.29,3.48,2.15.6,2.13.59,3.24-1.3,3.86-6.6,8.05-12.98,13.82-18.1,2.15-1.9,4.65-3.4,6.93-5.03Z"/>
      <path d="M170.83,151.29h-4.71v-18.56h4.45c.05.41.09.83.15,1.36,3.32-2.19,6.52-2.41,9.58.59,1.85-1.84,4.09-2.49,6.65-2.13,3.03.42,5.3,2.55,5.42,5.62.17,4.34.04,8.69.04,13.11h-4.59c-.02-.41-.07-.83-.07-1.24,0-3.12,0-6.23,0-9.35,0-.6-.02-1.21-.15-1.79-.31-1.41-1.67-2.33-3.15-2.2-1.64.14-2.77,1.33-2.79,3.03-.03,3.39,0,6.79,0,10.18,0,.43,0,.86,0,1.36h-4.77c0-.44,0-.86,0-1.29,0-3.43.02-6.87-.02-10.3-.02-1.47-.82-2.47-2.12-2.85-1.31-.39-2.69.02-3.36,1.16-.34.58-.52,1.34-.53,2.03-.05,3.71-.02,7.42-.02,11.26Z"/>
      <path d="M15.48,151.28h-4.77c0-.44,0-.86,0-1.28,0-3.31,0-6.63,0-9.94,0-2.03-1.16-3.31-2.96-3.35-1.8-.04-3.07,1.19-3.11,3.21-.07,3.31-.02,6.63-.02,9.94,0,.47,0,.94,0,1.46H0v-18.6h4.41c.04.46.09.92.14,1.5,1.47-1.17,3.05-1.81,4.87-1.74,1.84.08,3.41.74,4.65,2.29,1.88-1.9,4.12-2.55,6.67-2.2,3.16.44,5.38,2.67,5.49,5.95.14,4.22.03,8.45.03,12.77h-4.74c0-2.85,0-5.63,0-8.42,0-1.08.03-2.16-.01-3.23-.06-1.73-1.31-2.93-3-2.92-1.67,0-2.99,1.21-3.02,2.92-.05,3.43-.02,6.87-.02,10.3,0,.43,0,.86,0,1.36Z"/>
      <path d="M84.96,151.3h-4.43c-.05-.42-.09-.83-.11-.99-1.4.41-2.78,1.12-4.2,1.19-3.98.19-6.15-1.52-6.61-5.46-.32-2.74-.33-5.6.08-8.33.76-5.01,6.02-6.95,10.13-3.96.09.07.19.12.44.28v-8.1h4.71v25.37ZM80.37,142.08c-.05,0-.11,0-.16-.01,0-.76.02-1.51,0-2.27-.01-.31-.12-.63-.21-.93-.41-1.41-1.35-2.15-2.77-2.18-1.43-.03-2.62.64-2.78,2.09-.22,2.14-.22,4.34.01,6.49.16,1.46,1.32,2.09,2.78,2.06,1.44-.03,2.41-.74,2.74-2.19.23-1,.27-2.04.4-3.06Z"/>
      <path d="M98.87,140.29c.05-1.43.08-2.68-1.25-3.39-1.73-.92-3.83-.52-5.77,1.14-.89-.99-1.79-1.98-2.89-3.21.93-.57,1.94-1.46,3.11-1.85,2.56-.85,5.2-.75,7.75.15,2.23.79,3.6,2.44,3.68,4.82.14,4.19.1,8.38.13,12.57,0,.23-.05.47-.08.77h-4.5c-.04-.38-.08-.76-.14-1.3-1.82,1.6-3.91,1.84-6.1,1.43-3.31-.62-4.93-2.92-4.65-6.42.22-2.65,2.52-4.61,5.58-4.7,1.67-.05,3.34,0,5.14,0ZM98.78,143.54c-1.2,0-2.35,0-3.49,0-.32,0-.64.03-.95.09-.95.19-1.57.72-1.66,1.75-.09,1.06.39,1.75,1.37,2.1,2.94,1.07,5.12-.65,4.72-3.95Z"/>
      <path d="M131.29,143.49c.08,1.74.6,3.05,2.03,3.64,2.28.95,4.37.45,6.24-1.29.9.96,1.78,1.91,2.7,2.91-1.31,1.52-3.06,2.54-5.15,2.7-1.57.12-3.21.07-4.75-.25-2.58-.53-4.29-2.24-5.08-4.74-.88-2.76-.93-5.58-.09-8.36,1.17-3.88,4.34-5.98,8.37-5.61,4,.37,6.79,3.05,7.24,7.03.14,1.26.13,2.54.2,3.97h-11.7ZM138.17,140.24c.14-2.28-1.29-3.84-3.46-3.81-2.08.02-3.47,1.59-3.33,3.81h6.78Z"/>
      <path d="M50.2,151.29v-18.56h4.5c.05.42.11.84.18,1.39,1.7-1.28,3.52-1.89,5.61-1.57,2.65.41,4.85,2.09,5,4.72.26,4.64.07,9.31.07,14.03h-4.54c0-.44,0-.86,0-1.28,0-3.35.04-6.71-.01-10.06-.04-2.69-2.57-4.12-4.76-2.75-1.16.73-1.36,1.92-1.37,3.14-.03,3.19,0,6.39,0,9.58,0,.43,0,.86,0,1.35h-4.66Z"/>
      <path d="M41.16,132.69h4.67v18.59h-4.47c-.05-.41-.1-.79-.17-1.31-.31.18-.56.32-.8.47-2.2,1.39-4.51,1.56-6.83.43-2.24-1.09-3.17-3.1-3.2-5.48-.06-4.19-.02-8.38-.02-12.66h4.71c0,.47,0,.94,0,1.41,0,3.32-.03,6.63.01,9.94.03,2.33,1.6,3.6,3.75,3.15,1.47-.3,2.32-1.48,2.33-3.31.02-3.27,0-6.55,0-9.83,0-.43,0-.87,0-1.41Z"/>
      <path d="M157.06,132.69h4.61v18.6h-4.45c-.04-.43-.08-.82-.1-.99-1.45.42-2.89,1.12-4.37,1.2-3.7.2-6.16-1.74-6.41-5.43-.3-4.4-.07-8.84-.07-13.34h4.66c0,.8,0,1.55,0,2.29,0,3-.02,5.99,0,8.99.02,2.09,1.12,3.29,2.97,3.31,1.83.03,3-1.05,3.06-3.08.1-3.35.07-6.71.09-10.06,0-.47,0-.94,0-1.49Z"/>
      <path d="M123.36,151.31h-4.77c0-.46,0-.89,0-1.31,0-3.36.03-6.71-.01-10.07-.03-2.65-2.47-4.07-4.67-2.77-1.19.7-1.42,1.85-1.42,3.1,0,3.24,0,6.47,0,9.71,0,.43,0,.86,0,1.34h-4.64v-18.59h4.45c.03.47.07.9.11,1.47,1.74-1.38,3.6-1.95,5.73-1.62,2.66.41,4.7,2.24,4.97,4.91.25,2.41.2,4.86.24,7.29.03,2.15,0,4.3,0,6.56Z"/>
    </g>
  </g>
</svg>